M48
; DRILL file {KiCad (6.0.2)} date Thu Mar 10 22:10:35 2022
; FORMAT={-:-/ absolute / metric / decimal}
; #@! TF.CreationDate,2022-03-10T22:10:35-05:00
; #@! TF.GenerationSoftware,Kicad,Pcbnew,(6.0.2)
; #@! TF.FileFunction,Plated,1,2,PTH
FMAT,2
METRIC
; #@! TA.AperFunction,Plated,PTH,ViaDrill
T1C0.400
; #@! TA.AperFunction,Plated,PTH,ComponentDrill
T2C0.400
; #@! TA.AperFunction,Plated,PTH,ComponentDrill
T3C0.800
; #@! TA.AperFunction,Plated,PTH,ComponentDrill
T4C0.889
; #@! TA.AperFunction,Plated,PTH,ComponentDrill
T5C0.890
; #@! TA.AperFunction,Plated,PTH,ComponentDrill
T6C1.600
%
G90
G05
T1
X69.976Y-89.74
X73.936Y-66.372
X75.31Y-48.338
X92.582Y-92.534
X93.09Y-87.454
X93.522Y-49.206
X94.86Y-90.653
X95.63Y-66.372
X97.916Y-96.598
X99.496Y-71.198
X99.948Y-91.264
X103.758Y-83.39
T2
X63.693Y-63.123
X64.373Y-51.113
X69.468Y-51.015
X70.455Y-63.006
X70.992Y-48.592
X79.792Y-47.517
X81.982Y-51.025
X82.422Y-63.07
X82.518Y-64.975
X85.448Y-51.122
X86.475Y-63.09
X90.528Y-49.344
X91.555Y-63.09
X97.386Y-50.868
X99.164Y-50.868
X99.192Y-65.078
X104.752Y-50.868
X105.006Y-60.774
T3
X65.372Y-53.291
X65.372Y-60.911
X67.912Y-53.291
X67.912Y-60.911
X70.452Y-53.291
X70.452Y-60.911
X72.992Y-53.291
X72.992Y-60.911
X75.532Y-53.291
X75.532Y-60.911
X78.072Y-53.291
X78.072Y-60.911
X80.612Y-53.291
X80.612Y-60.911
X87.231Y-53.164
X87.231Y-60.784
X89.771Y-53.164
X89.771Y-60.784
X92.311Y-53.164
X92.311Y-60.784
X94.851Y-53.164
X94.851Y-60.784
X97.391Y-53.164
X97.391Y-60.784
X99.931Y-53.164
X99.931Y-60.784
X102.471Y-53.164
X102.471Y-60.784
T4
X72.262Y-42.983
X72.262Y-45.523
X74.802Y-42.983
X74.802Y-45.523
X77.342Y-42.983
X77.342Y-45.523
X79.882Y-42.983
X79.882Y-45.523
X82.422Y-42.983
X82.422Y-45.523
X84.962Y-42.983
X84.962Y-45.523
X87.502Y-42.983
X87.502Y-45.523
X90.042Y-42.983
X90.042Y-45.523
X92.582Y-42.983
X92.582Y-45.523
X95.122Y-42.983
X95.122Y-45.523
T5
X65.912Y-68.15
X65.912Y-70.69
X65.912Y-73.23
X65.912Y-75.77
X65.912Y-78.31
X65.912Y-80.85
X65.912Y-83.39
X65.912Y-85.93
X65.912Y-88.47
X65.912Y-91.01
X65.912Y-93.55
X65.912Y-96.09
X81.152Y-68.15
X81.152Y-70.69
X81.152Y-73.23
X81.152Y-75.77
X81.152Y-78.31
X81.152Y-80.85
X81.152Y-83.39
X81.152Y-85.93
X81.152Y-88.47
X81.152Y-91.01
X81.152Y-93.55
X81.152Y-96.09
T6
X63.372Y-38.94
X63.372Y-44.02
X87.502Y-91.01
X87.502Y-96.09
T0
M30
