%TF.GenerationSoftware,KiCad,Pcbnew,(6.0.2)*%
%TF.CreationDate,2022-03-10T22:08:29-05:00*%
%TF.ProjectId,SmartSole-Rev1,536d6172-7453-46f6-9c65-2d526576312e,rev?*%
%TF.SameCoordinates,Original*%
%TF.FileFunction,Copper,L2,Bot*%
%TF.FilePolarity,Positive*%
%FSLAX46Y46*%
G04 Gerber Fmt 4.6, Leading zero omitted, Abs format (unit mm)*
G04 Created by KiCad (PCBNEW (6.0.2)) date 2022-03-10 22:08:29*
%MOMM*%
%LPD*%
G01*
G04 APERTURE LIST*
%TA.AperFunction,ComponentPad*%
%ADD10C,2.800000*%
%TD*%
%TA.AperFunction,ComponentPad*%
%ADD11R,1.398000X1.398000*%
%TD*%
%TA.AperFunction,ComponentPad*%
%ADD12C,1.398000*%
%TD*%
%TA.AperFunction,ComponentPad*%
%ADD13C,0.800000*%
%TD*%
%TA.AperFunction,ComponentPad*%
%ADD14R,1.397000X1.397000*%
%TD*%
%TA.AperFunction,ComponentPad*%
%ADD15C,1.397000*%
%TD*%
%TA.AperFunction,ComponentPad*%
%ADD16R,1.600000X1.600000*%
%TD*%
%TA.AperFunction,ComponentPad*%
%ADD17O,1.600000X1.600000*%
%TD*%
%TA.AperFunction,ViaPad*%
%ADD18C,0.800000*%
%TD*%
%TA.AperFunction,Conductor*%
%ADD19C,0.250000*%
%TD*%
%TA.AperFunction,Conductor*%
%ADD20C,0.500000*%
%TD*%
G04 APERTURE END LIST*
D10*
%TO.P,3V3,1,1*%
%TO.N,+3V3*%
X87502499Y-91010000D03*
%TD*%
D11*
%TO.P,J3,1,1*%
%TO.N,unconnected-(J3-Pad1)*%
X81152499Y-68150000D03*
D12*
%TO.P,J3,2,2*%
%TO.N,unconnected-(J3-Pad2)*%
X81152499Y-70690000D03*
%TO.P,J3,3,3*%
%TO.N,/SDO-MISO*%
X81152499Y-73230000D03*
%TO.P,J3,4,4*%
%TO.N,/SDI-MOSI*%
X81152499Y-75770000D03*
%TO.P,J3,5,5*%
%TO.N,/SCLK*%
X81152499Y-78310000D03*
%TO.P,J3,6,6*%
%TO.N,/CS*%
X81152499Y-80850000D03*
%TO.P,J3,7,7*%
%TO.N,unconnected-(J3-Pad7)*%
X81152499Y-83390000D03*
%TO.P,J3,8,8*%
%TO.N,unconnected-(J3-Pad8)*%
X81152499Y-85930000D03*
%TO.P,J3,9,9*%
%TO.N,unconnected-(J3-Pad9)*%
X81152499Y-88470000D03*
%TO.P,J3,10,10*%
%TO.N,unconnected-(J3-Pad10)*%
X81152499Y-91010000D03*
%TO.P,J3,11,11*%
%TO.N,unconnected-(J3-Pad11)*%
X81152499Y-93550000D03*
%TO.P,J3,12,12*%
%TO.N,unconnected-(J3-Pad12)*%
X81152499Y-96090000D03*
%TD*%
D13*
%TO.P,F0,1,1*%
%TO.N,/ForceIn_0*%
X99164499Y-50868000D03*
%TD*%
D10*
%TO.P,3V0,1,1*%
%TO.N,/VRef*%
X63372499Y-44020000D03*
%TD*%
D13*
%TO.P,F3,1,1*%
%TO.N,/ForceIn_3*%
X99191612Y-65077727D03*
%TD*%
%TO.P,A4,1,1*%
%TO.N,/AIN4*%
X81981567Y-51025367D03*
%TD*%
%TO.P,A1,1,1*%
%TO.N,/AIN1*%
X85448499Y-51122000D03*
%TD*%
%TO.P,VR1,1,1*%
%TO.N,/Op Amps/VRef1*%
X97386499Y-50868000D03*
%TD*%
D11*
%TO.P,J2,1,1*%
%TO.N,unconnected-(J2-Pad1)*%
X65912499Y-96090000D03*
D12*
%TO.P,J2,2,2*%
%TO.N,GND*%
X65912499Y-93550000D03*
%TO.P,J2,3,3*%
%TO.N,unconnected-(J2-Pad3)*%
X65912499Y-91010000D03*
%TO.P,J2,4,4*%
%TO.N,+3V3*%
X65912499Y-88470000D03*
%TO.P,J2,5,5*%
%TO.N,/AIN2*%
X65912499Y-85930000D03*
%TO.P,J2,6,6*%
%TO.N,/AIN3*%
X65912499Y-83390000D03*
%TO.P,J2,7,7*%
%TO.N,/AIN4*%
X65912499Y-80850000D03*
%TO.P,J2,8,8*%
%TO.N,/AIN5*%
X65912499Y-78310000D03*
%TO.P,J2,9,9*%
%TO.N,/AIN6*%
X65912499Y-75770000D03*
%TO.P,J2,10,10*%
%TO.N,/AIN7*%
X65912499Y-73230000D03*
%TO.P,J2,11,11*%
%TO.N,/AIN1*%
X65912499Y-70690000D03*
%TO.P,J2,12,12*%
%TO.N,/AIN0*%
X65912499Y-68150000D03*
%TD*%
D13*
%TO.P,VR2,1,1*%
%TO.N,/Op Amps/VRef2*%
X70454806Y-63006031D03*
%TD*%
D14*
%TO.P,J1,1,1*%
%TO.N,/ForceIn_7*%
X72262499Y-45523000D03*
D15*
%TO.P,J1,2,2*%
%TO.N,GND*%
X72262499Y-42983000D03*
%TO.P,J1,3,3*%
%TO.N,/ForceIn_6*%
X74802499Y-45523000D03*
%TO.P,J1,4,4*%
%TO.N,GND*%
X74802499Y-42983000D03*
%TO.P,J1,5,5*%
%TO.N,/ForceIn_5*%
X77342499Y-45523000D03*
%TO.P,J1,6,6*%
%TO.N,GND*%
X77342499Y-42983000D03*
%TO.P,J1,7,7*%
%TO.N,/ForceIn_4*%
X79882499Y-45523000D03*
%TO.P,J1,8,8*%
%TO.N,GND*%
X79882499Y-42983000D03*
%TO.P,J1,9,9*%
%TO.N,/ForceIn_3*%
X82422499Y-45523000D03*
%TO.P,J1,10,10*%
%TO.N,GND*%
X82422499Y-42983000D03*
%TO.P,J1,11,11*%
%TO.N,/ForceIn_2*%
X84962499Y-45523000D03*
%TO.P,J1,12,12*%
%TO.N,GND*%
X84962499Y-42983000D03*
%TO.P,J1,13,13*%
%TO.N,/ForceIn_1*%
X87502499Y-45523000D03*
%TO.P,J1,14,14*%
%TO.N,GND*%
X87502499Y-42983000D03*
%TO.P,J1,15,15*%
%TO.N,/ForceIn_0*%
X90042499Y-45523000D03*
%TO.P,J1,16,16*%
%TO.N,GND*%
X90042499Y-42983000D03*
%TO.P,J1,17,17*%
X92582499Y-45523000D03*
%TO.P,J1,18,18*%
X92582499Y-42983000D03*
%TO.P,J1,19,19*%
X95122499Y-45523000D03*
%TO.P,J1,20,20*%
X95122499Y-42983000D03*
%TD*%
D13*
%TO.P,F7,1,1*%
%TO.N,/ForceIn_7*%
X82422499Y-63070000D03*
%TD*%
%TO.P,A2,1,1*%
%TO.N,/AIN2*%
X86474524Y-63090215D03*
%TD*%
%TO.P,F4,1,1*%
%TO.N,/ForceIn_4*%
X79791572Y-47516654D03*
%TD*%
%TO.P,A5,1,1*%
%TO.N,/AIN5*%
X64372723Y-51113142D03*
%TD*%
%TO.P,A3,1,1*%
%TO.N,/AIN3*%
X105006499Y-60774000D03*
%TD*%
%TO.P,A6,1,1*%
%TO.N,/AIN6*%
X63693176Y-63122612D03*
%TD*%
%TO.P,F1,1,1*%
%TO.N,/ForceIn_1*%
X90528499Y-49344000D03*
%TD*%
D10*
%TO.P,GND1,1,1*%
%TO.N,GND*%
X63372499Y-38940000D03*
%TD*%
%TO.P,GND2,1,1*%
%TO.N,GND*%
X87502499Y-96090000D03*
%TD*%
D16*
%TO.P,U2,1*%
%TO.N,/AIN4*%
X80612498Y-53291000D03*
D17*
%TO.P,U2,2,-*%
%TO.N,/ForceIn_4*%
X78072498Y-53291000D03*
%TO.P,U2,3,+*%
%TO.N,/Op Amps/VRef2*%
X75532498Y-53291000D03*
%TO.P,U2,4,V+*%
%TO.N,+3V3*%
X72992498Y-53291000D03*
%TO.P,U2,5,+*%
%TO.N,/Op Amps/VRef2*%
X70452498Y-53291000D03*
%TO.P,U2,6,-*%
%TO.N,/ForceIn_5*%
X67912498Y-53291000D03*
%TO.P,U2,7*%
%TO.N,/AIN5*%
X65372498Y-53291000D03*
%TO.P,U2,8*%
%TO.N,/AIN6*%
X65372498Y-60911000D03*
%TO.P,U2,9,-*%
%TO.N,/ForceIn_6*%
X67912498Y-60911000D03*
%TO.P,U2,10,+*%
%TO.N,/Op Amps/VRef2*%
X70452498Y-60911000D03*
%TO.P,U2,11,V-*%
%TO.N,GND*%
X72992498Y-60911000D03*
%TO.P,U2,12,+*%
%TO.N,/Op Amps/VRef2*%
X75532498Y-60911000D03*
%TO.P,U2,13,-*%
%TO.N,/ForceIn_7*%
X78072498Y-60911000D03*
%TO.P,U2,14*%
%TO.N,/AIN7*%
X80612498Y-60911000D03*
%TD*%
D13*
%TO.P,F5,1,1*%
%TO.N,/ForceIn_5*%
X69467934Y-51015157D03*
%TD*%
%TO.P,A7,1,1*%
%TO.N,/AIN7*%
X82518035Y-64975416D03*
%TD*%
%TO.P,F6,1,1*%
%TO.N,/ForceIn_6*%
X70992499Y-48592000D03*
%TD*%
D16*
%TO.P,U1,1*%
%TO.N,/AIN0*%
X102471499Y-53164000D03*
D17*
%TO.P,U1,2,-*%
%TO.N,/ForceIn_0*%
X99931499Y-53164000D03*
%TO.P,U1,3,+*%
%TO.N,/Op Amps/VRef1*%
X97391499Y-53164000D03*
%TO.P,U1,4,V+*%
%TO.N,+3V3*%
X94851499Y-53164000D03*
%TO.P,U1,5,+*%
%TO.N,/Op Amps/VRef1*%
X92311499Y-53164000D03*
%TO.P,U1,6,-*%
%TO.N,/ForceIn_1*%
X89771499Y-53164000D03*
%TO.P,U1,7*%
%TO.N,/AIN1*%
X87231499Y-53164000D03*
%TO.P,U1,8*%
%TO.N,/AIN2*%
X87231499Y-60784000D03*
%TO.P,U1,9,-*%
%TO.N,/ForceIn_2*%
X89771499Y-60784000D03*
%TO.P,U1,10,+*%
%TO.N,/Op Amps/VRef1*%
X92311499Y-60784000D03*
%TO.P,U1,11,V-*%
%TO.N,GND*%
X94851499Y-60784000D03*
%TO.P,U1,12,+*%
%TO.N,/Op Amps/VRef1*%
X97391499Y-60784000D03*
%TO.P,U1,13,-*%
%TO.N,/ForceIn_3*%
X99931499Y-60784000D03*
%TO.P,U1,14*%
%TO.N,/AIN3*%
X102471499Y-60784000D03*
%TD*%
D13*
%TO.P,A0,1,1*%
%TO.N,/AIN0*%
X104752499Y-50868000D03*
%TD*%
%TO.P,F2,1,1*%
%TO.N,/ForceIn_2*%
X91554524Y-63090215D03*
%TD*%
D18*
%TO.N,GND*%
X92582499Y-92534000D03*
X93090499Y-87454000D03*
X75310499Y-48338000D03*
X99496271Y-71198000D03*
X99948499Y-91264000D03*
X69976499Y-89740000D03*
X103758499Y-83390000D03*
X93522028Y-49206267D03*
X97916499Y-96598000D03*
%TO.N,/VRef*%
X73936252Y-66372000D03*
X94859851Y-90653170D03*
X95630499Y-66372000D03*
%TD*%
D19*
%TO.N,/VRef*%
X66928499Y-49608000D02*
X63372499Y-46052000D01*
X69976499Y-49608000D02*
X66928499Y-49608000D01*
X94360499Y-50878000D02*
X87502499Y-50878000D01*
X71754499Y-51386000D02*
X69976499Y-49608000D01*
X73786499Y-49862000D02*
X67944499Y-44020000D01*
X95630499Y-66372000D02*
X95976010Y-66026489D01*
X95976010Y-52493511D02*
X94360499Y-50878000D01*
X73936252Y-66372000D02*
X71754499Y-64190247D01*
X87502499Y-50878000D02*
X86486499Y-49862000D01*
X94859851Y-90653170D02*
X94859851Y-67142648D01*
X95976010Y-66026489D02*
X95976010Y-52493511D01*
X63372499Y-46052000D02*
X63372499Y-44020000D01*
X67944499Y-44020000D02*
X63372499Y-44020000D01*
X71754499Y-64190247D02*
X71754499Y-51386000D01*
X86486499Y-49862000D02*
X73786499Y-49862000D01*
X94859851Y-67142648D02*
X95630499Y-66372000D01*
D20*
%TO.N,+3V3*%
X85216499Y-59514000D02*
X85216499Y-72468000D01*
X72992498Y-56179999D02*
X74802499Y-57990000D01*
X72992498Y-53291000D02*
X72992498Y-56179999D01*
X83559988Y-92158511D02*
X84708499Y-91010000D01*
X85216499Y-72468000D02*
X87502499Y-74754000D01*
X84708499Y-91010000D02*
X87502499Y-91010000D01*
X65912499Y-88470000D02*
X73786499Y-88470000D01*
X77475010Y-92158511D02*
X83559988Y-92158511D01*
X94851499Y-53164000D02*
X92819499Y-55196000D01*
X74802499Y-57990000D02*
X83692499Y-57990000D01*
X73786499Y-88470000D02*
X77475010Y-92158511D01*
X74897498Y-55196000D02*
X72992498Y-53291000D01*
X83692499Y-57990000D02*
X85216499Y-59514000D01*
X92819499Y-55196000D02*
X74897498Y-55196000D01*
X87502499Y-74754000D02*
X87502499Y-91010000D01*
%TD*%
%TA.AperFunction,Conductor*%
%TO.N,GND*%
G36*
X107129620Y-33245002D02*
G01*
X107176113Y-33298658D01*
X107187499Y-33351000D01*
X107187499Y-99139000D01*
X107167497Y-99207121D01*
X107113841Y-99253614D01*
X107061499Y-99265000D01*
X60323499Y-99265000D01*
X60255378Y-99244998D01*
X60208885Y-99191342D01*
X60197499Y-99139000D01*
X60197499Y-97607806D01*
X86349860Y-97607806D01*
X86357250Y-97618108D01*
X86399129Y-97652203D01*
X86406408Y-97657318D01*
X86630255Y-97792085D01*
X86638169Y-97796118D01*
X86878785Y-97898006D01*
X86887190Y-97900883D01*
X87139756Y-97967850D01*
X87148488Y-97969516D01*
X87407973Y-98000227D01*
X87416839Y-98000645D01*
X87678060Y-97994490D01*
X87686913Y-97993653D01*
X87944661Y-97950752D01*
X87953295Y-97948679D01*
X88202429Y-97869888D01*
X88210691Y-97866617D01*
X88446230Y-97753513D01*
X88453954Y-97749107D01*
X88647767Y-97619606D01*
X88656055Y-97609688D01*
X88648798Y-97595509D01*
X87515311Y-96462022D01*
X87501367Y-96454408D01*
X87499534Y-96454539D01*
X87492919Y-96458790D01*
X86357026Y-97594683D01*
X86349860Y-97607806D01*
X60197499Y-97607806D01*
X60197499Y-96837134D01*
X64704999Y-96837134D01*
X64711754Y-96899316D01*
X64762884Y-97035705D01*
X64850238Y-97152261D01*
X64966794Y-97239615D01*
X65103183Y-97290745D01*
X65165365Y-97297500D01*
X66659633Y-97297500D01*
X66721815Y-97290745D01*
X66858204Y-97239615D01*
X66974760Y-97152261D01*
X67062114Y-97035705D01*
X67113244Y-96899316D01*
X67119999Y-96837134D01*
X67119999Y-95342866D01*
X67113244Y-95280684D01*
X67062114Y-95144295D01*
X66974760Y-95027739D01*
X66858204Y-94940385D01*
X66721815Y-94889255D01*
X66659633Y-94882500D01*
X66479300Y-94882500D01*
X66411179Y-94862498D01*
X66364686Y-94808842D01*
X66354582Y-94738568D01*
X66384076Y-94673988D01*
X66426050Y-94642305D01*
X66513320Y-94601610D01*
X66522810Y-94596131D01*
X66553031Y-94574971D01*
X66561405Y-94564495D01*
X66554337Y-94551048D01*
X65925311Y-93922022D01*
X65911367Y-93914408D01*
X65909534Y-93914539D01*
X65902919Y-93918790D01*
X65269940Y-94551769D01*
X65263510Y-94563543D01*
X65272805Y-94575558D01*
X65302188Y-94596131D01*
X65311678Y-94601610D01*
X65398948Y-94642305D01*
X65452233Y-94689222D01*
X65471694Y-94757499D01*
X65451152Y-94825459D01*
X65397130Y-94871525D01*
X65345698Y-94882500D01*
X65165365Y-94882500D01*
X65103183Y-94889255D01*
X64966794Y-94940385D01*
X64850238Y-95027739D01*
X64762884Y-95144295D01*
X64711754Y-95280684D01*
X64704999Y-95342866D01*
X64704999Y-96837134D01*
X60197499Y-96837134D01*
X60197499Y-93555475D01*
X64701367Y-93555475D01*
X64718816Y-93754914D01*
X64720719Y-93765709D01*
X64772534Y-93959085D01*
X64776280Y-93969377D01*
X64860887Y-94150818D01*
X64866370Y-94160313D01*
X64887528Y-94190530D01*
X64898005Y-94198905D01*
X64911452Y-94191837D01*
X65540477Y-93562812D01*
X65546855Y-93551132D01*
X66276907Y-93551132D01*
X66277038Y-93552965D01*
X66281289Y-93559580D01*
X66914267Y-94192558D01*
X66926042Y-94198988D01*
X66938057Y-94189692D01*
X66958628Y-94160313D01*
X66964111Y-94150818D01*
X67048718Y-93969377D01*
X67052464Y-93959085D01*
X67104279Y-93765709D01*
X67106182Y-93754914D01*
X67123631Y-93555475D01*
X67123631Y-93544525D01*
X67106182Y-93345086D01*
X67104279Y-93334291D01*
X67052464Y-93140915D01*
X67048718Y-93130623D01*
X66964111Y-92949182D01*
X66958628Y-92939687D01*
X66937470Y-92909470D01*
X66926993Y-92901095D01*
X66913546Y-92908163D01*
X66284521Y-93537188D01*
X66276907Y-93551132D01*
X65546855Y-93551132D01*
X65548091Y-93548868D01*
X65547960Y-93547035D01*
X65543709Y-93540420D01*
X64910731Y-92907442D01*
X64898956Y-92901012D01*
X64886941Y-92910308D01*
X64866370Y-92939687D01*
X64860887Y-92949182D01*
X64776280Y-93130623D01*
X64772534Y-93140915D01*
X64720719Y-93334291D01*
X64718816Y-93345086D01*
X64701367Y-93544525D01*
X64701367Y-93555475D01*
X60197499Y-93555475D01*
X60197499Y-63122612D01*
X62779672Y-63122612D01*
X62780362Y-63129177D01*
X62793415Y-63253365D01*
X62799634Y-63312540D01*
X62858649Y-63494168D01*
X62954136Y-63659556D01*
X62958554Y-63664463D01*
X62958555Y-63664464D01*
X63071889Y-63790334D01*
X63081923Y-63801478D01*
X63125956Y-63833470D01*
X63191834Y-63881333D01*
X63236424Y-63913730D01*
X63242452Y-63916414D01*
X63242454Y-63916415D01*
X63403667Y-63988191D01*
X63410888Y-63991406D01*
X63504289Y-64011259D01*
X63591232Y-64029740D01*
X63591237Y-64029740D01*
X63597689Y-64031112D01*
X63788663Y-64031112D01*
X63795115Y-64029740D01*
X63795120Y-64029740D01*
X63882063Y-64011259D01*
X63975464Y-63991406D01*
X63982685Y-63988191D01*
X64143898Y-63916415D01*
X64143900Y-63916414D01*
X64149928Y-63913730D01*
X64194519Y-63881333D01*
X64260396Y-63833470D01*
X64304429Y-63801478D01*
X64314463Y-63790334D01*
X64427797Y-63664464D01*
X64427798Y-63664463D01*
X64432216Y-63659556D01*
X64527703Y-63494168D01*
X64586718Y-63312540D01*
X64592938Y-63253365D01*
X64605990Y-63129177D01*
X64606680Y-63122612D01*
X64586718Y-62932684D01*
X64527703Y-62751056D01*
X64432216Y-62585668D01*
X64398627Y-62548363D01*
X64308851Y-62448657D01*
X64308850Y-62448656D01*
X64304429Y-62443746D01*
X64149928Y-62331494D01*
X64143900Y-62328810D01*
X64143898Y-62328809D01*
X63981495Y-62256503D01*
X63981494Y-62256503D01*
X63975464Y-62253818D01*
X63882063Y-62233965D01*
X63795120Y-62215484D01*
X63795115Y-62215484D01*
X63788663Y-62214112D01*
X63597689Y-62214112D01*
X63591237Y-62215484D01*
X63591232Y-62215484D01*
X63504289Y-62233965D01*
X63410888Y-62253818D01*
X63404858Y-62256503D01*
X63404857Y-62256503D01*
X63242454Y-62328809D01*
X63242452Y-62328810D01*
X63236424Y-62331494D01*
X63081923Y-62443746D01*
X63077502Y-62448656D01*
X63077501Y-62448657D01*
X62987726Y-62548363D01*
X62954136Y-62585668D01*
X62858649Y-62751056D01*
X62799634Y-62932684D01*
X62779672Y-63122612D01*
X60197499Y-63122612D01*
X60197499Y-43959899D01*
X61460068Y-43959899D01*
X61461533Y-43997194D01*
X61469053Y-44188570D01*
X61470679Y-44229963D01*
X61519236Y-44495837D01*
X61604771Y-44752217D01*
X61606764Y-44756205D01*
X61671260Y-44885281D01*
X61725577Y-44993987D01*
X61728106Y-44997646D01*
X61856218Y-45183009D01*
X61879243Y-45216324D01*
X62062704Y-45414790D01*
X62272298Y-45585427D01*
X62503845Y-45724830D01*
X62507947Y-45726567D01*
X62662129Y-45791854D01*
X62717059Y-45836835D01*
X62738999Y-45907881D01*
X62738999Y-45973233D01*
X62738472Y-45984416D01*
X62736797Y-45991909D01*
X62737046Y-45999835D01*
X62737046Y-45999836D01*
X62738937Y-46059986D01*
X62738999Y-46063945D01*
X62738999Y-46091856D01*
X62739496Y-46095790D01*
X62739496Y-46095791D01*
X62739504Y-46095856D01*
X62740437Y-46107693D01*
X62741826Y-46151889D01*
X62746042Y-46166400D01*
X62747477Y-46171339D01*
X62751486Y-46190700D01*
X62754025Y-46210797D01*
X62756944Y-46218168D01*
X62756944Y-46218170D01*
X62770303Y-46251912D01*
X62774148Y-46263142D01*
X62776034Y-46269634D01*
X62786481Y-46305593D01*
X62790514Y-46312412D01*
X62790516Y-46312417D01*
X62796792Y-46323028D01*
X62805487Y-46340776D01*
X62812947Y-46359617D01*
X62817609Y-46366033D01*
X62817609Y-46366034D01*
X62838935Y-46395387D01*
X62845451Y-46405307D01*
X62867957Y-46443362D01*
X62882278Y-46457683D01*
X62895118Y-46472716D01*
X62907027Y-46489107D01*
X62913133Y-46494158D01*
X62941104Y-46517298D01*
X62949883Y-46525288D01*
X66424842Y-50000247D01*
X66432386Y-50008537D01*
X66436499Y-50015018D01*
X66442276Y-50020443D01*
X66486166Y-50061658D01*
X66489008Y-50064413D01*
X66508729Y-50084134D01*
X66511924Y-50086612D01*
X66520946Y-50094318D01*
X66553178Y-50124586D01*
X66560127Y-50128406D01*
X66570931Y-50134346D01*
X66587455Y-50145199D01*
X66603458Y-50157613D01*
X66644042Y-50175176D01*
X66654672Y-50180383D01*
X66693439Y-50201695D01*
X66701116Y-50203666D01*
X66701121Y-50203668D01*
X66713057Y-50206732D01*
X66731765Y-50213137D01*
X66750354Y-50221181D01*
X66758179Y-50222420D01*
X66758181Y-50222421D01*
X66794018Y-50228097D01*
X66805639Y-50230504D01*
X66840788Y-50239528D01*
X66848469Y-50241500D01*
X66868730Y-50241500D01*
X66888439Y-50243051D01*
X66908442Y-50246219D01*
X66916334Y-50245473D01*
X66921561Y-50244979D01*
X66952453Y-50242059D01*
X66964310Y-50241500D01*
X68659031Y-50241500D01*
X68727152Y-50261502D01*
X68773645Y-50315158D01*
X68783749Y-50385432D01*
X68752669Y-50451808D01*
X68728894Y-50478213D01*
X68633407Y-50643601D01*
X68574392Y-50825229D01*
X68573702Y-50831790D01*
X68573702Y-50831792D01*
X68559672Y-50965283D01*
X68554430Y-51015157D01*
X68555120Y-51021722D01*
X68571816Y-51180572D01*
X68574392Y-51205085D01*
X68633407Y-51386713D01*
X68636710Y-51392435D01*
X68636711Y-51392436D01*
X68643933Y-51404944D01*
X68728894Y-51552101D01*
X68733312Y-51557008D01*
X68733313Y-51557009D01*
X68848934Y-51685419D01*
X68856681Y-51694023D01*
X68932697Y-51749252D01*
X68997731Y-51796502D01*
X69011182Y-51806275D01*
X69017210Y-51808959D01*
X69017212Y-51808960D01*
X69158536Y-51871881D01*
X69185646Y-51883951D01*
X69277663Y-51903510D01*
X69365990Y-51922285D01*
X69365995Y-51922285D01*
X69372447Y-51923657D01*
X69563421Y-51923657D01*
X69569873Y-51922285D01*
X69569878Y-51922285D01*
X69658205Y-51903510D01*
X69750222Y-51883951D01*
X69777332Y-51871881D01*
X69918656Y-51808960D01*
X69918658Y-51808959D01*
X69924686Y-51806275D01*
X69938138Y-51796502D01*
X70003171Y-51749252D01*
X70079187Y-51694023D01*
X70086934Y-51685419D01*
X70202555Y-51557009D01*
X70202556Y-51557008D01*
X70206974Y-51552101D01*
X70291935Y-51404944D01*
X70299157Y-51392436D01*
X70299158Y-51392435D01*
X70302461Y-51386713D01*
X70361476Y-51205085D01*
X70363937Y-51181670D01*
X70390951Y-51116014D01*
X70449173Y-51075385D01*
X70520118Y-51072682D01*
X70578342Y-51105747D01*
X71084094Y-51611499D01*
X71118120Y-51673811D01*
X71120999Y-51700594D01*
X71120999Y-51961177D01*
X71100997Y-52029298D01*
X71047341Y-52075791D01*
X70977067Y-52085895D01*
X70941749Y-52075372D01*
X70906723Y-52059039D01*
X70906722Y-52059039D01*
X70901741Y-52056716D01*
X70896433Y-52055294D01*
X70896431Y-52055293D01*
X70685900Y-51998881D01*
X70685898Y-51998881D01*
X70680585Y-51997457D01*
X70452498Y-51977502D01*
X70224411Y-51997457D01*
X70219098Y-51998881D01*
X70219096Y-51998881D01*
X70008565Y-52055293D01*
X70008563Y-52055294D01*
X70003255Y-52056716D01*
X69998274Y-52059039D01*
X69998273Y-52059039D01*
X69800736Y-52151151D01*
X69800731Y-52151154D01*
X69795749Y-52153477D01*
X69727094Y-52201550D01*
X69612709Y-52281643D01*
X69612706Y-52281645D01*
X69608198Y-52284802D01*
X69446300Y-52446700D01*
X69314975Y-52634251D01*
X69312652Y-52639233D01*
X69312649Y-52639238D01*
X69296693Y-52673457D01*
X69249776Y-52726742D01*
X69181499Y-52746203D01*
X69113539Y-52725661D01*
X69068303Y-52673457D01*
X69052347Y-52639238D01*
X69052344Y-52639233D01*
X69050021Y-52634251D01*
X68918696Y-52446700D01*
X68756798Y-52284802D01*
X68752290Y-52281645D01*
X68752287Y-52281643D01*
X68637902Y-52201550D01*
X68569247Y-52153477D01*
X68564265Y-52151154D01*
X68564260Y-52151151D01*
X68366723Y-52059039D01*
X68366722Y-52059039D01*
X68361741Y-52056716D01*
X68356433Y-52055294D01*
X68356431Y-52055293D01*
X68145900Y-51998881D01*
X68145898Y-51998881D01*
X68140585Y-51997457D01*
X67912498Y-51977502D01*
X67684411Y-51997457D01*
X67679098Y-51998881D01*
X67679096Y-51998881D01*
X67468565Y-52055293D01*
X67468563Y-52055294D01*
X67463255Y-52056716D01*
X67458274Y-52059039D01*
X67458273Y-52059039D01*
X67260736Y-52151151D01*
X67260731Y-52151154D01*
X67255749Y-52153477D01*
X67187094Y-52201550D01*
X67072709Y-52281643D01*
X67072706Y-52281645D01*
X67068198Y-52284802D01*
X66906300Y-52446700D01*
X66774975Y-52634251D01*
X66772652Y-52639233D01*
X66772649Y-52639238D01*
X66756693Y-52673457D01*
X66709776Y-52726742D01*
X66641499Y-52746203D01*
X66573539Y-52725661D01*
X66528303Y-52673457D01*
X66512347Y-52639238D01*
X66512344Y-52639233D01*
X66510021Y-52634251D01*
X66378696Y-52446700D01*
X66216798Y-52284802D01*
X66212290Y-52281645D01*
X66212287Y-52281643D01*
X66097902Y-52201550D01*
X66029247Y-52153477D01*
X66024265Y-52151154D01*
X66024260Y-52151151D01*
X65826723Y-52059039D01*
X65826722Y-52059039D01*
X65821741Y-52056716D01*
X65816433Y-52055294D01*
X65816431Y-52055293D01*
X65605900Y-51998881D01*
X65605898Y-51998881D01*
X65600585Y-51997457D01*
X65372498Y-51977502D01*
X65144411Y-51997457D01*
X65139098Y-51998881D01*
X65139096Y-51998881D01*
X65096637Y-52010258D01*
X65025661Y-52008568D01*
X64966865Y-51968774D01*
X64938917Y-51903510D01*
X64950690Y-51833496D01*
X64979402Y-51795331D01*
X64983976Y-51792008D01*
X64997940Y-51776500D01*
X65107344Y-51654994D01*
X65107345Y-51654993D01*
X65111763Y-51650086D01*
X65189051Y-51516220D01*
X65203946Y-51490421D01*
X65203947Y-51490420D01*
X65207250Y-51484698D01*
X65266265Y-51303070D01*
X65268048Y-51286111D01*
X65285537Y-51119707D01*
X65286227Y-51113142D01*
X65277002Y-51025367D01*
X65266955Y-50929777D01*
X65266955Y-50929775D01*
X65266265Y-50923214D01*
X65207250Y-50741586D01*
X65111763Y-50576198D01*
X65042681Y-50499474D01*
X64988398Y-50439187D01*
X64988397Y-50439186D01*
X64983976Y-50434276D01*
X64844915Y-50333242D01*
X64834817Y-50325905D01*
X64834816Y-50325904D01*
X64829475Y-50322024D01*
X64823447Y-50319340D01*
X64823445Y-50319339D01*
X64661042Y-50247033D01*
X64661041Y-50247033D01*
X64655011Y-50244348D01*
X64551853Y-50222421D01*
X64474667Y-50206014D01*
X64474662Y-50206014D01*
X64468210Y-50204642D01*
X64277236Y-50204642D01*
X64270784Y-50206014D01*
X64270779Y-50206014D01*
X64193593Y-50222421D01*
X64090435Y-50244348D01*
X64084405Y-50247033D01*
X64084404Y-50247033D01*
X63922001Y-50319339D01*
X63921999Y-50319340D01*
X63915971Y-50322024D01*
X63910630Y-50325904D01*
X63910629Y-50325905D01*
X63900531Y-50333242D01*
X63761470Y-50434276D01*
X63757049Y-50439186D01*
X63757048Y-50439187D01*
X63702766Y-50499474D01*
X63633683Y-50576198D01*
X63538196Y-50741586D01*
X63479181Y-50923214D01*
X63478491Y-50929775D01*
X63478491Y-50929777D01*
X63468444Y-51025367D01*
X63459219Y-51113142D01*
X63459909Y-51119707D01*
X63477399Y-51286111D01*
X63479181Y-51303070D01*
X63538196Y-51484698D01*
X63541499Y-51490420D01*
X63541500Y-51490421D01*
X63556395Y-51516220D01*
X63633683Y-51650086D01*
X63638101Y-51654993D01*
X63638102Y-51654994D01*
X63757047Y-51787096D01*
X63761470Y-51792008D01*
X63818573Y-51833496D01*
X63889907Y-51885323D01*
X63915971Y-51904260D01*
X63921999Y-51906944D01*
X63922001Y-51906945D01*
X64062487Y-51969493D01*
X64090435Y-51981936D01*
X64170155Y-51998881D01*
X64270779Y-52020270D01*
X64270784Y-52020270D01*
X64277236Y-52021642D01*
X64468210Y-52021642D01*
X64474665Y-52020270D01*
X64474674Y-52020269D01*
X64488219Y-52017390D01*
X64559009Y-52022793D01*
X64615641Y-52065611D01*
X64640133Y-52132249D01*
X64624711Y-52201550D01*
X64586683Y-52243850D01*
X64532714Y-52281639D01*
X64532708Y-52281644D01*
X64528198Y-52284802D01*
X64366300Y-52446700D01*
X64234975Y-52634251D01*
X64232652Y-52639233D01*
X64232649Y-52639238D01*
X64192350Y-52725661D01*
X64138214Y-52841757D01*
X64078955Y-53062913D01*
X64059000Y-53291000D01*
X64078955Y-53519087D01*
X64080379Y-53524400D01*
X64080379Y-53524402D01*
X64135003Y-53728258D01*
X64138214Y-53740243D01*
X64140537Y-53745224D01*
X64140537Y-53745225D01*
X64232649Y-53942762D01*
X64232652Y-53942767D01*
X64234975Y-53947749D01*
X64366300Y-54135300D01*
X64528198Y-54297198D01*
X64532706Y-54300355D01*
X64532709Y-54300357D01*
X64610887Y-54355098D01*
X64715749Y-54428523D01*
X64720731Y-54430846D01*
X64720736Y-54430849D01*
X64918273Y-54522961D01*
X64923255Y-54525284D01*
X64928563Y-54526706D01*
X64928565Y-54526707D01*
X65139096Y-54583119D01*
X65139098Y-54583119D01*
X65144411Y-54584543D01*
X65372498Y-54604498D01*
X65600585Y-54584543D01*
X65605898Y-54583119D01*
X65605900Y-54583119D01*
X65816431Y-54526707D01*
X65816433Y-54526706D01*
X65821741Y-54525284D01*
X65826723Y-54522961D01*
X66024260Y-54430849D01*
X66024265Y-54430846D01*
X66029247Y-54428523D01*
X66134109Y-54355098D01*
X66212287Y-54300357D01*
X66212290Y-54300355D01*
X66216798Y-54297198D01*
X66378696Y-54135300D01*
X66510021Y-53947749D01*
X66512344Y-53942767D01*
X66512347Y-53942762D01*
X66528303Y-53908543D01*
X66575220Y-53855258D01*
X66643497Y-53835797D01*
X66711457Y-53856339D01*
X66756693Y-53908543D01*
X66772649Y-53942762D01*
X66772652Y-53942767D01*
X66774975Y-53947749D01*
X66906300Y-54135300D01*
X67068198Y-54297198D01*
X67072706Y-54300355D01*
X67072709Y-54300357D01*
X67150887Y-54355098D01*
X67255749Y-54428523D01*
X67260731Y-54430846D01*
X67260736Y-54430849D01*
X67458273Y-54522961D01*
X67463255Y-54525284D01*
X67468563Y-54526706D01*
X67468565Y-54526707D01*
X67679096Y-54583119D01*
X67679098Y-54583119D01*
X67684411Y-54584543D01*
X67912498Y-54604498D01*
X68140585Y-54584543D01*
X68145898Y-54583119D01*
X68145900Y-54583119D01*
X68356431Y-54526707D01*
X68356433Y-54526706D01*
X68361741Y-54525284D01*
X68366723Y-54522961D01*
X68564260Y-54430849D01*
X68564265Y-54430846D01*
X68569247Y-54428523D01*
X68674109Y-54355098D01*
X68752287Y-54300357D01*
X68752290Y-54300355D01*
X68756798Y-54297198D01*
X68918696Y-54135300D01*
X69050021Y-53947749D01*
X69052344Y-53942767D01*
X69052347Y-53942762D01*
X69068303Y-53908543D01*
X69115220Y-53855258D01*
X69183497Y-53835797D01*
X69251457Y-53856339D01*
X69296693Y-53908543D01*
X69312649Y-53942762D01*
X69312652Y-53942767D01*
X69314975Y-53947749D01*
X69446300Y-54135300D01*
X69608198Y-54297198D01*
X69612706Y-54300355D01*
X69612709Y-54300357D01*
X69690887Y-54355098D01*
X69795749Y-54428523D01*
X69800731Y-54430846D01*
X69800736Y-54430849D01*
X69998273Y-54522961D01*
X70003255Y-54525284D01*
X70008563Y-54526706D01*
X70008565Y-54526707D01*
X70219096Y-54583119D01*
X70219098Y-54583119D01*
X70224411Y-54584543D01*
X70452498Y-54604498D01*
X70680585Y-54584543D01*
X70685898Y-54583119D01*
X70685900Y-54583119D01*
X70896431Y-54526707D01*
X70896433Y-54526706D01*
X70901741Y-54525284D01*
X70941749Y-54506628D01*
X71011941Y-54495967D01*
X71076753Y-54524947D01*
X71115610Y-54584367D01*
X71120999Y-54620823D01*
X71120999Y-59581177D01*
X71100997Y-59649298D01*
X71047341Y-59695791D01*
X70977067Y-59705895D01*
X70941749Y-59695372D01*
X70906723Y-59679039D01*
X70906722Y-59679039D01*
X70901741Y-59676716D01*
X70896433Y-59675294D01*
X70896431Y-59675293D01*
X70685900Y-59618881D01*
X70685898Y-59618881D01*
X70680585Y-59617457D01*
X70452498Y-59597502D01*
X70224411Y-59617457D01*
X70219098Y-59618881D01*
X70219096Y-59618881D01*
X70008565Y-59675293D01*
X70008563Y-59675294D01*
X70003255Y-59676716D01*
X69998274Y-59679039D01*
X69998273Y-59679039D01*
X69800736Y-59771151D01*
X69800731Y-59771154D01*
X69795749Y-59773477D01*
X69717624Y-59828181D01*
X69612709Y-59901643D01*
X69612706Y-59901645D01*
X69608198Y-59904802D01*
X69446300Y-60066700D01*
X69443143Y-60071208D01*
X69443141Y-60071211D01*
X69407058Y-60122743D01*
X69314975Y-60254251D01*
X69312652Y-60259233D01*
X69312649Y-60259238D01*
X69296693Y-60293457D01*
X69249776Y-60346742D01*
X69181499Y-60366203D01*
X69113539Y-60345661D01*
X69068303Y-60293457D01*
X69052347Y-60259238D01*
X69052344Y-60259233D01*
X69050021Y-60254251D01*
X68957938Y-60122743D01*
X68921855Y-60071211D01*
X68921853Y-60071208D01*
X68918696Y-60066700D01*
X68756798Y-59904802D01*
X68752290Y-59901645D01*
X68752287Y-59901643D01*
X68647372Y-59828181D01*
X68569247Y-59773477D01*
X68564265Y-59771154D01*
X68564260Y-59771151D01*
X68366723Y-59679039D01*
X68366722Y-59679039D01*
X68361741Y-59676716D01*
X68356433Y-59675294D01*
X68356431Y-59675293D01*
X68145900Y-59618881D01*
X68145898Y-59618881D01*
X68140585Y-59617457D01*
X67912498Y-59597502D01*
X67684411Y-59617457D01*
X67679098Y-59618881D01*
X67679096Y-59618881D01*
X67468565Y-59675293D01*
X67468563Y-59675294D01*
X67463255Y-59676716D01*
X67458274Y-59679039D01*
X67458273Y-59679039D01*
X67260736Y-59771151D01*
X67260731Y-59771154D01*
X67255749Y-59773477D01*
X67177624Y-59828181D01*
X67072709Y-59901643D01*
X67072706Y-59901645D01*
X67068198Y-59904802D01*
X66906300Y-60066700D01*
X66903143Y-60071208D01*
X66903141Y-60071211D01*
X66867058Y-60122743D01*
X66774975Y-60254251D01*
X66772652Y-60259233D01*
X66772649Y-60259238D01*
X66756693Y-60293457D01*
X66709776Y-60346742D01*
X66641499Y-60366203D01*
X66573539Y-60345661D01*
X66528303Y-60293457D01*
X66512347Y-60259238D01*
X66512344Y-60259233D01*
X66510021Y-60254251D01*
X66417938Y-60122743D01*
X66381855Y-60071211D01*
X66381853Y-60071208D01*
X66378696Y-60066700D01*
X66216798Y-59904802D01*
X66212290Y-59901645D01*
X66212287Y-59901643D01*
X66107372Y-59828181D01*
X66029247Y-59773477D01*
X66024265Y-59771154D01*
X66024260Y-59771151D01*
X65826723Y-59679039D01*
X65826722Y-59679039D01*
X65821741Y-59676716D01*
X65816433Y-59675294D01*
X65816431Y-59675293D01*
X65605900Y-59618881D01*
X65605898Y-59618881D01*
X65600585Y-59617457D01*
X65372498Y-59597502D01*
X65144411Y-59617457D01*
X65139098Y-59618881D01*
X65139096Y-59618881D01*
X64928565Y-59675293D01*
X64928563Y-59675294D01*
X64923255Y-59676716D01*
X64918274Y-59679039D01*
X64918273Y-59679039D01*
X64720736Y-59771151D01*
X64720731Y-59771154D01*
X64715749Y-59773477D01*
X64637624Y-59828181D01*
X64532709Y-59901643D01*
X64532706Y-59901645D01*
X64528198Y-59904802D01*
X64366300Y-60066700D01*
X64363143Y-60071208D01*
X64363141Y-60071211D01*
X64327058Y-60122743D01*
X64234975Y-60254251D01*
X64232652Y-60259233D01*
X64232649Y-60259238D01*
X64165872Y-60402444D01*
X64138214Y-60461757D01*
X64136792Y-60467065D01*
X64136791Y-60467067D01*
X64103681Y-60590635D01*
X64078955Y-60682913D01*
X64059000Y-60911000D01*
X64078955Y-61139087D01*
X64080379Y-61144400D01*
X64080379Y-61144402D01*
X64135134Y-61348747D01*
X64138214Y-61360243D01*
X64140537Y-61365224D01*
X64140537Y-61365225D01*
X64232649Y-61562762D01*
X64232652Y-61562767D01*
X64234975Y-61567749D01*
X64366300Y-61755300D01*
X64528198Y-61917198D01*
X64532706Y-61920355D01*
X64532709Y-61920357D01*
X64610887Y-61975098D01*
X64715749Y-62048523D01*
X64720731Y-62050846D01*
X64720736Y-62050849D01*
X64877864Y-62124118D01*
X64923255Y-62145284D01*
X64928563Y-62146706D01*
X64928565Y-62146707D01*
X65139096Y-62203119D01*
X65139098Y-62203119D01*
X65144411Y-62204543D01*
X65372498Y-62224498D01*
X65600585Y-62204543D01*
X65605898Y-62203119D01*
X65605900Y-62203119D01*
X65816431Y-62146707D01*
X65816433Y-62146706D01*
X65821741Y-62145284D01*
X65867132Y-62124118D01*
X66024260Y-62050849D01*
X66024265Y-62050846D01*
X66029247Y-62048523D01*
X66134109Y-61975098D01*
X66212287Y-61920357D01*
X66212290Y-61920355D01*
X66216798Y-61917198D01*
X66378696Y-61755300D01*
X66510021Y-61567749D01*
X66512344Y-61562767D01*
X66512347Y-61562762D01*
X66528303Y-61528543D01*
X66575220Y-61475258D01*
X66643497Y-61455797D01*
X66711457Y-61476339D01*
X66756693Y-61528543D01*
X66772649Y-61562762D01*
X66772652Y-61562767D01*
X66774975Y-61567749D01*
X66906300Y-61755300D01*
X67068198Y-61917198D01*
X67072706Y-61920355D01*
X67072709Y-61920357D01*
X67150887Y-61975098D01*
X67255749Y-62048523D01*
X67260731Y-62050846D01*
X67260736Y-62050849D01*
X67417864Y-62124118D01*
X67463255Y-62145284D01*
X67468563Y-62146706D01*
X67468565Y-62146707D01*
X67679096Y-62203119D01*
X67679098Y-62203119D01*
X67684411Y-62204543D01*
X67912498Y-62224498D01*
X68140585Y-62204543D01*
X68145898Y-62203119D01*
X68145900Y-62203119D01*
X68356431Y-62146707D01*
X68356433Y-62146706D01*
X68361741Y-62145284D01*
X68407132Y-62124118D01*
X68564260Y-62050849D01*
X68564265Y-62050846D01*
X68569247Y-62048523D01*
X68674109Y-61975098D01*
X68752287Y-61920357D01*
X68752290Y-61920355D01*
X68756798Y-61917198D01*
X68918696Y-61755300D01*
X69050021Y-61567749D01*
X69052344Y-61562767D01*
X69052347Y-61562762D01*
X69068303Y-61528543D01*
X69115220Y-61475258D01*
X69183497Y-61455797D01*
X69251457Y-61476339D01*
X69296693Y-61528543D01*
X69312649Y-61562762D01*
X69312652Y-61562767D01*
X69314975Y-61567749D01*
X69446300Y-61755300D01*
X69608198Y-61917198D01*
X69612706Y-61920355D01*
X69612709Y-61920357D01*
X69690887Y-61975098D01*
X69795749Y-62048523D01*
X69800734Y-62050847D01*
X69800740Y-62050851D01*
X69864594Y-62080626D01*
X69917880Y-62127543D01*
X69937341Y-62195820D01*
X69916800Y-62263780D01*
X69885406Y-62296757D01*
X69843553Y-62327165D01*
X69839132Y-62332075D01*
X69839131Y-62332076D01*
X69763332Y-62416260D01*
X69715766Y-62469087D01*
X69620279Y-62634475D01*
X69561264Y-62816103D01*
X69560574Y-62822664D01*
X69560574Y-62822666D01*
X69554541Y-62880072D01*
X69541302Y-63006031D01*
X69561264Y-63195959D01*
X69620279Y-63377587D01*
X69715766Y-63542975D01*
X69720184Y-63547882D01*
X69720185Y-63547883D01*
X69795985Y-63632067D01*
X69843553Y-63684897D01*
X69924839Y-63743955D01*
X69977969Y-63782556D01*
X69998054Y-63797149D01*
X70004082Y-63799833D01*
X70004084Y-63799834D01*
X70166487Y-63872140D01*
X70172518Y-63874825D01*
X70254590Y-63892270D01*
X70352862Y-63913159D01*
X70352867Y-63913159D01*
X70359319Y-63914531D01*
X70550293Y-63914531D01*
X70556745Y-63913159D01*
X70556750Y-63913159D01*
X70655022Y-63892270D01*
X70737094Y-63874825D01*
X70743125Y-63872140D01*
X70905528Y-63799834D01*
X70905530Y-63799833D01*
X70911558Y-63797149D01*
X70920938Y-63790334D01*
X70987806Y-63766476D01*
X71056957Y-63782556D01*
X71106437Y-63833470D01*
X71120999Y-63892270D01*
X71120999Y-64111480D01*
X71120472Y-64122663D01*
X71118797Y-64130156D01*
X71119046Y-64138082D01*
X71119046Y-64138083D01*
X71120937Y-64198233D01*
X71120999Y-64202192D01*
X71120999Y-64230103D01*
X71121496Y-64234037D01*
X71121496Y-64234038D01*
X71121504Y-64234103D01*
X71122437Y-64245940D01*
X71123826Y-64290136D01*
X71129477Y-64309586D01*
X71133486Y-64328947D01*
X71136025Y-64349044D01*
X71138944Y-64356415D01*
X71138944Y-64356417D01*
X71152303Y-64390159D01*
X71156148Y-64401389D01*
X71166270Y-64436230D01*
X71168481Y-64443840D01*
X71172514Y-64450659D01*
X71172516Y-64450664D01*
X71178792Y-64461275D01*
X71187487Y-64479023D01*
X71194947Y-64497864D01*
X71199609Y-64504280D01*
X71199609Y-64504281D01*
X71220935Y-64533634D01*
X71227451Y-64543554D01*
X71249957Y-64581609D01*
X71264278Y-64595930D01*
X71277118Y-64610963D01*
X71289027Y-64627354D01*
X71295133Y-64632405D01*
X71323104Y-64655545D01*
X71331883Y-64663535D01*
X72989130Y-66320782D01*
X73023156Y-66383094D01*
X73025344Y-66396703D01*
X73042710Y-66561928D01*
X73101725Y-66743556D01*
X73197212Y-66908944D01*
X73201630Y-66913851D01*
X73201631Y-66913852D01*
X73289092Y-67010987D01*
X73324999Y-67050866D01*
X73479500Y-67163118D01*
X73485528Y-67165802D01*
X73485530Y-67165803D01*
X73619305Y-67225363D01*
X73653964Y-67240794D01*
X73747365Y-67260647D01*
X73834308Y-67279128D01*
X73834313Y-67279128D01*
X73840765Y-67280500D01*
X74031739Y-67280500D01*
X74038191Y-67279128D01*
X74038196Y-67279128D01*
X74125139Y-67260647D01*
X74218540Y-67240794D01*
X74253199Y-67225363D01*
X74386974Y-67165803D01*
X74386976Y-67165802D01*
X74393004Y-67163118D01*
X74547505Y-67050866D01*
X74583412Y-67010987D01*
X74670873Y-66913852D01*
X74670874Y-66913851D01*
X74675292Y-66908944D01*
X74770779Y-66743556D01*
X74829794Y-66561928D01*
X74849756Y-66372000D01*
X74837340Y-66253867D01*
X74830484Y-66188635D01*
X74830484Y-66188633D01*
X74829794Y-66182072D01*
X74770779Y-66000444D01*
X74739647Y-65946521D01*
X74678593Y-65840774D01*
X74675292Y-65835056D01*
X74547505Y-65693134D01*
X74393004Y-65580882D01*
X74386976Y-65578198D01*
X74386974Y-65578197D01*
X74224571Y-65505891D01*
X74224570Y-65505891D01*
X74218540Y-65503206D01*
X74125139Y-65483353D01*
X74038196Y-65464872D01*
X74038191Y-65464872D01*
X74031739Y-65463500D01*
X73975846Y-65463500D01*
X73907725Y-65443498D01*
X73886751Y-65426595D01*
X72424904Y-63964747D01*
X72390878Y-63902435D01*
X72387999Y-63875652D01*
X72387999Y-63070000D01*
X81508995Y-63070000D01*
X81509685Y-63076565D01*
X81522894Y-63202237D01*
X81528957Y-63259928D01*
X81587972Y-63441556D01*
X81591275Y-63447278D01*
X81591276Y-63447279D01*
X81599643Y-63461771D01*
X81683459Y-63606944D01*
X81687877Y-63611851D01*
X81687878Y-63611852D01*
X81730831Y-63659556D01*
X81811246Y-63748866D01*
X81965747Y-63861118D01*
X81971775Y-63863802D01*
X81971777Y-63863803D01*
X82117918Y-63928869D01*
X82172014Y-63974849D01*
X82192663Y-64042777D01*
X82173311Y-64111085D01*
X82117917Y-64159083D01*
X82067316Y-64181611D01*
X82067309Y-64181615D01*
X82061283Y-64184298D01*
X81906782Y-64296550D01*
X81902361Y-64301460D01*
X81902360Y-64301461D01*
X81812385Y-64401389D01*
X81778995Y-64438472D01*
X81683508Y-64603860D01*
X81624493Y-64785488D01*
X81604531Y-64975416D01*
X81624493Y-65165344D01*
X81683508Y-65346972D01*
X81778995Y-65512360D01*
X81783413Y-65517267D01*
X81783414Y-65517268D01*
X81871116Y-65614671D01*
X81906782Y-65654282D01*
X82061283Y-65766534D01*
X82067311Y-65769218D01*
X82067313Y-65769219D01*
X82229716Y-65841525D01*
X82235747Y-65844210D01*
X82329148Y-65864063D01*
X82416091Y-65882544D01*
X82416096Y-65882544D01*
X82422548Y-65883916D01*
X82613522Y-65883916D01*
X82619974Y-65882544D01*
X82619979Y-65882544D01*
X82706922Y-65864063D01*
X82800323Y-65844210D01*
X82806354Y-65841525D01*
X82968757Y-65769219D01*
X82968759Y-65769218D01*
X82974787Y-65766534D01*
X83129288Y-65654282D01*
X83164954Y-65614671D01*
X83252656Y-65517268D01*
X83252657Y-65517267D01*
X83257075Y-65512360D01*
X83352562Y-65346972D01*
X83411577Y-65165344D01*
X83431539Y-64975416D01*
X83411577Y-64785488D01*
X83352562Y-64603860D01*
X83257075Y-64438472D01*
X83223686Y-64401389D01*
X83133710Y-64301461D01*
X83133709Y-64301460D01*
X83129288Y-64296550D01*
X82974787Y-64184298D01*
X82968759Y-64181614D01*
X82968757Y-64181613D01*
X82822616Y-64116547D01*
X82768520Y-64070567D01*
X82747871Y-64002639D01*
X82767223Y-63934331D01*
X82822617Y-63886333D01*
X82873218Y-63863805D01*
X82873225Y-63863801D01*
X82879251Y-63861118D01*
X83033752Y-63748866D01*
X83114167Y-63659556D01*
X83157120Y-63611852D01*
X83157121Y-63611851D01*
X83161539Y-63606944D01*
X83245355Y-63461771D01*
X83253722Y-63447279D01*
X83253723Y-63447278D01*
X83257026Y-63441556D01*
X83316041Y-63259928D01*
X83322105Y-63202237D01*
X83335313Y-63076565D01*
X83336003Y-63070000D01*
X83328590Y-62999466D01*
X83316731Y-62886635D01*
X83316731Y-62886633D01*
X83316041Y-62880072D01*
X83257026Y-62698444D01*
X83161539Y-62533056D01*
X83048458Y-62407466D01*
X83038174Y-62396045D01*
X83038173Y-62396044D01*
X83033752Y-62391134D01*
X82912416Y-62302978D01*
X82884593Y-62282763D01*
X82884592Y-62282762D01*
X82879251Y-62278882D01*
X82873223Y-62276198D01*
X82873221Y-62276197D01*
X82710818Y-62203891D01*
X82710817Y-62203891D01*
X82704787Y-62201206D01*
X82605647Y-62180133D01*
X82524443Y-62162872D01*
X82524438Y-62162872D01*
X82517986Y-62161500D01*
X82327012Y-62161500D01*
X82320560Y-62162872D01*
X82320555Y-62162872D01*
X82239351Y-62180133D01*
X82140211Y-62201206D01*
X82134181Y-62203891D01*
X82134180Y-62203891D01*
X81971777Y-62276197D01*
X81971775Y-62276198D01*
X81965747Y-62278882D01*
X81960406Y-62282762D01*
X81960405Y-62282763D01*
X81932582Y-62302978D01*
X81811246Y-62391134D01*
X81806825Y-62396044D01*
X81806824Y-62396045D01*
X81796541Y-62407466D01*
X81683459Y-62533056D01*
X81587972Y-62698444D01*
X81528957Y-62880072D01*
X81528267Y-62886633D01*
X81528267Y-62886635D01*
X81516408Y-62999466D01*
X81508995Y-63070000D01*
X72387999Y-63070000D01*
X72387999Y-62267373D01*
X72408001Y-62199252D01*
X72461657Y-62152759D01*
X72531931Y-62142655D01*
X72546610Y-62145666D01*
X72721001Y-62192394D01*
X72735097Y-62192058D01*
X72738498Y-62184116D01*
X72738498Y-62178967D01*
X73246498Y-62178967D01*
X73250471Y-62192498D01*
X73259020Y-62193727D01*
X73436259Y-62146236D01*
X73446551Y-62142490D01*
X73644009Y-62050414D01*
X73653505Y-62044931D01*
X73831965Y-61919972D01*
X73840373Y-61912916D01*
X73994414Y-61758875D01*
X74001470Y-61750467D01*
X74126429Y-61572007D01*
X74131912Y-61562511D01*
X74148027Y-61527951D01*
X74194944Y-61474666D01*
X74263221Y-61455205D01*
X74331181Y-61475747D01*
X74376417Y-61527951D01*
X74392649Y-61562762D01*
X74392652Y-61562767D01*
X74394975Y-61567749D01*
X74526300Y-61755300D01*
X74688198Y-61917198D01*
X74692706Y-61920355D01*
X74692709Y-61920357D01*
X74770887Y-61975098D01*
X74875749Y-62048523D01*
X74880731Y-62050846D01*
X74880736Y-62050849D01*
X75037864Y-62124118D01*
X75083255Y-62145284D01*
X75088563Y-62146706D01*
X75088565Y-62146707D01*
X75299096Y-62203119D01*
X75299098Y-62203119D01*
X75304411Y-62204543D01*
X75532498Y-62224498D01*
X75760585Y-62204543D01*
X75765898Y-62203119D01*
X75765900Y-62203119D01*
X75976431Y-62146707D01*
X75976433Y-62146706D01*
X75981741Y-62145284D01*
X76027132Y-62124118D01*
X76184260Y-62050849D01*
X76184265Y-62050846D01*
X76189247Y-62048523D01*
X76294109Y-61975098D01*
X76372287Y-61920357D01*
X76372290Y-61920355D01*
X76376798Y-61917198D01*
X76538696Y-61755300D01*
X76670021Y-61567749D01*
X76672344Y-61562767D01*
X76672347Y-61562762D01*
X76688303Y-61528543D01*
X76735220Y-61475258D01*
X76803497Y-61455797D01*
X76871457Y-61476339D01*
X76916693Y-61528543D01*
X76932649Y-61562762D01*
X76932652Y-61562767D01*
X76934975Y-61567749D01*
X77066300Y-61755300D01*
X77228198Y-61917198D01*
X77232706Y-61920355D01*
X77232709Y-61920357D01*
X77310887Y-61975098D01*
X77415749Y-62048523D01*
X77420731Y-62050846D01*
X77420736Y-62050849D01*
X77577864Y-62124118D01*
X77623255Y-62145284D01*
X77628563Y-62146706D01*
X77628565Y-62146707D01*
X77839096Y-62203119D01*
X77839098Y-62203119D01*
X77844411Y-62204543D01*
X78072498Y-62224498D01*
X78300585Y-62204543D01*
X78305898Y-62203119D01*
X78305900Y-62203119D01*
X78516431Y-62146707D01*
X78516433Y-62146706D01*
X78521741Y-62145284D01*
X78567132Y-62124118D01*
X78724260Y-62050849D01*
X78724265Y-62050846D01*
X78729247Y-62048523D01*
X78834109Y-61975098D01*
X78912287Y-61920357D01*
X78912290Y-61920355D01*
X78916798Y-61917198D01*
X79078696Y-61755300D01*
X79210021Y-61567749D01*
X79212344Y-61562767D01*
X79212347Y-61562762D01*
X79228303Y-61528543D01*
X79275220Y-61475258D01*
X79343497Y-61455797D01*
X79411457Y-61476339D01*
X79456693Y-61528543D01*
X79472649Y-61562762D01*
X79472652Y-61562767D01*
X79474975Y-61567749D01*
X79606300Y-61755300D01*
X79768198Y-61917198D01*
X79772706Y-61920355D01*
X79772709Y-61920357D01*
X79850887Y-61975098D01*
X79955749Y-62048523D01*
X79960731Y-62050846D01*
X79960736Y-62050849D01*
X80117864Y-62124118D01*
X80163255Y-62145284D01*
X80168563Y-62146706D01*
X80168565Y-62146707D01*
X80379096Y-62203119D01*
X80379098Y-62203119D01*
X80384411Y-62204543D01*
X80612498Y-62224498D01*
X80840585Y-62204543D01*
X80845898Y-62203119D01*
X80845900Y-62203119D01*
X81056431Y-62146707D01*
X81056433Y-62146706D01*
X81061741Y-62145284D01*
X81107132Y-62124118D01*
X81264260Y-62050849D01*
X81264265Y-62050846D01*
X81269247Y-62048523D01*
X81374109Y-61975098D01*
X81452287Y-61920357D01*
X81452290Y-61920355D01*
X81456798Y-61917198D01*
X81618696Y-61755300D01*
X81750021Y-61567749D01*
X81752344Y-61562767D01*
X81752347Y-61562762D01*
X81844459Y-61365225D01*
X81844459Y-61365224D01*
X81846782Y-61360243D01*
X81849863Y-61348747D01*
X81904617Y-61144402D01*
X81904617Y-61144400D01*
X81906041Y-61139087D01*
X81925996Y-60911000D01*
X81906041Y-60682913D01*
X81881315Y-60590635D01*
X81848205Y-60467067D01*
X81848204Y-60467065D01*
X81846782Y-60461757D01*
X81819124Y-60402444D01*
X81752347Y-60259238D01*
X81752344Y-60259233D01*
X81750021Y-60254251D01*
X81657938Y-60122743D01*
X81621855Y-60071211D01*
X81621853Y-60071208D01*
X81618696Y-60066700D01*
X81456798Y-59904802D01*
X81452290Y-59901645D01*
X81452287Y-59901643D01*
X81347372Y-59828181D01*
X81269247Y-59773477D01*
X81264265Y-59771154D01*
X81264260Y-59771151D01*
X81066723Y-59679039D01*
X81066722Y-59679039D01*
X81061741Y-59676716D01*
X81056433Y-59675294D01*
X81056431Y-59675293D01*
X80845900Y-59618881D01*
X80845898Y-59618881D01*
X80840585Y-59617457D01*
X80612498Y-59597502D01*
X80384411Y-59617457D01*
X80379098Y-59618881D01*
X80379096Y-59618881D01*
X80168565Y-59675293D01*
X80168563Y-59675294D01*
X80163255Y-59676716D01*
X80158274Y-59679039D01*
X80158273Y-59679039D01*
X79960736Y-59771151D01*
X79960731Y-59771154D01*
X79955749Y-59773477D01*
X79877624Y-59828181D01*
X79772709Y-59901643D01*
X79772706Y-59901645D01*
X79768198Y-59904802D01*
X79606300Y-60066700D01*
X79603143Y-60071208D01*
X79603141Y-60071211D01*
X79567058Y-60122743D01*
X79474975Y-60254251D01*
X79472652Y-60259233D01*
X79472649Y-60259238D01*
X79456693Y-60293457D01*
X79409776Y-60346742D01*
X79341499Y-60366203D01*
X79273539Y-60345661D01*
X79228303Y-60293457D01*
X79212347Y-60259238D01*
X79212344Y-60259233D01*
X79210021Y-60254251D01*
X79117938Y-60122743D01*
X79081855Y-60071211D01*
X79081853Y-60071208D01*
X79078696Y-60066700D01*
X78916798Y-59904802D01*
X78912290Y-59901645D01*
X78912287Y-59901643D01*
X78807372Y-59828181D01*
X78729247Y-59773477D01*
X78724265Y-59771154D01*
X78724260Y-59771151D01*
X78526723Y-59679039D01*
X78526722Y-59679039D01*
X78521741Y-59676716D01*
X78516433Y-59675294D01*
X78516431Y-59675293D01*
X78305900Y-59618881D01*
X78305898Y-59618881D01*
X78300585Y-59617457D01*
X78072498Y-59597502D01*
X77844411Y-59617457D01*
X77839098Y-59618881D01*
X77839096Y-59618881D01*
X77628565Y-59675293D01*
X77628563Y-59675294D01*
X77623255Y-59676716D01*
X77618274Y-59679039D01*
X77618273Y-59679039D01*
X77420736Y-59771151D01*
X77420731Y-59771154D01*
X77415749Y-59773477D01*
X77337624Y-59828181D01*
X77232709Y-59901643D01*
X77232706Y-59901645D01*
X77228198Y-59904802D01*
X77066300Y-60066700D01*
X77063143Y-60071208D01*
X77063141Y-60071211D01*
X77027058Y-60122743D01*
X76934975Y-60254251D01*
X76932652Y-60259233D01*
X76932649Y-60259238D01*
X76916693Y-60293457D01*
X76869776Y-60346742D01*
X76801499Y-60366203D01*
X76733539Y-60345661D01*
X76688303Y-60293457D01*
X76672347Y-60259238D01*
X76672344Y-60259233D01*
X76670021Y-60254251D01*
X76577938Y-60122743D01*
X76541855Y-60071211D01*
X76541853Y-60071208D01*
X76538696Y-60066700D01*
X76376798Y-59904802D01*
X76372290Y-59901645D01*
X76372287Y-59901643D01*
X76267372Y-59828181D01*
X76189247Y-59773477D01*
X76184265Y-59771154D01*
X76184260Y-59771151D01*
X75986723Y-59679039D01*
X75986722Y-59679039D01*
X75981741Y-59676716D01*
X75976433Y-59675294D01*
X75976431Y-59675293D01*
X75765900Y-59618881D01*
X75765898Y-59618881D01*
X75760585Y-59617457D01*
X75532498Y-59597502D01*
X75304411Y-59617457D01*
X75299098Y-59618881D01*
X75299096Y-59618881D01*
X75088565Y-59675293D01*
X75088563Y-59675294D01*
X75083255Y-59676716D01*
X75078274Y-59679039D01*
X75078273Y-59679039D01*
X74880736Y-59771151D01*
X74880731Y-59771154D01*
X74875749Y-59773477D01*
X74797624Y-59828181D01*
X74692709Y-59901643D01*
X74692706Y-59901645D01*
X74688198Y-59904802D01*
X74526300Y-60066700D01*
X74523143Y-60071208D01*
X74523141Y-60071211D01*
X74487058Y-60122743D01*
X74394975Y-60254251D01*
X74392652Y-60259233D01*
X74392649Y-60259238D01*
X74376417Y-60294049D01*
X74329500Y-60347334D01*
X74261223Y-60366795D01*
X74193263Y-60346253D01*
X74148027Y-60294049D01*
X74131912Y-60259489D01*
X74126429Y-60249993D01*
X74001470Y-60071533D01*
X73994414Y-60063125D01*
X73840373Y-59909084D01*
X73831965Y-59902028D01*
X73653505Y-59777069D01*
X73644009Y-59771586D01*
X73446551Y-59679510D01*
X73436259Y-59675764D01*
X73263995Y-59629606D01*
X73249899Y-59629942D01*
X73246498Y-59637884D01*
X73246498Y-62178967D01*
X72738498Y-62178967D01*
X72738498Y-59643033D01*
X72734525Y-59629502D01*
X72725976Y-59628273D01*
X72546610Y-59676334D01*
X72475634Y-59674644D01*
X72416838Y-59634850D01*
X72388890Y-59569585D01*
X72387999Y-59554627D01*
X72387999Y-56952371D01*
X72408001Y-56884250D01*
X72461657Y-56837757D01*
X72531931Y-56827653D01*
X72596511Y-56857147D01*
X72603094Y-56863276D01*
X74218729Y-58478911D01*
X74231115Y-58493323D01*
X74239648Y-58504918D01*
X74239653Y-58504923D01*
X74243991Y-58510818D01*
X74249569Y-58515557D01*
X74249572Y-58515560D01*
X74284267Y-58545035D01*
X74291783Y-58551965D01*
X74297478Y-58557660D01*
X74300360Y-58559940D01*
X74319750Y-58575281D01*
X74323154Y-58578072D01*
X74373202Y-58620591D01*
X74378784Y-58625333D01*
X74385300Y-58628661D01*
X74390349Y-58632028D01*
X74395478Y-58635195D01*
X74401215Y-58639734D01*
X74467374Y-58670655D01*
X74471268Y-58672558D01*
X74536307Y-58705769D01*
X74543415Y-58707508D01*
X74549058Y-58709607D01*
X74554821Y-58711524D01*
X74561449Y-58714622D01*
X74568611Y-58716112D01*
X74568612Y-58716112D01*
X74632911Y-58729486D01*
X74637195Y-58730456D01*
X74708109Y-58747808D01*
X74713711Y-58748156D01*
X74713714Y-58748156D01*
X74719263Y-58748500D01*
X74719261Y-58748536D01*
X74723254Y-58748775D01*
X74727446Y-58749149D01*
X74734614Y-58750640D01*
X74812019Y-58748546D01*
X74815427Y-58748500D01*
X83326128Y-58748500D01*
X83394249Y-58768502D01*
X83415223Y-58785405D01*
X84421094Y-59791276D01*
X84455120Y-59853588D01*
X84457999Y-59880371D01*
X84457999Y-72400930D01*
X84456566Y-72419880D01*
X84453300Y-72441349D01*
X84453893Y-72448641D01*
X84453893Y-72448644D01*
X84457584Y-72494018D01*
X84457999Y-72504233D01*
X84457999Y-72512293D01*
X84458424Y-72515937D01*
X84461288Y-72540507D01*
X84461721Y-72544882D01*
X84467639Y-72617637D01*
X84469895Y-72624601D01*
X84471086Y-72630560D01*
X84472470Y-72636415D01*
X84473317Y-72643681D01*
X84498234Y-72712327D01*
X84499651Y-72716455D01*
X84522148Y-72785899D01*
X84525944Y-72792154D01*
X84528450Y-72797628D01*
X84531169Y-72803058D01*
X84533666Y-72809937D01*
X84537679Y-72816057D01*
X84537679Y-72816058D01*
X84573685Y-72870976D01*
X84576022Y-72874680D01*
X84613904Y-72937107D01*
X84617620Y-72941315D01*
X84617621Y-72941316D01*
X84621302Y-72945484D01*
X84621275Y-72945508D01*
X84623928Y-72948500D01*
X84626631Y-72951733D01*
X84630643Y-72957852D01*
X84635955Y-72962884D01*
X84686882Y-73011128D01*
X84689324Y-73013506D01*
X86707094Y-75031276D01*
X86741120Y-75093588D01*
X86743999Y-75120371D01*
X86743999Y-89176734D01*
X86723997Y-89244855D01*
X86676083Y-89288547D01*
X86502763Y-89378580D01*
X86499148Y-89381163D01*
X86499142Y-89381167D01*
X86286489Y-89533131D01*
X86286485Y-89533134D01*
X86282868Y-89535719D01*
X86279648Y-89538791D01*
X86120720Y-89690401D01*
X86087307Y-89722275D01*
X85919984Y-89934524D01*
X85917752Y-89938366D01*
X85917749Y-89938371D01*
X85786473Y-90164377D01*
X85786470Y-90164384D01*
X85784235Y-90168231D01*
X85782386Y-90172795D01*
X85782291Y-90172916D01*
X85780604Y-90176359D01*
X85779853Y-90175991D01*
X85738280Y-90228425D01*
X85665600Y-90251500D01*
X84775569Y-90251500D01*
X84756619Y-90250067D01*
X84742384Y-90247901D01*
X84742380Y-90247901D01*
X84735150Y-90246801D01*
X84727858Y-90247394D01*
X84727855Y-90247394D01*
X84682481Y-90251085D01*
X84672266Y-90251500D01*
X84664206Y-90251500D01*
X84660572Y-90251924D01*
X84660566Y-90251924D01*
X84647541Y-90253443D01*
X84635979Y-90254791D01*
X84631631Y-90255221D01*
X84558863Y-90261140D01*
X84551902Y-90263395D01*
X84545962Y-90264582D01*
X84540087Y-90265971D01*
X84532818Y-90266818D01*
X84464169Y-90291736D01*
X84460041Y-90293153D01*
X84397563Y-90313393D01*
X84397561Y-90313394D01*
X84390600Y-90315649D01*
X84384345Y-90319445D01*
X84378871Y-90321951D01*
X84373441Y-90324670D01*
X84366562Y-90327167D01*
X84360442Y-90331180D01*
X84360441Y-90331180D01*
X84305523Y-90367186D01*
X84301819Y-90369523D01*
X84239392Y-90407405D01*
X84231015Y-90414803D01*
X84230991Y-90414776D01*
X84227999Y-90417429D01*
X84224766Y-90420132D01*
X84218647Y-90424144D01*
X84213615Y-90429456D01*
X84165371Y-90480383D01*
X84162993Y-90482825D01*
X83282712Y-91363106D01*
X83220400Y-91397132D01*
X83193617Y-91400011D01*
X82462298Y-91400011D01*
X82394177Y-91380009D01*
X82347684Y-91326353D01*
X82337580Y-91256079D01*
X82340591Y-91241401D01*
X82344771Y-91225799D01*
X82344772Y-91225796D01*
X82346196Y-91220481D01*
X82364611Y-91010000D01*
X82346196Y-90799519D01*
X82329189Y-90736048D01*
X82292935Y-90600743D01*
X82292934Y-90600741D01*
X82291512Y-90595433D01*
X82226943Y-90456964D01*
X82204542Y-90408925D01*
X82204540Y-90408922D01*
X82202219Y-90403944D01*
X82081031Y-90230869D01*
X81931630Y-90081468D01*
X81758555Y-89960280D01*
X81753577Y-89957959D01*
X81753574Y-89957957D01*
X81572048Y-89873310D01*
X81572047Y-89873309D01*
X81567066Y-89870987D01*
X81561758Y-89869565D01*
X81561756Y-89869564D01*
X81532432Y-89861707D01*
X81471809Y-89824756D01*
X81440788Y-89760895D01*
X81449216Y-89690401D01*
X81494419Y-89635653D01*
X81532432Y-89618293D01*
X81561756Y-89610436D01*
X81561758Y-89610435D01*
X81567066Y-89609013D01*
X81633709Y-89577937D01*
X81753574Y-89522043D01*
X81753577Y-89522041D01*
X81758555Y-89519720D01*
X81931630Y-89398532D01*
X82081031Y-89249131D01*
X82202219Y-89076056D01*
X82291512Y-88884567D01*
X82346196Y-88680481D01*
X82364611Y-88470000D01*
X82346196Y-88259519D01*
X82291512Y-88055433D01*
X82253700Y-87974345D01*
X82204542Y-87868925D01*
X82204540Y-87868922D01*
X82202219Y-87863944D01*
X82081031Y-87690869D01*
X81931630Y-87541468D01*
X81758555Y-87420280D01*
X81753577Y-87417959D01*
X81753574Y-87417957D01*
X81572048Y-87333310D01*
X81572047Y-87333309D01*
X81567066Y-87330987D01*
X81561758Y-87329565D01*
X81561756Y-87329564D01*
X81532432Y-87321707D01*
X81471809Y-87284756D01*
X81440788Y-87220895D01*
X81449216Y-87150401D01*
X81494419Y-87095653D01*
X81532432Y-87078293D01*
X81561756Y-87070436D01*
X81561758Y-87070435D01*
X81567066Y-87069013D01*
X81572048Y-87066690D01*
X81753574Y-86982043D01*
X81753577Y-86982041D01*
X81758555Y-86979720D01*
X81931630Y-86858532D01*
X82081031Y-86709131D01*
X82202219Y-86536056D01*
X82291512Y-86344567D01*
X82346196Y-86140481D01*
X82364611Y-85930000D01*
X82346196Y-85719519D01*
X82291512Y-85515433D01*
X82202219Y-85323944D01*
X82081031Y-85150869D01*
X81931630Y-85001468D01*
X81758555Y-84880280D01*
X81753577Y-84877959D01*
X81753574Y-84877957D01*
X81572048Y-84793310D01*
X81572047Y-84793309D01*
X81567066Y-84790987D01*
X81561758Y-84789565D01*
X81561756Y-84789564D01*
X81532432Y-84781707D01*
X81471809Y-84744756D01*
X81440788Y-84680895D01*
X81449216Y-84610401D01*
X81494419Y-84555653D01*
X81532432Y-84538293D01*
X81561756Y-84530436D01*
X81561758Y-84530435D01*
X81567066Y-84529013D01*
X81572048Y-84526690D01*
X81753574Y-84442043D01*
X81753577Y-84442041D01*
X81758555Y-84439720D01*
X81931630Y-84318532D01*
X82081031Y-84169131D01*
X82202219Y-83996056D01*
X82291512Y-83804567D01*
X82346196Y-83600481D01*
X82364611Y-83390000D01*
X82346196Y-83179519D01*
X82291512Y-82975433D01*
X82202219Y-82783944D01*
X82081031Y-82610869D01*
X81931630Y-82461468D01*
X81758555Y-82340280D01*
X81753577Y-82337959D01*
X81753574Y-82337957D01*
X81572048Y-82253310D01*
X81572047Y-82253309D01*
X81567066Y-82250987D01*
X81561758Y-82249565D01*
X81561756Y-82249564D01*
X81532432Y-82241707D01*
X81471809Y-82204756D01*
X81440788Y-82140895D01*
X81449216Y-82070401D01*
X81494419Y-82015653D01*
X81532432Y-81998293D01*
X81561756Y-81990436D01*
X81561758Y-81990435D01*
X81567066Y-81989013D01*
X81572048Y-81986690D01*
X81753574Y-81902043D01*
X81753577Y-81902041D01*
X81758555Y-81899720D01*
X81931630Y-81778532D01*
X82081031Y-81629131D01*
X82202219Y-81456056D01*
X82291512Y-81264567D01*
X82346196Y-81060481D01*
X82364611Y-80850000D01*
X82346196Y-80639519D01*
X82291512Y-80435433D01*
X82202219Y-80243944D01*
X82081031Y-80070869D01*
X81931630Y-79921468D01*
X81758555Y-79800280D01*
X81753577Y-79797959D01*
X81753574Y-79797957D01*
X81572048Y-79713310D01*
X81572047Y-79713309D01*
X81567066Y-79710987D01*
X81561758Y-79709565D01*
X81561756Y-79709564D01*
X81532432Y-79701707D01*
X81471809Y-79664756D01*
X81440788Y-79600895D01*
X81449216Y-79530401D01*
X81494419Y-79475653D01*
X81532432Y-79458293D01*
X81561756Y-79450436D01*
X81561758Y-79450435D01*
X81567066Y-79449013D01*
X81572048Y-79446690D01*
X81753574Y-79362043D01*
X81753577Y-79362041D01*
X81758555Y-79359720D01*
X81931630Y-79238532D01*
X82081031Y-79089131D01*
X82202219Y-78916056D01*
X82291512Y-78724567D01*
X82346196Y-78520481D01*
X82364611Y-78310000D01*
X82346196Y-78099519D01*
X82291512Y-77895433D01*
X82202219Y-77703944D01*
X82081031Y-77530869D01*
X81931630Y-77381468D01*
X81758555Y-77260280D01*
X81753577Y-77257959D01*
X81753574Y-77257957D01*
X81572048Y-77173310D01*
X81572047Y-77173309D01*
X81567066Y-77170987D01*
X81561758Y-77169565D01*
X81561756Y-77169564D01*
X81532432Y-77161707D01*
X81471809Y-77124756D01*
X81440788Y-77060895D01*
X81449216Y-76990401D01*
X81494419Y-76935653D01*
X81532432Y-76918293D01*
X81561756Y-76910436D01*
X81561758Y-76910435D01*
X81567066Y-76909013D01*
X81572048Y-76906690D01*
X81753574Y-76822043D01*
X81753577Y-76822041D01*
X81758555Y-76819720D01*
X81931630Y-76698532D01*
X82081031Y-76549131D01*
X82202219Y-76376056D01*
X82291512Y-76184567D01*
X82346196Y-75980481D01*
X82364611Y-75770000D01*
X82346196Y-75559519D01*
X82291512Y-75355433D01*
X82202219Y-75163944D01*
X82081031Y-74990869D01*
X81931630Y-74841468D01*
X81758555Y-74720280D01*
X81753577Y-74717959D01*
X81753574Y-74717957D01*
X81572048Y-74633310D01*
X81572047Y-74633309D01*
X81567066Y-74630987D01*
X81561758Y-74629565D01*
X81561756Y-74629564D01*
X81532432Y-74621707D01*
X81471809Y-74584756D01*
X81440788Y-74520895D01*
X81449216Y-74450401D01*
X81494419Y-74395653D01*
X81532432Y-74378293D01*
X81561756Y-74370436D01*
X81561758Y-74370435D01*
X81567066Y-74369013D01*
X81572048Y-74366690D01*
X81753574Y-74282043D01*
X81753577Y-74282041D01*
X81758555Y-74279720D01*
X81931630Y-74158532D01*
X82081031Y-74009131D01*
X82202219Y-73836056D01*
X82291512Y-73644567D01*
X82346196Y-73440481D01*
X82364611Y-73230000D01*
X82346196Y-73019519D01*
X82307391Y-72874695D01*
X82292935Y-72820743D01*
X82292934Y-72820741D01*
X82291512Y-72815433D01*
X82288949Y-72809937D01*
X82204542Y-72628925D01*
X82204540Y-72628922D01*
X82202219Y-72623944D01*
X82081031Y-72450869D01*
X81931630Y-72301468D01*
X81758555Y-72180280D01*
X81753577Y-72177959D01*
X81753574Y-72177957D01*
X81572048Y-72093310D01*
X81572047Y-72093309D01*
X81567066Y-72090987D01*
X81561758Y-72089565D01*
X81561756Y-72089564D01*
X81532432Y-72081707D01*
X81471809Y-72044756D01*
X81440788Y-71980895D01*
X81449216Y-71910401D01*
X81494419Y-71855653D01*
X81532432Y-71838293D01*
X81561756Y-71830436D01*
X81561758Y-71830435D01*
X81567066Y-71829013D01*
X81572048Y-71826690D01*
X81753574Y-71742043D01*
X81753577Y-71742041D01*
X81758555Y-71739720D01*
X81931630Y-71618532D01*
X82081031Y-71469131D01*
X82202219Y-71296056D01*
X82291512Y-71104567D01*
X82346196Y-70900481D01*
X82364611Y-70690000D01*
X82346196Y-70479519D01*
X82291512Y-70275433D01*
X82202219Y-70083944D01*
X82081031Y-69910869D01*
X81931630Y-69761468D01*
X81758555Y-69640280D01*
X81753577Y-69637959D01*
X81753574Y-69637957D01*
X81667231Y-69597695D01*
X81613946Y-69550778D01*
X81594485Y-69482501D01*
X81615027Y-69414541D01*
X81669050Y-69368475D01*
X81720481Y-69357500D01*
X81899633Y-69357500D01*
X81961815Y-69350745D01*
X82098204Y-69299615D01*
X82214760Y-69212261D01*
X82302114Y-69095705D01*
X82353244Y-68959316D01*
X82359999Y-68897134D01*
X82359999Y-67402866D01*
X82353244Y-67340684D01*
X82302114Y-67204295D01*
X82214760Y-67087739D01*
X82098204Y-67000385D01*
X81961815Y-66949255D01*
X81899633Y-66942500D01*
X80405365Y-66942500D01*
X80343183Y-66949255D01*
X80206794Y-67000385D01*
X80090238Y-67087739D01*
X80002884Y-67204295D01*
X79951754Y-67340684D01*
X79944999Y-67402866D01*
X79944999Y-68897134D01*
X79951754Y-68959316D01*
X80002884Y-69095705D01*
X80090238Y-69212261D01*
X80206794Y-69299615D01*
X80343183Y-69350745D01*
X80405365Y-69357500D01*
X80584517Y-69357500D01*
X80652638Y-69377502D01*
X80699131Y-69431158D01*
X80709235Y-69501432D01*
X80679741Y-69566012D01*
X80637767Y-69597695D01*
X80551424Y-69637957D01*
X80551421Y-69637959D01*
X80546443Y-69640280D01*
X80373368Y-69761468D01*
X80223967Y-69910869D01*
X80102779Y-70083944D01*
X80013486Y-70275433D01*
X79958802Y-70479519D01*
X79940387Y-70690000D01*
X79958802Y-70900481D01*
X80013486Y-71104567D01*
X80102779Y-71296056D01*
X80223967Y-71469131D01*
X80373368Y-71618532D01*
X80546443Y-71739720D01*
X80551421Y-71742041D01*
X80551424Y-71742043D01*
X80732950Y-71826690D01*
X80737932Y-71829013D01*
X80743240Y-71830435D01*
X80743242Y-71830436D01*
X80772566Y-71838293D01*
X80833189Y-71875244D01*
X80864210Y-71939105D01*
X80855782Y-72009599D01*
X80810579Y-72064347D01*
X80772566Y-72081707D01*
X80743242Y-72089564D01*
X80743240Y-72089565D01*
X80737932Y-72090987D01*
X80732951Y-72093309D01*
X80732950Y-72093310D01*
X80551424Y-72177957D01*
X80551421Y-72177959D01*
X80546443Y-72180280D01*
X80373368Y-72301468D01*
X80223967Y-72450869D01*
X80102779Y-72623944D01*
X80100458Y-72628922D01*
X80100456Y-72628925D01*
X80016049Y-72809937D01*
X80013486Y-72815433D01*
X80012064Y-72820741D01*
X80012063Y-72820743D01*
X79997607Y-72874695D01*
X79958802Y-73019519D01*
X79940387Y-73230000D01*
X79958802Y-73440481D01*
X80013486Y-73644567D01*
X80102779Y-73836056D01*
X80223967Y-74009131D01*
X80373368Y-74158532D01*
X80546443Y-74279720D01*
X80551421Y-74282041D01*
X80551424Y-74282043D01*
X80732950Y-74366690D01*
X80737932Y-74369013D01*
X80743240Y-74370435D01*
X80743242Y-74370436D01*
X80772566Y-74378293D01*
X80833189Y-74415244D01*
X80864210Y-74479105D01*
X80855782Y-74549599D01*
X80810579Y-74604347D01*
X80772566Y-74621707D01*
X80743242Y-74629564D01*
X80743240Y-74629565D01*
X80737932Y-74630987D01*
X80732951Y-74633309D01*
X80732950Y-74633310D01*
X80551424Y-74717957D01*
X80551421Y-74717959D01*
X80546443Y-74720280D01*
X80373368Y-74841468D01*
X80223967Y-74990869D01*
X80102779Y-75163944D01*
X80013486Y-75355433D01*
X79958802Y-75559519D01*
X79940387Y-75770000D01*
X79958802Y-75980481D01*
X80013486Y-76184567D01*
X80102779Y-76376056D01*
X80223967Y-76549131D01*
X80373368Y-76698532D01*
X80546443Y-76819720D01*
X80551421Y-76822041D01*
X80551424Y-76822043D01*
X80732950Y-76906690D01*
X80737932Y-76909013D01*
X80743240Y-76910435D01*
X80743242Y-76910436D01*
X80772566Y-76918293D01*
X80833189Y-76955244D01*
X80864210Y-77019105D01*
X80855782Y-77089599D01*
X80810579Y-77144347D01*
X80772566Y-77161707D01*
X80743242Y-77169564D01*
X80743240Y-77169565D01*
X80737932Y-77170987D01*
X80732951Y-77173309D01*
X80732950Y-77173310D01*
X80551424Y-77257957D01*
X80551421Y-77257959D01*
X80546443Y-77260280D01*
X80373368Y-77381468D01*
X80223967Y-77530869D01*
X80102779Y-77703944D01*
X80013486Y-77895433D01*
X79958802Y-78099519D01*
X79940387Y-78310000D01*
X79958802Y-78520481D01*
X80013486Y-78724567D01*
X80102779Y-78916056D01*
X80223967Y-79089131D01*
X80373368Y-79238532D01*
X80546443Y-79359720D01*
X80551421Y-79362041D01*
X80551424Y-79362043D01*
X80732950Y-79446690D01*
X80737932Y-79449013D01*
X80743240Y-79450435D01*
X80743242Y-79450436D01*
X80772566Y-79458293D01*
X80833189Y-79495244D01*
X80864210Y-79559105D01*
X80855782Y-79629599D01*
X80810579Y-79684347D01*
X80772566Y-79701707D01*
X80743242Y-79709564D01*
X80743240Y-79709565D01*
X80737932Y-79710987D01*
X80732951Y-79713309D01*
X80732950Y-79713310D01*
X80551424Y-79797957D01*
X80551421Y-79797959D01*
X80546443Y-79800280D01*
X80373368Y-79921468D01*
X80223967Y-80070869D01*
X80102779Y-80243944D01*
X80013486Y-80435433D01*
X79958802Y-80639519D01*
X79940387Y-80850000D01*
X79958802Y-81060481D01*
X80013486Y-81264567D01*
X80102779Y-81456056D01*
X80223967Y-81629131D01*
X80373368Y-81778532D01*
X80546443Y-81899720D01*
X80551421Y-81902041D01*
X80551424Y-81902043D01*
X80732950Y-81986690D01*
X80737932Y-81989013D01*
X80743240Y-81990435D01*
X80743242Y-81990436D01*
X80772566Y-81998293D01*
X80833189Y-82035244D01*
X80864210Y-82099105D01*
X80855782Y-82169599D01*
X80810579Y-82224347D01*
X80772566Y-82241707D01*
X80743242Y-82249564D01*
X80743240Y-82249565D01*
X80737932Y-82250987D01*
X80732951Y-82253309D01*
X80732950Y-82253310D01*
X80551424Y-82337957D01*
X80551421Y-82337959D01*
X80546443Y-82340280D01*
X80373368Y-82461468D01*
X80223967Y-82610869D01*
X80102779Y-82783944D01*
X80013486Y-82975433D01*
X79958802Y-83179519D01*
X79940387Y-83390000D01*
X79958802Y-83600481D01*
X80013486Y-83804567D01*
X80102779Y-83996056D01*
X80223967Y-84169131D01*
X80373368Y-84318532D01*
X80546443Y-84439720D01*
X80551421Y-84442041D01*
X80551424Y-84442043D01*
X80732950Y-84526690D01*
X80737932Y-84529013D01*
X80743240Y-84530435D01*
X80743242Y-84530436D01*
X80772566Y-84538293D01*
X80833189Y-84575244D01*
X80864210Y-84639105D01*
X80855782Y-84709599D01*
X80810579Y-84764347D01*
X80772566Y-84781707D01*
X80743242Y-84789564D01*
X80743240Y-84789565D01*
X80737932Y-84790987D01*
X80732951Y-84793309D01*
X80732950Y-84793310D01*
X80551424Y-84877957D01*
X80551421Y-84877959D01*
X80546443Y-84880280D01*
X80373368Y-85001468D01*
X80223967Y-85150869D01*
X80102779Y-85323944D01*
X80013486Y-85515433D01*
X79958802Y-85719519D01*
X79940387Y-85930000D01*
X79958802Y-86140481D01*
X80013486Y-86344567D01*
X80102779Y-86536056D01*
X80223967Y-86709131D01*
X80373368Y-86858532D01*
X80546443Y-86979720D01*
X80551421Y-86982041D01*
X80551424Y-86982043D01*
X80732950Y-87066690D01*
X80737932Y-87069013D01*
X80743240Y-87070435D01*
X80743242Y-87070436D01*
X80772566Y-87078293D01*
X80833189Y-87115244D01*
X80864210Y-87179105D01*
X80855782Y-87249599D01*
X80810579Y-87304347D01*
X80772566Y-87321707D01*
X80743242Y-87329564D01*
X80743240Y-87329565D01*
X80737932Y-87330987D01*
X80732951Y-87333309D01*
X80732950Y-87333310D01*
X80551424Y-87417957D01*
X80551421Y-87417959D01*
X80546443Y-87420280D01*
X80373368Y-87541468D01*
X80223967Y-87690869D01*
X80102779Y-87863944D01*
X80100458Y-87868922D01*
X80100456Y-87868925D01*
X80051298Y-87974345D01*
X80013486Y-88055433D01*
X79958802Y-88259519D01*
X79940387Y-88470000D01*
X79958802Y-88680481D01*
X80013486Y-88884567D01*
X80102779Y-89076056D01*
X80223967Y-89249131D01*
X80373368Y-89398532D01*
X80546443Y-89519720D01*
X80551421Y-89522041D01*
X80551424Y-89522043D01*
X80671289Y-89577937D01*
X80737932Y-89609013D01*
X80743240Y-89610435D01*
X80743242Y-89610436D01*
X80772566Y-89618293D01*
X80833189Y-89655244D01*
X80864210Y-89719105D01*
X80855782Y-89789599D01*
X80810579Y-89844347D01*
X80772566Y-89861707D01*
X80743242Y-89869564D01*
X80743240Y-89869565D01*
X80737932Y-89870987D01*
X80732951Y-89873309D01*
X80732950Y-89873310D01*
X80551424Y-89957957D01*
X80551421Y-89957959D01*
X80546443Y-89960280D01*
X80373368Y-90081468D01*
X80223967Y-90230869D01*
X80102779Y-90403944D01*
X80100458Y-90408922D01*
X80100456Y-90408925D01*
X80078055Y-90456964D01*
X80013486Y-90595433D01*
X80012064Y-90600741D01*
X80012063Y-90600743D01*
X79975809Y-90736048D01*
X79958802Y-90799519D01*
X79940387Y-91010000D01*
X79958802Y-91220481D01*
X79960226Y-91225796D01*
X79960227Y-91225799D01*
X79964407Y-91241401D01*
X79962717Y-91312378D01*
X79922922Y-91371173D01*
X79857657Y-91399120D01*
X79842700Y-91400011D01*
X77841381Y-91400011D01*
X77773260Y-91380009D01*
X77752286Y-91363106D01*
X74370269Y-87981089D01*
X74357883Y-87966677D01*
X74349350Y-87955082D01*
X74349345Y-87955077D01*
X74345007Y-87949182D01*
X74339429Y-87944443D01*
X74339426Y-87944440D01*
X74304731Y-87914965D01*
X74297215Y-87908035D01*
X74291520Y-87902340D01*
X74285379Y-87897482D01*
X74269248Y-87884719D01*
X74265844Y-87881928D01*
X74215796Y-87839409D01*
X74215794Y-87839408D01*
X74210214Y-87834667D01*
X74203698Y-87831339D01*
X74198649Y-87827972D01*
X74193520Y-87824805D01*
X74187783Y-87820266D01*
X74121624Y-87789345D01*
X74117724Y-87787439D01*
X74052691Y-87754231D01*
X74045583Y-87752492D01*
X74039940Y-87750393D01*
X74034177Y-87748476D01*
X74027549Y-87745378D01*
X73956082Y-87730513D01*
X73951798Y-87729543D01*
X73880889Y-87712192D01*
X73875287Y-87711844D01*
X73875284Y-87711844D01*
X73869735Y-87711500D01*
X73869737Y-87711464D01*
X73865744Y-87711225D01*
X73861552Y-87710851D01*
X73854384Y-87709360D01*
X73788174Y-87711151D01*
X73776978Y-87711454D01*
X73773571Y-87711500D01*
X66913852Y-87711500D01*
X66845731Y-87691498D01*
X66824757Y-87674595D01*
X66691630Y-87541468D01*
X66518555Y-87420280D01*
X66513577Y-87417959D01*
X66513574Y-87417957D01*
X66332048Y-87333310D01*
X66332047Y-87333309D01*
X66327066Y-87330987D01*
X66321758Y-87329565D01*
X66321756Y-87329564D01*
X66292432Y-87321707D01*
X66231809Y-87284756D01*
X66200788Y-87220895D01*
X66209216Y-87150401D01*
X66254419Y-87095653D01*
X66292432Y-87078293D01*
X66321756Y-87070436D01*
X66321758Y-87070435D01*
X66327066Y-87069013D01*
X66332048Y-87066690D01*
X66513574Y-86982043D01*
X66513577Y-86982041D01*
X66518555Y-86979720D01*
X66691630Y-86858532D01*
X66841031Y-86709131D01*
X66962219Y-86536056D01*
X67051512Y-86344567D01*
X67106196Y-86140481D01*
X67124611Y-85930000D01*
X67106196Y-85719519D01*
X67051512Y-85515433D01*
X66962219Y-85323944D01*
X66841031Y-85150869D01*
X66691630Y-85001468D01*
X66518555Y-84880280D01*
X66513577Y-84877959D01*
X66513574Y-84877957D01*
X66332048Y-84793310D01*
X66332047Y-84793309D01*
X66327066Y-84790987D01*
X66321758Y-84789565D01*
X66321756Y-84789564D01*
X66292432Y-84781707D01*
X66231809Y-84744756D01*
X66200788Y-84680895D01*
X66209216Y-84610401D01*
X66254419Y-84555653D01*
X66292432Y-84538293D01*
X66321756Y-84530436D01*
X66321758Y-84530435D01*
X66327066Y-84529013D01*
X66332048Y-84526690D01*
X66513574Y-84442043D01*
X66513577Y-84442041D01*
X66518555Y-84439720D01*
X66691630Y-84318532D01*
X66841031Y-84169131D01*
X66962219Y-83996056D01*
X67051512Y-83804567D01*
X67106196Y-83600481D01*
X67124611Y-83390000D01*
X67106196Y-83179519D01*
X67051512Y-82975433D01*
X66962219Y-82783944D01*
X66841031Y-82610869D01*
X66691630Y-82461468D01*
X66518555Y-82340280D01*
X66513577Y-82337959D01*
X66513574Y-82337957D01*
X66332048Y-82253310D01*
X66332047Y-82253309D01*
X66327066Y-82250987D01*
X66321758Y-82249565D01*
X66321756Y-82249564D01*
X66292432Y-82241707D01*
X66231809Y-82204756D01*
X66200788Y-82140895D01*
X66209216Y-82070401D01*
X66254419Y-82015653D01*
X66292432Y-81998293D01*
X66321756Y-81990436D01*
X66321758Y-81990435D01*
X66327066Y-81989013D01*
X66332048Y-81986690D01*
X66513574Y-81902043D01*
X66513577Y-81902041D01*
X66518555Y-81899720D01*
X66691630Y-81778532D01*
X66841031Y-81629131D01*
X66962219Y-81456056D01*
X67051512Y-81264567D01*
X67106196Y-81060481D01*
X67124611Y-80850000D01*
X67106196Y-80639519D01*
X67051512Y-80435433D01*
X66962219Y-80243944D01*
X66841031Y-80070869D01*
X66691630Y-79921468D01*
X66518555Y-79800280D01*
X66513577Y-79797959D01*
X66513574Y-79797957D01*
X66332048Y-79713310D01*
X66332047Y-79713309D01*
X66327066Y-79710987D01*
X66321758Y-79709565D01*
X66321756Y-79709564D01*
X66292432Y-79701707D01*
X66231809Y-79664756D01*
X66200788Y-79600895D01*
X66209216Y-79530401D01*
X66254419Y-79475653D01*
X66292432Y-79458293D01*
X66321756Y-79450436D01*
X66321758Y-79450435D01*
X66327066Y-79449013D01*
X66332048Y-79446690D01*
X66513574Y-79362043D01*
X66513577Y-79362041D01*
X66518555Y-79359720D01*
X66691630Y-79238532D01*
X66841031Y-79089131D01*
X66962219Y-78916056D01*
X67051512Y-78724567D01*
X67106196Y-78520481D01*
X67124611Y-78310000D01*
X67106196Y-78099519D01*
X67051512Y-77895433D01*
X66962219Y-77703944D01*
X66841031Y-77530869D01*
X66691630Y-77381468D01*
X66518555Y-77260280D01*
X66513577Y-77257959D01*
X66513574Y-77257957D01*
X66332048Y-77173310D01*
X66332047Y-77173309D01*
X66327066Y-77170987D01*
X66321758Y-77169565D01*
X66321756Y-77169564D01*
X66292432Y-77161707D01*
X66231809Y-77124756D01*
X66200788Y-77060895D01*
X66209216Y-76990401D01*
X66254419Y-76935653D01*
X66292432Y-76918293D01*
X66321756Y-76910436D01*
X66321758Y-76910435D01*
X66327066Y-76909013D01*
X66332048Y-76906690D01*
X66513574Y-76822043D01*
X66513577Y-76822041D01*
X66518555Y-76819720D01*
X66691630Y-76698532D01*
X66841031Y-76549131D01*
X66962219Y-76376056D01*
X67051512Y-76184567D01*
X67106196Y-75980481D01*
X67124611Y-75770000D01*
X67106196Y-75559519D01*
X67051512Y-75355433D01*
X66962219Y-75163944D01*
X66841031Y-74990869D01*
X66691630Y-74841468D01*
X66518555Y-74720280D01*
X66513577Y-74717959D01*
X66513574Y-74717957D01*
X66332048Y-74633310D01*
X66332047Y-74633309D01*
X66327066Y-74630987D01*
X66321758Y-74629565D01*
X66321756Y-74629564D01*
X66292432Y-74621707D01*
X66231809Y-74584756D01*
X66200788Y-74520895D01*
X66209216Y-74450401D01*
X66254419Y-74395653D01*
X66292432Y-74378293D01*
X66321756Y-74370436D01*
X66321758Y-74370435D01*
X66327066Y-74369013D01*
X66332048Y-74366690D01*
X66513574Y-74282043D01*
X66513577Y-74282041D01*
X66518555Y-74279720D01*
X66691630Y-74158532D01*
X66841031Y-74009131D01*
X66962219Y-73836056D01*
X67051512Y-73644567D01*
X67106196Y-73440481D01*
X67124611Y-73230000D01*
X67106196Y-73019519D01*
X67067391Y-72874695D01*
X67052935Y-72820743D01*
X67052934Y-72820741D01*
X67051512Y-72815433D01*
X67048949Y-72809937D01*
X66964542Y-72628925D01*
X66964540Y-72628922D01*
X66962219Y-72623944D01*
X66841031Y-72450869D01*
X66691630Y-72301468D01*
X66518555Y-72180280D01*
X66513577Y-72177959D01*
X66513574Y-72177957D01*
X66332048Y-72093310D01*
X66332047Y-72093309D01*
X66327066Y-72090987D01*
X66321758Y-72089565D01*
X66321756Y-72089564D01*
X66292432Y-72081707D01*
X66231809Y-72044756D01*
X66200788Y-71980895D01*
X66209216Y-71910401D01*
X66254419Y-71855653D01*
X66292432Y-71838293D01*
X66321756Y-71830436D01*
X66321758Y-71830435D01*
X66327066Y-71829013D01*
X66332048Y-71826690D01*
X66513574Y-71742043D01*
X66513577Y-71742041D01*
X66518555Y-71739720D01*
X66691630Y-71618532D01*
X66841031Y-71469131D01*
X66962219Y-71296056D01*
X67051512Y-71104567D01*
X67106196Y-70900481D01*
X67124611Y-70690000D01*
X67106196Y-70479519D01*
X67051512Y-70275433D01*
X66962219Y-70083944D01*
X66841031Y-69910869D01*
X66691630Y-69761468D01*
X66518555Y-69640280D01*
X66513577Y-69637959D01*
X66513574Y-69637957D01*
X66332048Y-69553310D01*
X66332047Y-69553309D01*
X66327066Y-69550987D01*
X66321758Y-69549565D01*
X66321756Y-69549564D01*
X66292432Y-69541707D01*
X66231809Y-69504756D01*
X66200788Y-69440895D01*
X66209216Y-69370401D01*
X66254419Y-69315653D01*
X66292432Y-69298293D01*
X66321756Y-69290436D01*
X66321758Y-69290435D01*
X66327066Y-69289013D01*
X66332048Y-69286690D01*
X66513574Y-69202043D01*
X66513577Y-69202041D01*
X66518555Y-69199720D01*
X66691630Y-69078532D01*
X66841031Y-68929131D01*
X66962219Y-68756056D01*
X67051512Y-68564567D01*
X67106196Y-68360481D01*
X67124611Y-68150000D01*
X67106196Y-67939519D01*
X67051512Y-67735433D01*
X66962219Y-67543944D01*
X66841031Y-67370869D01*
X66691630Y-67221468D01*
X66518555Y-67100280D01*
X66513577Y-67097959D01*
X66513574Y-67097957D01*
X66332048Y-67013310D01*
X66332047Y-67013309D01*
X66327066Y-67010987D01*
X66321758Y-67009565D01*
X66321756Y-67009564D01*
X66128295Y-66957727D01*
X66128294Y-66957727D01*
X66122980Y-66956303D01*
X65912499Y-66937888D01*
X65702018Y-66956303D01*
X65696704Y-66957727D01*
X65696703Y-66957727D01*
X65503242Y-67009564D01*
X65503240Y-67009565D01*
X65497932Y-67010987D01*
X65492951Y-67013309D01*
X65492950Y-67013310D01*
X65311424Y-67097957D01*
X65311421Y-67097959D01*
X65306443Y-67100280D01*
X65133368Y-67221468D01*
X64983967Y-67370869D01*
X64862779Y-67543944D01*
X64773486Y-67735433D01*
X64718802Y-67939519D01*
X64700387Y-68150000D01*
X64718802Y-68360481D01*
X64773486Y-68564567D01*
X64862779Y-68756056D01*
X64983967Y-68929131D01*
X65133368Y-69078532D01*
X65306443Y-69199720D01*
X65311421Y-69202041D01*
X65311424Y-69202043D01*
X65492950Y-69286690D01*
X65497932Y-69289013D01*
X65503240Y-69290435D01*
X65503242Y-69290436D01*
X65532566Y-69298293D01*
X65593189Y-69335244D01*
X65624210Y-69399105D01*
X65615782Y-69469599D01*
X65570579Y-69524347D01*
X65532566Y-69541707D01*
X65503242Y-69549564D01*
X65503240Y-69549565D01*
X65497932Y-69550987D01*
X65492951Y-69553309D01*
X65492950Y-69553310D01*
X65311424Y-69637957D01*
X65311421Y-69637959D01*
X65306443Y-69640280D01*
X65133368Y-69761468D01*
X64983967Y-69910869D01*
X64862779Y-70083944D01*
X64773486Y-70275433D01*
X64718802Y-70479519D01*
X64700387Y-70690000D01*
X64718802Y-70900481D01*
X64773486Y-71104567D01*
X64862779Y-71296056D01*
X64983967Y-71469131D01*
X65133368Y-71618532D01*
X65306443Y-71739720D01*
X65311421Y-71742041D01*
X65311424Y-71742043D01*
X65492950Y-71826690D01*
X65497932Y-71829013D01*
X65503240Y-71830435D01*
X65503242Y-71830436D01*
X65532566Y-71838293D01*
X65593189Y-71875244D01*
X65624210Y-71939105D01*
X65615782Y-72009599D01*
X65570579Y-72064347D01*
X65532566Y-72081707D01*
X65503242Y-72089564D01*
X65503240Y-72089565D01*
X65497932Y-72090987D01*
X65492951Y-72093309D01*
X65492950Y-72093310D01*
X65311424Y-72177957D01*
X65311421Y-72177959D01*
X65306443Y-72180280D01*
X65133368Y-72301468D01*
X64983967Y-72450869D01*
X64862779Y-72623944D01*
X64860458Y-72628922D01*
X64860456Y-72628925D01*
X64776049Y-72809937D01*
X64773486Y-72815433D01*
X64772064Y-72820741D01*
X64772063Y-72820743D01*
X64757607Y-72874695D01*
X64718802Y-73019519D01*
X64700387Y-73230000D01*
X64718802Y-73440481D01*
X64773486Y-73644567D01*
X64862779Y-73836056D01*
X64983967Y-74009131D01*
X65133368Y-74158532D01*
X65306443Y-74279720D01*
X65311421Y-74282041D01*
X65311424Y-74282043D01*
X65492950Y-74366690D01*
X65497932Y-74369013D01*
X65503240Y-74370435D01*
X65503242Y-74370436D01*
X65532566Y-74378293D01*
X65593189Y-74415244D01*
X65624210Y-74479105D01*
X65615782Y-74549599D01*
X65570579Y-74604347D01*
X65532566Y-74621707D01*
X65503242Y-74629564D01*
X65503240Y-74629565D01*
X65497932Y-74630987D01*
X65492951Y-74633309D01*
X65492950Y-74633310D01*
X65311424Y-74717957D01*
X65311421Y-74717959D01*
X65306443Y-74720280D01*
X65133368Y-74841468D01*
X64983967Y-74990869D01*
X64862779Y-75163944D01*
X64773486Y-75355433D01*
X64718802Y-75559519D01*
X64700387Y-75770000D01*
X64718802Y-75980481D01*
X64773486Y-76184567D01*
X64862779Y-76376056D01*
X64983967Y-76549131D01*
X65133368Y-76698532D01*
X65306443Y-76819720D01*
X65311421Y-76822041D01*
X65311424Y-76822043D01*
X65492950Y-76906690D01*
X65497932Y-76909013D01*
X65503240Y-76910435D01*
X65503242Y-76910436D01*
X65532566Y-76918293D01*
X65593189Y-76955244D01*
X65624210Y-77019105D01*
X65615782Y-77089599D01*
X65570579Y-77144347D01*
X65532566Y-77161707D01*
X65503242Y-77169564D01*
X65503240Y-77169565D01*
X65497932Y-77170987D01*
X65492951Y-77173309D01*
X65492950Y-77173310D01*
X65311424Y-77257957D01*
X65311421Y-77257959D01*
X65306443Y-77260280D01*
X65133368Y-77381468D01*
X64983967Y-77530869D01*
X64862779Y-77703944D01*
X64773486Y-77895433D01*
X64718802Y-78099519D01*
X64700387Y-78310000D01*
X64718802Y-78520481D01*
X64773486Y-78724567D01*
X64862779Y-78916056D01*
X64983967Y-79089131D01*
X65133368Y-79238532D01*
X65306443Y-79359720D01*
X65311421Y-79362041D01*
X65311424Y-79362043D01*
X65492950Y-79446690D01*
X65497932Y-79449013D01*
X65503240Y-79450435D01*
X65503242Y-79450436D01*
X65532566Y-79458293D01*
X65593189Y-79495244D01*
X65624210Y-79559105D01*
X65615782Y-79629599D01*
X65570579Y-79684347D01*
X65532566Y-79701707D01*
X65503242Y-79709564D01*
X65503240Y-79709565D01*
X65497932Y-79710987D01*
X65492951Y-79713309D01*
X65492950Y-79713310D01*
X65311424Y-79797957D01*
X65311421Y-79797959D01*
X65306443Y-79800280D01*
X65133368Y-79921468D01*
X64983967Y-80070869D01*
X64862779Y-80243944D01*
X64773486Y-80435433D01*
X64718802Y-80639519D01*
X64700387Y-80850000D01*
X64718802Y-81060481D01*
X64773486Y-81264567D01*
X64862779Y-81456056D01*
X64983967Y-81629131D01*
X65133368Y-81778532D01*
X65306443Y-81899720D01*
X65311421Y-81902041D01*
X65311424Y-81902043D01*
X65492950Y-81986690D01*
X65497932Y-81989013D01*
X65503240Y-81990435D01*
X65503242Y-81990436D01*
X65532566Y-81998293D01*
X65593189Y-82035244D01*
X65624210Y-82099105D01*
X65615782Y-82169599D01*
X65570579Y-82224347D01*
X65532566Y-82241707D01*
X65503242Y-82249564D01*
X65503240Y-82249565D01*
X65497932Y-82250987D01*
X65492951Y-82253309D01*
X65492950Y-82253310D01*
X65311424Y-82337957D01*
X65311421Y-82337959D01*
X65306443Y-82340280D01*
X65133368Y-82461468D01*
X64983967Y-82610869D01*
X64862779Y-82783944D01*
X64773486Y-82975433D01*
X64718802Y-83179519D01*
X64700387Y-83390000D01*
X64718802Y-83600481D01*
X64773486Y-83804567D01*
X64862779Y-83996056D01*
X64983967Y-84169131D01*
X65133368Y-84318532D01*
X65306443Y-84439720D01*
X65311421Y-84442041D01*
X65311424Y-84442043D01*
X65492950Y-84526690D01*
X65497932Y-84529013D01*
X65503240Y-84530435D01*
X65503242Y-84530436D01*
X65532566Y-84538293D01*
X65593189Y-84575244D01*
X65624210Y-84639105D01*
X65615782Y-84709599D01*
X65570579Y-84764347D01*
X65532566Y-84781707D01*
X65503242Y-84789564D01*
X65503240Y-84789565D01*
X65497932Y-84790987D01*
X65492951Y-84793309D01*
X65492950Y-84793310D01*
X65311424Y-84877957D01*
X65311421Y-84877959D01*
X65306443Y-84880280D01*
X65133368Y-85001468D01*
X64983967Y-85150869D01*
X64862779Y-85323944D01*
X64773486Y-85515433D01*
X64718802Y-85719519D01*
X64700387Y-85930000D01*
X64718802Y-86140481D01*
X64773486Y-86344567D01*
X64862779Y-86536056D01*
X64983967Y-86709131D01*
X65133368Y-86858532D01*
X65306443Y-86979720D01*
X65311421Y-86982041D01*
X65311424Y-86982043D01*
X65492950Y-87066690D01*
X65497932Y-87069013D01*
X65503240Y-87070435D01*
X65503242Y-87070436D01*
X65532566Y-87078293D01*
X65593189Y-87115244D01*
X65624210Y-87179105D01*
X65615782Y-87249599D01*
X65570579Y-87304347D01*
X65532566Y-87321707D01*
X65503242Y-87329564D01*
X65503240Y-87329565D01*
X65497932Y-87330987D01*
X65492951Y-87333309D01*
X65492950Y-87333310D01*
X65311424Y-87417957D01*
X65311421Y-87417959D01*
X65306443Y-87420280D01*
X65133368Y-87541468D01*
X64983967Y-87690869D01*
X64862779Y-87863944D01*
X64860458Y-87868922D01*
X64860456Y-87868925D01*
X64811298Y-87974345D01*
X64773486Y-88055433D01*
X64718802Y-88259519D01*
X64700387Y-88470000D01*
X64718802Y-88680481D01*
X64773486Y-88884567D01*
X64862779Y-89076056D01*
X64983967Y-89249131D01*
X65133368Y-89398532D01*
X65306443Y-89519720D01*
X65311421Y-89522041D01*
X65311424Y-89522043D01*
X65431289Y-89577937D01*
X65497932Y-89609013D01*
X65503240Y-89610435D01*
X65503242Y-89610436D01*
X65532566Y-89618293D01*
X65593189Y-89655244D01*
X65624210Y-89719105D01*
X65615782Y-89789599D01*
X65570579Y-89844347D01*
X65532566Y-89861707D01*
X65503242Y-89869564D01*
X65503240Y-89869565D01*
X65497932Y-89870987D01*
X65492951Y-89873309D01*
X65492950Y-89873310D01*
X65311424Y-89957957D01*
X65311421Y-89957959D01*
X65306443Y-89960280D01*
X65133368Y-90081468D01*
X64983967Y-90230869D01*
X64862779Y-90403944D01*
X64860458Y-90408922D01*
X64860456Y-90408925D01*
X64838055Y-90456964D01*
X64773486Y-90595433D01*
X64772064Y-90600741D01*
X64772063Y-90600743D01*
X64735809Y-90736048D01*
X64718802Y-90799519D01*
X64700387Y-91010000D01*
X64718802Y-91220481D01*
X64720226Y-91225795D01*
X64720226Y-91225796D01*
X64766668Y-91399120D01*
X64773486Y-91424567D01*
X64775808Y-91429548D01*
X64775809Y-91429549D01*
X64836779Y-91560298D01*
X64862779Y-91616056D01*
X64983967Y-91789131D01*
X65133368Y-91938532D01*
X65306443Y-92059720D01*
X65311421Y-92062041D01*
X65311424Y-92062043D01*
X65459035Y-92130875D01*
X65497932Y-92149013D01*
X65503245Y-92150436D01*
X65503246Y-92150437D01*
X65533529Y-92158551D01*
X65594152Y-92195501D01*
X65625175Y-92259361D01*
X65616748Y-92329856D01*
X65571546Y-92384603D01*
X65533532Y-92401964D01*
X65503422Y-92410032D01*
X65493122Y-92413781D01*
X65311681Y-92498388D01*
X65302186Y-92503871D01*
X65271969Y-92525029D01*
X65263594Y-92535506D01*
X65270662Y-92548953D01*
X65899687Y-93177978D01*
X65913631Y-93185592D01*
X65915464Y-93185461D01*
X65922079Y-93181210D01*
X66555058Y-92548231D01*
X66561488Y-92536457D01*
X66552193Y-92524442D01*
X66522810Y-92503869D01*
X66513320Y-92498390D01*
X66331876Y-92413781D01*
X66321576Y-92410032D01*
X66291466Y-92401964D01*
X66230843Y-92365012D01*
X66199822Y-92301151D01*
X66208252Y-92230657D01*
X66253455Y-92175911D01*
X66291469Y-92158551D01*
X66321752Y-92150437D01*
X66321753Y-92150436D01*
X66327066Y-92149013D01*
X66365963Y-92130875D01*
X66513574Y-92062043D01*
X66513577Y-92062041D01*
X66518555Y-92059720D01*
X66691630Y-91938532D01*
X66841031Y-91789131D01*
X66962219Y-91616056D01*
X66988220Y-91560298D01*
X67049189Y-91429549D01*
X67049190Y-91429548D01*
X67051512Y-91424567D01*
X67058331Y-91399120D01*
X67104772Y-91225796D01*
X67104772Y-91225795D01*
X67106196Y-91220481D01*
X67124611Y-91010000D01*
X67106196Y-90799519D01*
X67089189Y-90736048D01*
X67052935Y-90600743D01*
X67052934Y-90600741D01*
X67051512Y-90595433D01*
X66986943Y-90456964D01*
X66964542Y-90408925D01*
X66964540Y-90408922D01*
X66962219Y-90403944D01*
X66841031Y-90230869D01*
X66691630Y-90081468D01*
X66518555Y-89960280D01*
X66513577Y-89957959D01*
X66513574Y-89957957D01*
X66332048Y-89873310D01*
X66332047Y-89873309D01*
X66327066Y-89870987D01*
X66321758Y-89869565D01*
X66321756Y-89869564D01*
X66292432Y-89861707D01*
X66231809Y-89824756D01*
X66200788Y-89760895D01*
X66209216Y-89690401D01*
X66254419Y-89635653D01*
X66292432Y-89618293D01*
X66321756Y-89610436D01*
X66321758Y-89610435D01*
X66327066Y-89609013D01*
X66393709Y-89577937D01*
X66513574Y-89522043D01*
X66513577Y-89522041D01*
X66518555Y-89519720D01*
X66691630Y-89398532D01*
X66824757Y-89265405D01*
X66887069Y-89231379D01*
X66913852Y-89228500D01*
X73420128Y-89228500D01*
X73488249Y-89248502D01*
X73509223Y-89265405D01*
X76891240Y-92647422D01*
X76903626Y-92661834D01*
X76912159Y-92673429D01*
X76912164Y-92673434D01*
X76916502Y-92679329D01*
X76922080Y-92684068D01*
X76922083Y-92684071D01*
X76956778Y-92713546D01*
X76964294Y-92720476D01*
X76969989Y-92726171D01*
X76972871Y-92728451D01*
X76992261Y-92743792D01*
X76995665Y-92746583D01*
X77045606Y-92789011D01*
X77051295Y-92793844D01*
X77057811Y-92797172D01*
X77062860Y-92800539D01*
X77067989Y-92803706D01*
X77073726Y-92808245D01*
X77139885Y-92839166D01*
X77143779Y-92841069D01*
X77208818Y-92874280D01*
X77215926Y-92876019D01*
X77221569Y-92878118D01*
X77227332Y-92880035D01*
X77233960Y-92883133D01*
X77241122Y-92884623D01*
X77241123Y-92884623D01*
X77305422Y-92897997D01*
X77309706Y-92898967D01*
X77380620Y-92916319D01*
X77386222Y-92916667D01*
X77386225Y-92916667D01*
X77391774Y-92917011D01*
X77391772Y-92917047D01*
X77395765Y-92917286D01*
X77399957Y-92917660D01*
X77407125Y-92919151D01*
X77484530Y-92917057D01*
X77487938Y-92917011D01*
X79917557Y-92917011D01*
X79985678Y-92937013D01*
X80032171Y-92990669D01*
X80042275Y-93060943D01*
X80031752Y-93096260D01*
X80015811Y-93130446D01*
X80013486Y-93135433D01*
X79958802Y-93339519D01*
X79940387Y-93550000D01*
X79958802Y-93760481D01*
X80013486Y-93964567D01*
X80102779Y-94156056D01*
X80223967Y-94329131D01*
X80373368Y-94478532D01*
X80546443Y-94599720D01*
X80551421Y-94602041D01*
X80551424Y-94602043D01*
X80732950Y-94686690D01*
X80737932Y-94689013D01*
X80743240Y-94690435D01*
X80743242Y-94690436D01*
X80772566Y-94698293D01*
X80833189Y-94735244D01*
X80864210Y-94799105D01*
X80855782Y-94869599D01*
X80810579Y-94924347D01*
X80772566Y-94941707D01*
X80743242Y-94949564D01*
X80743240Y-94949565D01*
X80737932Y-94950987D01*
X80732951Y-94953309D01*
X80732950Y-94953310D01*
X80551424Y-95037957D01*
X80551421Y-95037959D01*
X80546443Y-95040280D01*
X80373368Y-95161468D01*
X80223967Y-95310869D01*
X80102779Y-95483944D01*
X80100458Y-95488922D01*
X80100456Y-95488925D01*
X80015809Y-95670451D01*
X80013486Y-95675433D01*
X79958802Y-95879519D01*
X79940387Y-96090000D01*
X79958802Y-96300481D01*
X80013486Y-96504567D01*
X80102779Y-96696056D01*
X80223967Y-96869131D01*
X80373368Y-97018532D01*
X80546443Y-97139720D01*
X80551421Y-97142041D01*
X80551424Y-97142043D01*
X80698402Y-97210580D01*
X80737932Y-97229013D01*
X80743240Y-97230435D01*
X80743242Y-97230436D01*
X80936703Y-97282273D01*
X80942018Y-97283697D01*
X81152499Y-97302112D01*
X81362980Y-97283697D01*
X81368295Y-97282273D01*
X81561756Y-97230436D01*
X81561758Y-97230435D01*
X81567066Y-97229013D01*
X81606596Y-97210580D01*
X81753574Y-97142043D01*
X81753577Y-97142041D01*
X81758555Y-97139720D01*
X81931630Y-97018532D01*
X82081031Y-96869131D01*
X82202219Y-96696056D01*
X82291512Y-96504567D01*
X82346196Y-96300481D01*
X82364611Y-96090000D01*
X82359744Y-96034367D01*
X85590744Y-96034367D01*
X85601002Y-96295459D01*
X85601977Y-96304288D01*
X85648921Y-96561332D01*
X85651130Y-96569934D01*
X85733823Y-96817796D01*
X85737227Y-96826014D01*
X85854018Y-97059750D01*
X85858542Y-97067398D01*
X85973851Y-97234235D01*
X85984172Y-97242589D01*
X85997822Y-97235467D01*
X87130477Y-96102812D01*
X87136855Y-96091132D01*
X87866907Y-96091132D01*
X87867038Y-96092965D01*
X87871289Y-96099580D01*
X89008016Y-97236307D01*
X89021416Y-97243624D01*
X89031320Y-97236637D01*
X89047185Y-97217763D01*
X89052404Y-97210580D01*
X89190670Y-96988876D01*
X89194832Y-96981017D01*
X89300487Y-96742030D01*
X89303493Y-96733680D01*
X89374420Y-96482192D01*
X89376221Y-96473499D01*
X89411171Y-96213292D01*
X89411699Y-96206899D01*
X89415272Y-96093222D01*
X89415145Y-96086779D01*
X89396605Y-95824923D01*
X89395352Y-95816119D01*
X89340357Y-95560677D01*
X89337878Y-95552144D01*
X89247440Y-95307002D01*
X89243785Y-95298907D01*
X89119705Y-95068947D01*
X89114946Y-95061449D01*
X89030258Y-94946790D01*
X89019130Y-94938348D01*
X89006537Y-94945172D01*
X87874521Y-96077188D01*
X87866907Y-96091132D01*
X87136855Y-96091132D01*
X87138091Y-96088868D01*
X87137960Y-96087035D01*
X87133709Y-96080420D01*
X85998318Y-94945029D01*
X85985477Y-94938017D01*
X85974788Y-94945813D01*
X85923162Y-95011299D01*
X85918157Y-95018663D01*
X85786919Y-95244605D01*
X85783015Y-95252575D01*
X85684919Y-95494763D01*
X85682175Y-95503207D01*
X85619182Y-95756800D01*
X85617655Y-95765551D01*
X85591023Y-96025483D01*
X85590744Y-96034367D01*
X82359744Y-96034367D01*
X82346196Y-95879519D01*
X82291512Y-95675433D01*
X82289189Y-95670451D01*
X82204542Y-95488925D01*
X82204540Y-95488922D01*
X82202219Y-95483944D01*
X82081031Y-95310869D01*
X81931630Y-95161468D01*
X81758555Y-95040280D01*
X81753577Y-95037959D01*
X81753574Y-95037957D01*
X81572048Y-94953310D01*
X81572047Y-94953309D01*
X81567066Y-94950987D01*
X81561758Y-94949565D01*
X81561756Y-94949564D01*
X81532432Y-94941707D01*
X81471809Y-94904756D01*
X81440788Y-94840895D01*
X81449216Y-94770401D01*
X81494419Y-94715653D01*
X81532432Y-94698293D01*
X81561756Y-94690436D01*
X81561758Y-94690435D01*
X81567066Y-94689013D01*
X81572048Y-94686690D01*
X81753574Y-94602043D01*
X81753577Y-94602041D01*
X81758555Y-94599720D01*
X81797161Y-94572688D01*
X86350544Y-94572688D01*
X86357524Y-94585815D01*
X87489687Y-95717978D01*
X87503631Y-95725592D01*
X87505464Y-95725461D01*
X87512079Y-95721210D01*
X88647303Y-94585986D01*
X88654157Y-94573434D01*
X88645949Y-94562363D01*
X88556261Y-94493916D01*
X88548812Y-94489023D01*
X88320852Y-94361359D01*
X88312802Y-94357571D01*
X88069116Y-94263295D01*
X88060626Y-94260683D01*
X87806077Y-94201683D01*
X87797299Y-94200293D01*
X87536977Y-94177746D01*
X87528106Y-94177606D01*
X87267195Y-94191965D01*
X87258385Y-94193079D01*
X87002106Y-94244055D01*
X86993549Y-94246396D01*
X86746995Y-94332980D01*
X86738861Y-94336500D01*
X86506976Y-94456955D01*
X86499404Y-94461594D01*
X86358946Y-94561967D01*
X86350544Y-94572688D01*
X81797161Y-94572688D01*
X81931630Y-94478532D01*
X82081031Y-94329131D01*
X82202219Y-94156056D01*
X82291512Y-93964567D01*
X82346196Y-93760481D01*
X82364611Y-93550000D01*
X82346196Y-93339519D01*
X82291512Y-93135433D01*
X82289187Y-93130446D01*
X82273246Y-93096260D01*
X82262585Y-93026069D01*
X82291565Y-92961256D01*
X82350985Y-92922400D01*
X82387441Y-92917011D01*
X83492918Y-92917011D01*
X83511868Y-92918444D01*
X83526103Y-92920610D01*
X83526107Y-92920610D01*
X83533337Y-92921710D01*
X83540629Y-92921117D01*
X83540632Y-92921117D01*
X83586006Y-92917426D01*
X83596221Y-92917011D01*
X83604281Y-92917011D01*
X83617571Y-92915462D01*
X83632495Y-92913722D01*
X83636870Y-92913289D01*
X83702327Y-92907965D01*
X83702330Y-92907964D01*
X83709625Y-92907371D01*
X83716589Y-92905115D01*
X83722548Y-92903924D01*
X83728403Y-92902540D01*
X83735669Y-92901693D01*
X83804315Y-92876776D01*
X83808443Y-92875359D01*
X83870924Y-92855118D01*
X83870926Y-92855117D01*
X83877887Y-92852862D01*
X83884142Y-92849066D01*
X83889616Y-92846560D01*
X83895046Y-92843841D01*
X83901925Y-92841344D01*
X83932410Y-92821357D01*
X83962964Y-92801325D01*
X83966668Y-92798988D01*
X84029095Y-92761106D01*
X84037472Y-92753708D01*
X84037496Y-92753735D01*
X84040487Y-92751083D01*
X84043721Y-92748379D01*
X84049840Y-92744367D01*
X84103082Y-92688164D01*
X84105457Y-92685723D01*
X84531819Y-92259361D01*
X84985774Y-91805405D01*
X85048087Y-91771380D01*
X85074870Y-91768500D01*
X85670009Y-91768500D01*
X85738130Y-91788502D01*
X85782721Y-91838180D01*
X85855577Y-91983987D01*
X85858106Y-91987646D01*
X85968028Y-92146690D01*
X86009243Y-92206324D01*
X86192704Y-92404790D01*
X86196158Y-92407602D01*
X86196159Y-92407603D01*
X86262603Y-92461697D01*
X86402298Y-92575427D01*
X86406116Y-92577726D01*
X86406118Y-92577727D01*
X86587473Y-92686912D01*
X86633845Y-92714830D01*
X86637940Y-92716564D01*
X86637942Y-92716565D01*
X86878623Y-92818480D01*
X86878630Y-92818482D01*
X86882724Y-92820216D01*
X86947273Y-92837331D01*
X87139671Y-92888345D01*
X87139676Y-92888346D01*
X87143968Y-92889484D01*
X87148377Y-92890006D01*
X87148383Y-92890007D01*
X87265971Y-92903924D01*
X87412367Y-92921251D01*
X87682563Y-92914883D01*
X87686958Y-92914151D01*
X87686963Y-92914151D01*
X87944766Y-92871241D01*
X87944770Y-92871240D01*
X87949168Y-92870508D01*
X88117458Y-92817285D01*
X88202613Y-92790354D01*
X88202615Y-92790353D01*
X88206859Y-92789011D01*
X88210870Y-92787085D01*
X88210875Y-92787083D01*
X88446478Y-92673948D01*
X88446479Y-92673947D01*
X88450497Y-92672018D01*
X88634677Y-92548953D01*
X88671512Y-92524341D01*
X88671516Y-92524338D01*
X88675220Y-92521863D01*
X88678537Y-92518892D01*
X88678541Y-92518889D01*
X88873228Y-92344512D01*
X88876544Y-92341542D01*
X89050452Y-92134654D01*
X89175194Y-91934637D01*
X89191113Y-91909111D01*
X89191114Y-91909109D01*
X89193474Y-91905325D01*
X89302757Y-91658133D01*
X89376119Y-91398008D01*
X89385640Y-91327125D01*
X89411671Y-91133324D01*
X89411672Y-91133316D01*
X89412098Y-91130142D01*
X89412199Y-91126931D01*
X89415773Y-91013222D01*
X89415773Y-91013217D01*
X89415874Y-91010000D01*
X89396786Y-90740403D01*
X89339901Y-90476185D01*
X89337548Y-90469805D01*
X89247896Y-90226796D01*
X89246355Y-90222619D01*
X89219537Y-90172916D01*
X89120128Y-89988678D01*
X89120128Y-89988677D01*
X89118015Y-89984762D01*
X88957441Y-89767362D01*
X88767837Y-89574756D01*
X88691055Y-89516158D01*
X88556527Y-89413489D01*
X88556523Y-89413487D01*
X88552986Y-89410787D01*
X88325433Y-89283352D01*
X88275771Y-89232615D01*
X88260999Y-89173417D01*
X88260999Y-74821069D01*
X88262432Y-74802118D01*
X88264598Y-74787883D01*
X88264598Y-74787881D01*
X88265698Y-74780651D01*
X88261414Y-74727982D01*
X88260999Y-74717767D01*
X88260999Y-74709707D01*
X88257710Y-74681493D01*
X88257277Y-74677118D01*
X88251953Y-74611661D01*
X88251952Y-74611658D01*
X88251359Y-74604363D01*
X88249103Y-74597399D01*
X88247912Y-74591440D01*
X88246528Y-74585585D01*
X88245681Y-74578319D01*
X88220764Y-74509673D01*
X88219347Y-74505545D01*
X88199106Y-74443064D01*
X88199105Y-74443062D01*
X88196850Y-74436101D01*
X88193054Y-74429846D01*
X88190548Y-74424372D01*
X88187829Y-74418942D01*
X88185332Y-74412063D01*
X88145308Y-74351016D01*
X88142971Y-74347312D01*
X88108008Y-74289693D01*
X88108004Y-74289688D01*
X88105094Y-74284892D01*
X88097696Y-74276516D01*
X88097722Y-74276493D01*
X88095073Y-74273503D01*
X88092365Y-74270264D01*
X88088355Y-74264148D01*
X88083048Y-74259121D01*
X88083045Y-74259117D01*
X88032116Y-74210872D01*
X88029674Y-74208494D01*
X86011904Y-72190724D01*
X85977878Y-72128412D01*
X85974999Y-72101629D01*
X85974999Y-64056312D01*
X85995001Y-63988191D01*
X86048657Y-63941698D01*
X86118931Y-63931594D01*
X86152246Y-63941204D01*
X86192236Y-63959009D01*
X86266757Y-63974849D01*
X86372580Y-63997343D01*
X86372585Y-63997343D01*
X86379037Y-63998715D01*
X86570011Y-63998715D01*
X86576463Y-63997343D01*
X86576468Y-63997343D01*
X86682291Y-63974849D01*
X86756812Y-63959009D01*
X86762843Y-63956324D01*
X86925246Y-63884018D01*
X86925248Y-63884017D01*
X86931276Y-63881333D01*
X86940234Y-63874825D01*
X86986681Y-63841079D01*
X87085777Y-63769081D01*
X87090199Y-63764170D01*
X87209145Y-63632067D01*
X87209146Y-63632066D01*
X87213564Y-63627159D01*
X87309051Y-63461771D01*
X87368066Y-63280143D01*
X87370881Y-63253365D01*
X87387338Y-63096780D01*
X87388028Y-63090215D01*
X87368066Y-62900287D01*
X87309051Y-62718659D01*
X87301009Y-62704729D01*
X87216865Y-62558989D01*
X87213564Y-62553271D01*
X87195363Y-62533056D01*
X87090199Y-62416260D01*
X87090198Y-62416259D01*
X87085777Y-62411349D01*
X87053891Y-62388182D01*
X86942280Y-62307092D01*
X86898926Y-62250870D01*
X86892851Y-62180133D01*
X86925983Y-62117342D01*
X86987803Y-62082430D01*
X87027323Y-62079635D01*
X87226024Y-62097019D01*
X87231499Y-62097498D01*
X87459586Y-62077543D01*
X87464899Y-62076119D01*
X87464901Y-62076119D01*
X87675432Y-62019707D01*
X87675434Y-62019706D01*
X87680742Y-62018284D01*
X87744750Y-61988437D01*
X87883261Y-61923849D01*
X87883266Y-61923846D01*
X87888248Y-61921523D01*
X88013488Y-61833829D01*
X88071288Y-61793357D01*
X88071291Y-61793355D01*
X88075799Y-61790198D01*
X88237697Y-61628300D01*
X88369022Y-61440749D01*
X88371345Y-61435767D01*
X88371348Y-61435762D01*
X88387304Y-61401543D01*
X88434221Y-61348258D01*
X88502498Y-61328797D01*
X88570458Y-61349339D01*
X88615694Y-61401543D01*
X88631650Y-61435762D01*
X88631653Y-61435767D01*
X88633976Y-61440749D01*
X88765301Y-61628300D01*
X88927199Y-61790198D01*
X88931707Y-61793355D01*
X88931710Y-61793357D01*
X88989510Y-61833829D01*
X89114750Y-61921523D01*
X89119732Y-61923846D01*
X89119737Y-61923849D01*
X89258248Y-61988437D01*
X89322256Y-62018284D01*
X89327564Y-62019706D01*
X89327566Y-62019707D01*
X89538097Y-62076119D01*
X89538099Y-62076119D01*
X89543412Y-62077543D01*
X89771499Y-62097498D01*
X89999586Y-62077543D01*
X90004899Y-62076119D01*
X90004901Y-62076119D01*
X90215432Y-62019707D01*
X90215434Y-62019706D01*
X90220742Y-62018284D01*
X90284750Y-61988437D01*
X90423261Y-61923849D01*
X90423266Y-61923846D01*
X90428248Y-61921523D01*
X90553488Y-61833829D01*
X90611288Y-61793357D01*
X90611291Y-61793355D01*
X90615799Y-61790198D01*
X90777697Y-61628300D01*
X90909022Y-61440749D01*
X90911345Y-61435767D01*
X90911348Y-61435762D01*
X90927304Y-61401543D01*
X90974221Y-61348258D01*
X91042498Y-61328797D01*
X91110458Y-61349339D01*
X91155694Y-61401543D01*
X91171650Y-61435762D01*
X91171653Y-61435767D01*
X91173976Y-61440749D01*
X91305301Y-61628300D01*
X91467199Y-61790198D01*
X91471707Y-61793355D01*
X91471710Y-61793357D01*
X91529510Y-61833829D01*
X91654750Y-61921523D01*
X91659732Y-61923846D01*
X91659737Y-61923849D01*
X91697634Y-61941520D01*
X91750919Y-61988437D01*
X91770380Y-62056714D01*
X91749838Y-62124674D01*
X91695816Y-62170740D01*
X91644384Y-62181715D01*
X91459037Y-62181715D01*
X91452585Y-62183087D01*
X91452580Y-62183087D01*
X91376532Y-62199252D01*
X91272236Y-62221421D01*
X91266206Y-62224106D01*
X91266205Y-62224106D01*
X91103802Y-62296412D01*
X91103800Y-62296413D01*
X91097772Y-62299097D01*
X91092431Y-62302977D01*
X91092430Y-62302978D01*
X91052380Y-62332076D01*
X90943271Y-62411349D01*
X90938850Y-62416259D01*
X90938849Y-62416260D01*
X90833686Y-62533056D01*
X90815484Y-62553271D01*
X90812183Y-62558989D01*
X90728040Y-62704729D01*
X90719997Y-62718659D01*
X90660982Y-62900287D01*
X90641020Y-63090215D01*
X90641710Y-63096780D01*
X90658168Y-63253365D01*
X90660982Y-63280143D01*
X90719997Y-63461771D01*
X90815484Y-63627159D01*
X90819902Y-63632066D01*
X90819903Y-63632067D01*
X90938849Y-63764170D01*
X90943271Y-63769081D01*
X91042367Y-63841079D01*
X91088815Y-63874825D01*
X91097772Y-63881333D01*
X91103800Y-63884017D01*
X91103802Y-63884018D01*
X91266205Y-63956324D01*
X91272236Y-63959009D01*
X91346757Y-63974849D01*
X91452580Y-63997343D01*
X91452585Y-63997343D01*
X91459037Y-63998715D01*
X91650011Y-63998715D01*
X91656463Y-63997343D01*
X91656468Y-63997343D01*
X91762291Y-63974849D01*
X91836812Y-63959009D01*
X91842843Y-63956324D01*
X92005246Y-63884018D01*
X92005248Y-63884017D01*
X92011276Y-63881333D01*
X92020234Y-63874825D01*
X92066681Y-63841079D01*
X92165777Y-63769081D01*
X92170199Y-63764170D01*
X92289145Y-63632067D01*
X92289146Y-63632066D01*
X92293564Y-63627159D01*
X92389051Y-63461771D01*
X92448066Y-63280143D01*
X92450881Y-63253365D01*
X92467338Y-63096780D01*
X92468028Y-63090215D01*
X92448066Y-62900287D01*
X92389051Y-62718659D01*
X92381009Y-62704729D01*
X92296865Y-62558989D01*
X92293564Y-62553271D01*
X92275363Y-62533056D01*
X92170199Y-62416260D01*
X92170198Y-62416259D01*
X92165777Y-62411349D01*
X92133891Y-62388182D01*
X92022280Y-62307092D01*
X91978926Y-62250870D01*
X91972851Y-62180133D01*
X92005983Y-62117342D01*
X92067803Y-62082430D01*
X92107323Y-62079635D01*
X92306024Y-62097019D01*
X92311499Y-62097498D01*
X92539586Y-62077543D01*
X92544899Y-62076119D01*
X92544901Y-62076119D01*
X92755432Y-62019707D01*
X92755434Y-62019706D01*
X92760742Y-62018284D01*
X92824750Y-61988437D01*
X92963261Y-61923849D01*
X92963266Y-61923846D01*
X92968248Y-61921523D01*
X93093488Y-61833829D01*
X93151288Y-61793357D01*
X93151291Y-61793355D01*
X93155799Y-61790198D01*
X93317697Y-61628300D01*
X93449022Y-61440749D01*
X93451345Y-61435767D01*
X93451348Y-61435762D01*
X93467580Y-61400951D01*
X93514497Y-61347666D01*
X93582774Y-61328205D01*
X93650734Y-61348747D01*
X93695970Y-61400951D01*
X93712085Y-61435511D01*
X93717568Y-61445007D01*
X93842527Y-61623467D01*
X93849583Y-61631875D01*
X94003624Y-61785916D01*
X94012032Y-61792972D01*
X94190492Y-61917931D01*
X94199988Y-61923414D01*
X94397446Y-62015490D01*
X94407738Y-62019236D01*
X94580002Y-62065394D01*
X94594098Y-62065058D01*
X94597499Y-62057116D01*
X94597499Y-59516033D01*
X94593526Y-59502502D01*
X94584977Y-59501273D01*
X94407738Y-59548764D01*
X94397446Y-59552510D01*
X94199988Y-59644586D01*
X94190492Y-59650069D01*
X94012032Y-59775028D01*
X94003624Y-59782084D01*
X93849583Y-59936125D01*
X93842527Y-59944533D01*
X93717568Y-60122993D01*
X93712085Y-60132489D01*
X93695970Y-60167049D01*
X93649053Y-60220334D01*
X93580776Y-60239795D01*
X93512816Y-60219253D01*
X93467580Y-60167049D01*
X93451348Y-60132238D01*
X93451345Y-60132233D01*
X93449022Y-60127251D01*
X93350651Y-59986763D01*
X93320856Y-59944211D01*
X93320854Y-59944208D01*
X93317697Y-59939700D01*
X93155799Y-59777802D01*
X93151291Y-59774645D01*
X93151288Y-59774643D01*
X93014751Y-59679039D01*
X92968248Y-59646477D01*
X92963266Y-59644154D01*
X92963261Y-59644151D01*
X92765724Y-59552039D01*
X92765723Y-59552039D01*
X92760742Y-59549716D01*
X92755434Y-59548294D01*
X92755432Y-59548293D01*
X92544901Y-59491881D01*
X92544899Y-59491881D01*
X92539586Y-59490457D01*
X92311499Y-59470502D01*
X92083412Y-59490457D01*
X92078099Y-59491881D01*
X92078097Y-59491881D01*
X91867566Y-59548293D01*
X91867564Y-59548294D01*
X91862256Y-59549716D01*
X91857275Y-59552039D01*
X91857274Y-59552039D01*
X91659737Y-59644151D01*
X91659732Y-59644154D01*
X91654750Y-59646477D01*
X91608247Y-59679039D01*
X91471710Y-59774643D01*
X91471707Y-59774645D01*
X91467199Y-59777802D01*
X91305301Y-59939700D01*
X91302144Y-59944208D01*
X91302142Y-59944211D01*
X91272347Y-59986763D01*
X91173976Y-60127251D01*
X91171653Y-60132233D01*
X91171650Y-60132238D01*
X91155694Y-60166457D01*
X91108777Y-60219742D01*
X91040500Y-60239203D01*
X90972540Y-60218661D01*
X90927304Y-60166457D01*
X90911348Y-60132238D01*
X90911345Y-60132233D01*
X90909022Y-60127251D01*
X90810651Y-59986763D01*
X90780856Y-59944211D01*
X90780854Y-59944208D01*
X90777697Y-59939700D01*
X90615799Y-59777802D01*
X90611291Y-59774645D01*
X90611288Y-59774643D01*
X90474751Y-59679039D01*
X90428248Y-59646477D01*
X90423266Y-59644154D01*
X90423261Y-59644151D01*
X90225724Y-59552039D01*
X90225723Y-59552039D01*
X90220742Y-59549716D01*
X90215434Y-59548294D01*
X90215432Y-59548293D01*
X90004901Y-59491881D01*
X90004899Y-59491881D01*
X89999586Y-59490457D01*
X89771499Y-59470502D01*
X89543412Y-59490457D01*
X89538099Y-59491881D01*
X89538097Y-59491881D01*
X89327566Y-59548293D01*
X89327564Y-59548294D01*
X89322256Y-59549716D01*
X89317275Y-59552039D01*
X89317274Y-59552039D01*
X89119737Y-59644151D01*
X89119732Y-59644154D01*
X89114750Y-59646477D01*
X89068247Y-59679039D01*
X88931710Y-59774643D01*
X88931707Y-59774645D01*
X88927199Y-59777802D01*
X88765301Y-59939700D01*
X88762144Y-59944208D01*
X88762142Y-59944211D01*
X88732347Y-59986763D01*
X88633976Y-60127251D01*
X88631653Y-60132233D01*
X88631650Y-60132238D01*
X88615694Y-60166457D01*
X88568777Y-60219742D01*
X88500500Y-60239203D01*
X88432540Y-60218661D01*
X88387304Y-60166457D01*
X88371348Y-60132238D01*
X88371345Y-60132233D01*
X88369022Y-60127251D01*
X88270651Y-59986763D01*
X88240856Y-59944211D01*
X88240854Y-59944208D01*
X88237697Y-59939700D01*
X88075799Y-59777802D01*
X88071291Y-59774645D01*
X88071288Y-59774643D01*
X87934751Y-59679039D01*
X87888248Y-59646477D01*
X87883266Y-59644154D01*
X87883261Y-59644151D01*
X87685724Y-59552039D01*
X87685723Y-59552039D01*
X87680742Y-59549716D01*
X87675434Y-59548294D01*
X87675432Y-59548293D01*
X87464901Y-59491881D01*
X87464899Y-59491881D01*
X87459586Y-59490457D01*
X87231499Y-59470502D01*
X87003412Y-59490457D01*
X86998099Y-59491881D01*
X86998097Y-59491881D01*
X86787566Y-59548293D01*
X86787564Y-59548294D01*
X86782256Y-59549716D01*
X86777275Y-59552039D01*
X86777274Y-59552039D01*
X86579737Y-59644151D01*
X86579732Y-59644154D01*
X86574750Y-59646477D01*
X86528247Y-59679039D01*
X86391710Y-59774643D01*
X86391707Y-59774645D01*
X86387199Y-59777802D01*
X86225301Y-59939700D01*
X86222144Y-59944208D01*
X86222142Y-59944211D01*
X86204212Y-59969818D01*
X86148755Y-60014146D01*
X86078135Y-60021455D01*
X86014775Y-59989424D01*
X85978790Y-59928223D01*
X85974999Y-59897547D01*
X85974999Y-59581063D01*
X85976432Y-59562114D01*
X85977893Y-59552510D01*
X85979697Y-59540651D01*
X85975414Y-59487990D01*
X85974999Y-59477777D01*
X85974999Y-59469707D01*
X85974577Y-59466087D01*
X85974576Y-59466069D01*
X85971707Y-59441461D01*
X85971274Y-59437086D01*
X85965953Y-59371661D01*
X85965952Y-59371658D01*
X85965359Y-59364363D01*
X85963103Y-59357399D01*
X85961912Y-59351440D01*
X85960528Y-59345585D01*
X85959681Y-59338319D01*
X85934764Y-59269673D01*
X85933347Y-59265545D01*
X85913106Y-59203064D01*
X85913105Y-59203062D01*
X85910850Y-59196101D01*
X85907054Y-59189846D01*
X85904548Y-59184372D01*
X85901829Y-59178942D01*
X85899332Y-59172063D01*
X85859308Y-59111016D01*
X85856971Y-59107312D01*
X85822008Y-59049693D01*
X85822004Y-59049688D01*
X85819094Y-59044892D01*
X85811696Y-59036516D01*
X85811722Y-59036493D01*
X85809073Y-59033503D01*
X85806365Y-59030264D01*
X85802355Y-59024148D01*
X85797048Y-59019121D01*
X85797045Y-59019117D01*
X85746116Y-58970872D01*
X85743674Y-58968494D01*
X84276269Y-57501089D01*
X84263883Y-57486677D01*
X84255350Y-57475082D01*
X84255345Y-57475077D01*
X84251007Y-57469182D01*
X84245429Y-57464443D01*
X84245426Y-57464440D01*
X84210731Y-57434965D01*
X84203215Y-57428035D01*
X84197520Y-57422340D01*
X84191379Y-57417482D01*
X84175248Y-57404719D01*
X84171844Y-57401928D01*
X84121796Y-57359409D01*
X84121794Y-57359408D01*
X84116214Y-57354667D01*
X84109698Y-57351339D01*
X84104649Y-57347972D01*
X84099520Y-57344805D01*
X84093783Y-57340266D01*
X84027624Y-57309345D01*
X84023724Y-57307439D01*
X83958691Y-57274231D01*
X83951583Y-57272492D01*
X83945940Y-57270393D01*
X83940177Y-57268476D01*
X83933549Y-57265378D01*
X83862082Y-57250513D01*
X83857798Y-57249543D01*
X83786889Y-57232192D01*
X83781287Y-57231844D01*
X83781284Y-57231844D01*
X83775735Y-57231500D01*
X83775737Y-57231464D01*
X83771744Y-57231225D01*
X83767552Y-57230851D01*
X83760384Y-57229360D01*
X83694174Y-57231151D01*
X83682978Y-57231454D01*
X83679571Y-57231500D01*
X75168870Y-57231500D01*
X75100749Y-57211498D01*
X75079775Y-57194595D01*
X73787903Y-55902723D01*
X73753877Y-55840411D01*
X73750998Y-55813628D01*
X73750998Y-55426370D01*
X73771000Y-55358249D01*
X73824656Y-55311756D01*
X73894930Y-55301652D01*
X73959510Y-55331146D01*
X73966093Y-55337275D01*
X74313725Y-55684907D01*
X74326111Y-55699319D01*
X74334647Y-55710917D01*
X74338990Y-55716818D01*
X74344568Y-55721557D01*
X74344571Y-55721560D01*
X74379273Y-55751041D01*
X74386789Y-55757971D01*
X74392478Y-55763660D01*
X74395332Y-55765918D01*
X74395342Y-55765927D01*
X74414740Y-55781274D01*
X74418140Y-55784062D01*
X74468205Y-55826595D01*
X74468209Y-55826598D01*
X74473783Y-55831333D01*
X74480298Y-55834660D01*
X74485335Y-55838019D01*
X74490473Y-55841192D01*
X74496214Y-55845734D01*
X74562373Y-55876655D01*
X74566267Y-55878558D01*
X74631306Y-55911769D01*
X74638415Y-55913508D01*
X74644049Y-55915604D01*
X74649819Y-55917523D01*
X74656448Y-55920622D01*
X74663611Y-55922112D01*
X74663614Y-55922113D01*
X74714328Y-55932661D01*
X74727933Y-55935491D01*
X74732199Y-55936457D01*
X74803108Y-55953808D01*
X74808710Y-55954156D01*
X74808713Y-55954156D01*
X74814262Y-55954500D01*
X74814260Y-55954535D01*
X74818232Y-55954775D01*
X74822453Y-55955152D01*
X74829613Y-55956641D01*
X74907040Y-55954546D01*
X74910448Y-55954500D01*
X92752429Y-55954500D01*
X92771379Y-55955933D01*
X92785614Y-55958099D01*
X92785618Y-55958099D01*
X92792848Y-55959199D01*
X92800140Y-55958606D01*
X92800143Y-55958606D01*
X92845517Y-55954915D01*
X92855732Y-55954500D01*
X92863792Y-55954500D01*
X92881179Y-55952473D01*
X92892006Y-55951211D01*
X92896381Y-55950778D01*
X92961838Y-55945454D01*
X92961841Y-55945453D01*
X92969136Y-55944860D01*
X92976100Y-55942604D01*
X92982059Y-55941413D01*
X92987914Y-55940029D01*
X92995180Y-55939182D01*
X93063826Y-55914265D01*
X93067954Y-55912848D01*
X93130435Y-55892607D01*
X93130437Y-55892606D01*
X93137398Y-55890351D01*
X93143653Y-55886555D01*
X93149127Y-55884049D01*
X93154557Y-55881330D01*
X93161436Y-55878833D01*
X93181287Y-55865818D01*
X93222475Y-55838814D01*
X93226179Y-55836477D01*
X93288606Y-55798595D01*
X93296983Y-55791197D01*
X93297007Y-55791224D01*
X93299999Y-55788571D01*
X93303232Y-55785868D01*
X93309351Y-55781856D01*
X93362627Y-55725617D01*
X93365005Y-55723175D01*
X94588509Y-54499671D01*
X94650821Y-54465645D01*
X94688586Y-54463245D01*
X94846024Y-54477019D01*
X94851499Y-54477498D01*
X95079586Y-54457543D01*
X95183900Y-54429592D01*
X95254875Y-54431282D01*
X95313671Y-54471076D01*
X95341619Y-54536340D01*
X95342510Y-54551299D01*
X95342510Y-59397218D01*
X95322508Y-59465339D01*
X95268852Y-59511832D01*
X95198578Y-59521936D01*
X95183899Y-59518925D01*
X95122996Y-59502606D01*
X95108900Y-59502942D01*
X95105499Y-59510884D01*
X95105499Y-62051967D01*
X95109472Y-62065498D01*
X95118021Y-62066727D01*
X95183899Y-62049075D01*
X95254876Y-62050765D01*
X95313671Y-62090559D01*
X95341619Y-62155824D01*
X95342510Y-62170782D01*
X95342510Y-65423918D01*
X95322508Y-65492039D01*
X95267759Y-65539025D01*
X95179777Y-65578197D01*
X95179775Y-65578198D01*
X95173747Y-65580882D01*
X95019246Y-65693134D01*
X94891459Y-65835056D01*
X94888158Y-65840774D01*
X94827105Y-65946521D01*
X94795972Y-66000444D01*
X94736957Y-66182072D01*
X94736267Y-66188633D01*
X94736267Y-66188635D01*
X94719592Y-66347292D01*
X94692579Y-66412949D01*
X94683377Y-66423218D01*
X94467593Y-66639001D01*
X94459314Y-66646535D01*
X94452833Y-66650648D01*
X94406208Y-66700299D01*
X94403453Y-66703141D01*
X94383716Y-66722878D01*
X94381236Y-66726075D01*
X94373533Y-66735095D01*
X94343265Y-66767327D01*
X94339446Y-66774273D01*
X94339444Y-66774276D01*
X94333503Y-66785082D01*
X94322652Y-66801601D01*
X94310237Y-66817607D01*
X94307092Y-66824876D01*
X94307089Y-66824880D01*
X94292677Y-66858185D01*
X94287460Y-66868835D01*
X94266156Y-66907588D01*
X94264185Y-66915263D01*
X94264185Y-66915264D01*
X94261118Y-66927210D01*
X94254714Y-66945914D01*
X94246670Y-66964503D01*
X94245431Y-66972326D01*
X94245428Y-66972336D01*
X94239752Y-67008172D01*
X94237346Y-67019792D01*
X94226351Y-67062618D01*
X94226351Y-67082872D01*
X94224800Y-67102582D01*
X94221631Y-67122591D01*
X94222377Y-67130483D01*
X94225792Y-67166609D01*
X94226351Y-67178467D01*
X94226351Y-89950646D01*
X94206349Y-90018767D01*
X94193993Y-90034949D01*
X94120811Y-90116226D01*
X94117510Y-90121944D01*
X94042466Y-90251924D01*
X94025324Y-90281614D01*
X93966309Y-90463242D01*
X93965619Y-90469803D01*
X93965619Y-90469805D01*
X93964507Y-90480383D01*
X93946347Y-90653170D01*
X93966309Y-90843098D01*
X94025324Y-91024726D01*
X94120811Y-91190114D01*
X94125229Y-91195021D01*
X94125230Y-91195022D01*
X94152939Y-91225796D01*
X94248598Y-91332036D01*
X94291362Y-91363106D01*
X94382813Y-91429549D01*
X94403099Y-91444288D01*
X94409127Y-91446972D01*
X94409129Y-91446973D01*
X94571532Y-91519279D01*
X94577563Y-91521964D01*
X94670964Y-91541817D01*
X94757907Y-91560298D01*
X94757912Y-91560298D01*
X94764364Y-91561670D01*
X94955338Y-91561670D01*
X94961790Y-91560298D01*
X94961795Y-91560298D01*
X95048738Y-91541817D01*
X95142139Y-91521964D01*
X95148170Y-91519279D01*
X95310573Y-91446973D01*
X95310575Y-91446972D01*
X95316603Y-91444288D01*
X95336890Y-91429549D01*
X95428340Y-91363106D01*
X95471104Y-91332036D01*
X95566763Y-91225796D01*
X95594472Y-91195022D01*
X95594473Y-91195021D01*
X95598891Y-91190114D01*
X95694378Y-91024726D01*
X95753393Y-90843098D01*
X95773355Y-90653170D01*
X95755195Y-90480383D01*
X95754083Y-90469805D01*
X95754083Y-90469803D01*
X95753393Y-90463242D01*
X95694378Y-90281614D01*
X95677237Y-90251924D01*
X95602192Y-90121944D01*
X95598891Y-90116226D01*
X95525714Y-90034955D01*
X95494998Y-89970949D01*
X95493351Y-89950646D01*
X95493351Y-67457242D01*
X95513353Y-67389121D01*
X95530256Y-67368147D01*
X95580998Y-67317405D01*
X95643310Y-67283379D01*
X95670093Y-67280500D01*
X95725986Y-67280500D01*
X95732438Y-67279128D01*
X95732443Y-67279128D01*
X95819386Y-67260647D01*
X95912787Y-67240794D01*
X95947446Y-67225363D01*
X96081221Y-67165803D01*
X96081223Y-67165802D01*
X96087251Y-67163118D01*
X96241752Y-67050866D01*
X96277659Y-67010987D01*
X96365120Y-66913852D01*
X96365121Y-66913851D01*
X96369539Y-66908944D01*
X96465026Y-66743556D01*
X96524041Y-66561928D01*
X96544003Y-66372000D01*
X96542510Y-66357793D01*
X96557405Y-66283923D01*
X96565885Y-66268498D01*
X96565885Y-66268497D01*
X96569705Y-66261549D01*
X96571676Y-66253872D01*
X96571678Y-66253867D01*
X96574742Y-66241931D01*
X96581148Y-66223219D01*
X96586044Y-66211906D01*
X96589191Y-66204634D01*
X96592765Y-66182072D01*
X96596107Y-66160970D01*
X96598514Y-66149349D01*
X96607538Y-66114200D01*
X96607538Y-66114199D01*
X96609510Y-66106519D01*
X96609510Y-66086258D01*
X96611061Y-66066547D01*
X96612989Y-66054374D01*
X96614229Y-66046546D01*
X96610069Y-66002535D01*
X96609510Y-65990678D01*
X96609510Y-65077727D01*
X98278108Y-65077727D01*
X98298070Y-65267655D01*
X98357085Y-65449283D01*
X98360388Y-65455005D01*
X98360389Y-65455006D01*
X98389683Y-65505744D01*
X98452572Y-65614671D01*
X98580359Y-65756593D01*
X98734860Y-65868845D01*
X98740888Y-65871529D01*
X98740890Y-65871530D01*
X98768710Y-65883916D01*
X98909324Y-65946521D01*
X99002724Y-65966374D01*
X99089668Y-65984855D01*
X99089673Y-65984855D01*
X99096125Y-65986227D01*
X99287099Y-65986227D01*
X99293551Y-65984855D01*
X99293556Y-65984855D01*
X99380500Y-65966374D01*
X99473900Y-65946521D01*
X99614514Y-65883916D01*
X99642334Y-65871530D01*
X99642336Y-65871529D01*
X99648364Y-65868845D01*
X99802865Y-65756593D01*
X99930652Y-65614671D01*
X99993541Y-65505744D01*
X100022835Y-65455006D01*
X100022836Y-65455005D01*
X100026139Y-65449283D01*
X100085154Y-65267655D01*
X100105116Y-65077727D01*
X100085154Y-64887799D01*
X100026139Y-64706171D01*
X99930652Y-64540783D01*
X99897786Y-64504281D01*
X99807287Y-64403772D01*
X99807286Y-64403771D01*
X99802865Y-64398861D01*
X99648364Y-64286609D01*
X99642336Y-64283925D01*
X99642334Y-64283924D01*
X99479931Y-64211618D01*
X99479930Y-64211618D01*
X99473900Y-64208933D01*
X99376261Y-64188179D01*
X99293556Y-64170599D01*
X99293551Y-64170599D01*
X99287099Y-64169227D01*
X99096125Y-64169227D01*
X99089673Y-64170599D01*
X99089668Y-64170599D01*
X99006963Y-64188179D01*
X98909324Y-64208933D01*
X98903294Y-64211618D01*
X98903293Y-64211618D01*
X98740890Y-64283924D01*
X98740888Y-64283925D01*
X98734860Y-64286609D01*
X98580359Y-64398861D01*
X98575938Y-64403771D01*
X98575937Y-64403772D01*
X98485439Y-64504281D01*
X98452572Y-64540783D01*
X98357085Y-64706171D01*
X98298070Y-64887799D01*
X98278108Y-65077727D01*
X96609510Y-65077727D01*
X96609510Y-62060903D01*
X96629512Y-61992782D01*
X96683168Y-61946289D01*
X96753442Y-61936185D01*
X96788759Y-61946708D01*
X96942256Y-62018284D01*
X96947564Y-62019706D01*
X96947566Y-62019707D01*
X97158097Y-62076119D01*
X97158099Y-62076119D01*
X97163412Y-62077543D01*
X97391499Y-62097498D01*
X97619586Y-62077543D01*
X97624899Y-62076119D01*
X97624901Y-62076119D01*
X97835432Y-62019707D01*
X97835434Y-62019706D01*
X97840742Y-62018284D01*
X97904750Y-61988437D01*
X98043261Y-61923849D01*
X98043266Y-61923846D01*
X98048248Y-61921523D01*
X98173488Y-61833829D01*
X98231288Y-61793357D01*
X98231291Y-61793355D01*
X98235799Y-61790198D01*
X98397697Y-61628300D01*
X98529022Y-61440749D01*
X98531345Y-61435767D01*
X98531348Y-61435762D01*
X98547304Y-61401543D01*
X98594221Y-61348258D01*
X98662498Y-61328797D01*
X98730458Y-61349339D01*
X98775694Y-61401543D01*
X98791650Y-61435762D01*
X98791653Y-61435767D01*
X98793976Y-61440749D01*
X98925301Y-61628300D01*
X99087199Y-61790198D01*
X99091707Y-61793355D01*
X99091710Y-61793357D01*
X99149510Y-61833829D01*
X99274750Y-61921523D01*
X99279732Y-61923846D01*
X99279737Y-61923849D01*
X99418248Y-61988437D01*
X99482256Y-62018284D01*
X99487564Y-62019706D01*
X99487566Y-62019707D01*
X99698097Y-62076119D01*
X99698099Y-62076119D01*
X99703412Y-62077543D01*
X99931499Y-62097498D01*
X100159586Y-62077543D01*
X100164899Y-62076119D01*
X100164901Y-62076119D01*
X100375432Y-62019707D01*
X100375434Y-62019706D01*
X100380742Y-62018284D01*
X100444750Y-61988437D01*
X100583261Y-61923849D01*
X100583266Y-61923846D01*
X100588248Y-61921523D01*
X100713488Y-61833829D01*
X100771288Y-61793357D01*
X100771291Y-61793355D01*
X100775799Y-61790198D01*
X100937697Y-61628300D01*
X101069022Y-61440749D01*
X101071345Y-61435767D01*
X101071348Y-61435762D01*
X101087304Y-61401543D01*
X101134221Y-61348258D01*
X101202498Y-61328797D01*
X101270458Y-61349339D01*
X101315694Y-61401543D01*
X101331650Y-61435762D01*
X101331653Y-61435767D01*
X101333976Y-61440749D01*
X101465301Y-61628300D01*
X101627199Y-61790198D01*
X101631707Y-61793355D01*
X101631710Y-61793357D01*
X101689510Y-61833829D01*
X101814750Y-61921523D01*
X101819732Y-61923846D01*
X101819737Y-61923849D01*
X101958248Y-61988437D01*
X102022256Y-62018284D01*
X102027564Y-62019706D01*
X102027566Y-62019707D01*
X102238097Y-62076119D01*
X102238099Y-62076119D01*
X102243412Y-62077543D01*
X102471499Y-62097498D01*
X102699586Y-62077543D01*
X102704899Y-62076119D01*
X102704901Y-62076119D01*
X102915432Y-62019707D01*
X102915434Y-62019706D01*
X102920742Y-62018284D01*
X102984750Y-61988437D01*
X103123261Y-61923849D01*
X103123266Y-61923846D01*
X103128248Y-61921523D01*
X103253488Y-61833829D01*
X103311288Y-61793357D01*
X103311291Y-61793355D01*
X103315799Y-61790198D01*
X103477697Y-61628300D01*
X103609022Y-61440749D01*
X103611345Y-61435767D01*
X103611348Y-61435762D01*
X103703460Y-61238225D01*
X103703460Y-61238224D01*
X103705783Y-61233243D01*
X103727746Y-61151279D01*
X103763618Y-61017402D01*
X103763618Y-61017400D01*
X103765042Y-61012087D01*
X103784997Y-60784000D01*
X103784122Y-60774000D01*
X104092995Y-60774000D01*
X104093685Y-60780565D01*
X104107970Y-60916475D01*
X104112957Y-60963928D01*
X104171972Y-61145556D01*
X104267459Y-61310944D01*
X104271877Y-61315851D01*
X104271878Y-61315852D01*
X104384336Y-61440749D01*
X104395246Y-61452866D01*
X104425251Y-61474666D01*
X104536976Y-61555839D01*
X104549747Y-61565118D01*
X104555775Y-61567802D01*
X104555777Y-61567803D01*
X104718180Y-61640109D01*
X104724211Y-61642794D01*
X104817611Y-61662647D01*
X104904555Y-61681128D01*
X104904560Y-61681128D01*
X104911012Y-61682500D01*
X105101986Y-61682500D01*
X105108438Y-61681128D01*
X105108443Y-61681128D01*
X105195387Y-61662647D01*
X105288787Y-61642794D01*
X105294818Y-61640109D01*
X105457221Y-61567803D01*
X105457223Y-61567802D01*
X105463251Y-61565118D01*
X105476023Y-61555839D01*
X105587747Y-61474666D01*
X105617752Y-61452866D01*
X105628662Y-61440749D01*
X105741120Y-61315852D01*
X105741121Y-61315851D01*
X105745539Y-61310944D01*
X105841026Y-61145556D01*
X105900041Y-60963928D01*
X105905029Y-60916475D01*
X105919313Y-60780565D01*
X105920003Y-60774000D01*
X105919313Y-60767435D01*
X105900731Y-60590635D01*
X105900731Y-60590633D01*
X105900041Y-60584072D01*
X105841026Y-60402444D01*
X105745539Y-60237056D01*
X105730483Y-60220334D01*
X105622174Y-60100045D01*
X105622173Y-60100044D01*
X105617752Y-60095134D01*
X105506282Y-60014146D01*
X105468593Y-59986763D01*
X105468592Y-59986762D01*
X105463251Y-59982882D01*
X105457223Y-59980198D01*
X105457221Y-59980197D01*
X105294818Y-59907891D01*
X105294817Y-59907891D01*
X105288787Y-59905206D01*
X105195386Y-59885353D01*
X105108443Y-59866872D01*
X105108438Y-59866872D01*
X105101986Y-59865500D01*
X104911012Y-59865500D01*
X104904560Y-59866872D01*
X104904555Y-59866872D01*
X104817612Y-59885353D01*
X104724211Y-59905206D01*
X104718181Y-59907891D01*
X104718180Y-59907891D01*
X104555777Y-59980197D01*
X104555775Y-59980198D01*
X104549747Y-59982882D01*
X104544406Y-59986762D01*
X104544405Y-59986763D01*
X104506716Y-60014146D01*
X104395246Y-60095134D01*
X104390825Y-60100044D01*
X104390824Y-60100045D01*
X104282516Y-60220334D01*
X104267459Y-60237056D01*
X104171972Y-60402444D01*
X104112957Y-60584072D01*
X104112267Y-60590633D01*
X104112267Y-60590635D01*
X104093685Y-60767435D01*
X104092995Y-60774000D01*
X103784122Y-60774000D01*
X103765042Y-60555913D01*
X103709153Y-60347334D01*
X103707206Y-60340067D01*
X103707205Y-60340065D01*
X103705783Y-60334757D01*
X103611465Y-60132489D01*
X103611348Y-60132238D01*
X103611345Y-60132233D01*
X103609022Y-60127251D01*
X103510651Y-59986763D01*
X103480856Y-59944211D01*
X103480854Y-59944208D01*
X103477697Y-59939700D01*
X103315799Y-59777802D01*
X103311291Y-59774645D01*
X103311288Y-59774643D01*
X103174751Y-59679039D01*
X103128248Y-59646477D01*
X103123266Y-59644154D01*
X103123261Y-59644151D01*
X102925724Y-59552039D01*
X102925723Y-59552039D01*
X102920742Y-59549716D01*
X102915434Y-59548294D01*
X102915432Y-59548293D01*
X102704901Y-59491881D01*
X102704899Y-59491881D01*
X102699586Y-59490457D01*
X102471499Y-59470502D01*
X102243412Y-59490457D01*
X102238099Y-59491881D01*
X102238097Y-59491881D01*
X102027566Y-59548293D01*
X102027564Y-59548294D01*
X102022256Y-59549716D01*
X102017275Y-59552039D01*
X102017274Y-59552039D01*
X101819737Y-59644151D01*
X101819732Y-59644154D01*
X101814750Y-59646477D01*
X101768247Y-59679039D01*
X101631710Y-59774643D01*
X101631707Y-59774645D01*
X101627199Y-59777802D01*
X101465301Y-59939700D01*
X101462144Y-59944208D01*
X101462142Y-59944211D01*
X101432347Y-59986763D01*
X101333976Y-60127251D01*
X101331653Y-60132233D01*
X101331650Y-60132238D01*
X101315694Y-60166457D01*
X101268777Y-60219742D01*
X101200500Y-60239203D01*
X101132540Y-60218661D01*
X101087304Y-60166457D01*
X101071348Y-60132238D01*
X101071345Y-60132233D01*
X101069022Y-60127251D01*
X100970651Y-59986763D01*
X100940856Y-59944211D01*
X100940854Y-59944208D01*
X100937697Y-59939700D01*
X100775799Y-59777802D01*
X100771291Y-59774645D01*
X100771288Y-59774643D01*
X100634751Y-59679039D01*
X100588248Y-59646477D01*
X100583266Y-59644154D01*
X100583261Y-59644151D01*
X100385724Y-59552039D01*
X100385723Y-59552039D01*
X100380742Y-59549716D01*
X100375434Y-59548294D01*
X100375432Y-59548293D01*
X100164901Y-59491881D01*
X100164899Y-59491881D01*
X100159586Y-59490457D01*
X99931499Y-59470502D01*
X99703412Y-59490457D01*
X99698099Y-59491881D01*
X99698097Y-59491881D01*
X99487566Y-59548293D01*
X99487564Y-59548294D01*
X99482256Y-59549716D01*
X99477275Y-59552039D01*
X99477274Y-59552039D01*
X99279737Y-59644151D01*
X99279732Y-59644154D01*
X99274750Y-59646477D01*
X99228247Y-59679039D01*
X99091710Y-59774643D01*
X99091707Y-59774645D01*
X99087199Y-59777802D01*
X98925301Y-59939700D01*
X98922144Y-59944208D01*
X98922142Y-59944211D01*
X98892347Y-59986763D01*
X98793976Y-60127251D01*
X98791653Y-60132233D01*
X98791650Y-60132238D01*
X98775694Y-60166457D01*
X98728777Y-60219742D01*
X98660500Y-60239203D01*
X98592540Y-60218661D01*
X98547304Y-60166457D01*
X98531348Y-60132238D01*
X98531345Y-60132233D01*
X98529022Y-60127251D01*
X98430651Y-59986763D01*
X98400856Y-59944211D01*
X98400854Y-59944208D01*
X98397697Y-59939700D01*
X98235799Y-59777802D01*
X98231291Y-59774645D01*
X98231288Y-59774643D01*
X98094751Y-59679039D01*
X98048248Y-59646477D01*
X98043266Y-59644154D01*
X98043261Y-59644151D01*
X97845724Y-59552039D01*
X97845723Y-59552039D01*
X97840742Y-59549716D01*
X97835434Y-59548294D01*
X97835432Y-59548293D01*
X97624901Y-59491881D01*
X97624899Y-59491881D01*
X97619586Y-59490457D01*
X97391499Y-59470502D01*
X97163412Y-59490457D01*
X97158099Y-59491881D01*
X97158097Y-59491881D01*
X96947566Y-59548293D01*
X96947564Y-59548294D01*
X96942256Y-59549716D01*
X96937275Y-59552039D01*
X96937274Y-59552039D01*
X96788760Y-59621292D01*
X96718568Y-59631953D01*
X96653755Y-59602973D01*
X96614899Y-59543553D01*
X96609510Y-59507097D01*
X96609510Y-54440903D01*
X96629512Y-54372782D01*
X96683168Y-54326289D01*
X96753442Y-54316185D01*
X96788759Y-54326708D01*
X96942256Y-54398284D01*
X96947564Y-54399706D01*
X96947566Y-54399707D01*
X97158097Y-54456119D01*
X97158099Y-54456119D01*
X97163412Y-54457543D01*
X97391499Y-54477498D01*
X97619586Y-54457543D01*
X97624899Y-54456119D01*
X97624901Y-54456119D01*
X97835432Y-54399707D01*
X97835434Y-54399706D01*
X97840742Y-54398284D01*
X97932425Y-54355532D01*
X98043261Y-54303849D01*
X98043266Y-54303846D01*
X98048248Y-54301523D01*
X98180787Y-54208718D01*
X98231288Y-54173357D01*
X98231291Y-54173355D01*
X98235799Y-54170198D01*
X98397697Y-54008300D01*
X98529022Y-53820749D01*
X98531345Y-53815767D01*
X98531348Y-53815762D01*
X98547304Y-53781543D01*
X98594221Y-53728258D01*
X98662498Y-53708797D01*
X98730458Y-53729339D01*
X98775694Y-53781543D01*
X98791650Y-53815762D01*
X98791653Y-53815767D01*
X98793976Y-53820749D01*
X98925301Y-54008300D01*
X99087199Y-54170198D01*
X99091707Y-54173355D01*
X99091710Y-54173357D01*
X99142211Y-54208718D01*
X99274750Y-54301523D01*
X99279732Y-54303846D01*
X99279737Y-54303849D01*
X99390573Y-54355532D01*
X99482256Y-54398284D01*
X99487564Y-54399706D01*
X99487566Y-54399707D01*
X99698097Y-54456119D01*
X99698099Y-54456119D01*
X99703412Y-54457543D01*
X99931499Y-54477498D01*
X100159586Y-54457543D01*
X100164899Y-54456119D01*
X100164901Y-54456119D01*
X100375432Y-54399707D01*
X100375434Y-54399706D01*
X100380742Y-54398284D01*
X100472425Y-54355532D01*
X100583261Y-54303849D01*
X100583266Y-54303846D01*
X100588248Y-54301523D01*
X100720787Y-54208718D01*
X100771288Y-54173357D01*
X100771291Y-54173355D01*
X100775799Y-54170198D01*
X100937697Y-54008300D01*
X100940856Y-54003789D01*
X100944391Y-53999576D01*
X100945525Y-54000527D01*
X100995570Y-53960529D01*
X101066189Y-53953224D01*
X101129548Y-53985258D01*
X101165529Y-54046462D01*
X101168581Y-54063517D01*
X101169754Y-54074316D01*
X101220884Y-54210705D01*
X101308238Y-54327261D01*
X101424794Y-54414615D01*
X101561183Y-54465745D01*
X101623365Y-54472500D01*
X103319633Y-54472500D01*
X103381815Y-54465745D01*
X103518204Y-54414615D01*
X103634760Y-54327261D01*
X103722114Y-54210705D01*
X103773244Y-54074316D01*
X103779999Y-54012134D01*
X103779999Y-52315866D01*
X103773244Y-52253684D01*
X103722114Y-52117295D01*
X103634760Y-52000739D01*
X103518204Y-51913385D01*
X103381815Y-51862255D01*
X103319633Y-51855500D01*
X101623365Y-51855500D01*
X101561183Y-51862255D01*
X101424794Y-51913385D01*
X101308238Y-52000739D01*
X101220884Y-52117295D01*
X101169754Y-52253684D01*
X101168582Y-52264474D01*
X101167696Y-52266606D01*
X101167074Y-52269222D01*
X101166651Y-52269121D01*
X101141344Y-52330035D01*
X101082982Y-52370463D01*
X101012028Y-52372922D01*
X100951009Y-52336629D01*
X100944010Y-52327969D01*
X100940853Y-52324207D01*
X100937697Y-52319700D01*
X100775799Y-52157802D01*
X100771291Y-52154645D01*
X100771288Y-52154643D01*
X100644137Y-52065611D01*
X100588248Y-52026477D01*
X100583266Y-52024154D01*
X100583261Y-52024151D01*
X100385724Y-51932039D01*
X100385723Y-51932039D01*
X100380742Y-51929716D01*
X100375434Y-51928294D01*
X100375432Y-51928293D01*
X100164901Y-51871881D01*
X100164899Y-51871881D01*
X100159586Y-51870457D01*
X99931499Y-51850502D01*
X99731909Y-51867964D01*
X99662305Y-51853975D01*
X99611313Y-51804575D01*
X99595122Y-51735450D01*
X99618874Y-51668544D01*
X99646867Y-51640507D01*
X99687436Y-51611031D01*
X99775752Y-51546866D01*
X99803346Y-51516220D01*
X99899120Y-51409852D01*
X99899121Y-51409851D01*
X99903539Y-51404944D01*
X99972147Y-51286111D01*
X99995722Y-51245279D01*
X99995723Y-51245278D01*
X99999026Y-51239556D01*
X100058041Y-51057928D01*
X100061847Y-51021722D01*
X100077313Y-50874565D01*
X100078003Y-50868000D01*
X103838995Y-50868000D01*
X103839685Y-50874565D01*
X103855152Y-51021722D01*
X103858957Y-51057928D01*
X103917972Y-51239556D01*
X103921275Y-51245278D01*
X103921276Y-51245279D01*
X103944851Y-51286111D01*
X104013459Y-51404944D01*
X104017877Y-51409851D01*
X104017878Y-51409852D01*
X104113652Y-51516220D01*
X104141246Y-51546866D01*
X104230205Y-51611499D01*
X104283316Y-51650086D01*
X104295747Y-51659118D01*
X104301775Y-51661802D01*
X104301777Y-51661803D01*
X104464180Y-51734109D01*
X104470211Y-51736794D01*
X104553812Y-51754564D01*
X104650555Y-51775128D01*
X104650560Y-51775128D01*
X104657012Y-51776500D01*
X104847986Y-51776500D01*
X104854438Y-51775128D01*
X104854443Y-51775128D01*
X104951186Y-51754564D01*
X105034787Y-51736794D01*
X105040818Y-51734109D01*
X105203221Y-51661803D01*
X105203223Y-51661802D01*
X105209251Y-51659118D01*
X105221683Y-51650086D01*
X105274793Y-51611499D01*
X105363752Y-51546866D01*
X105391346Y-51516220D01*
X105487120Y-51409852D01*
X105487121Y-51409851D01*
X105491539Y-51404944D01*
X105560147Y-51286111D01*
X105583722Y-51245279D01*
X105583723Y-51245278D01*
X105587026Y-51239556D01*
X105646041Y-51057928D01*
X105649847Y-51021722D01*
X105665313Y-50874565D01*
X105666003Y-50868000D01*
X105646041Y-50678072D01*
X105587026Y-50496444D01*
X105572326Y-50470982D01*
X105535245Y-50406757D01*
X105491539Y-50331056D01*
X105486301Y-50325238D01*
X105368174Y-50194045D01*
X105368173Y-50194044D01*
X105363752Y-50189134D01*
X105241852Y-50100568D01*
X105214593Y-50080763D01*
X105214592Y-50080762D01*
X105209251Y-50076882D01*
X105203223Y-50074198D01*
X105203221Y-50074197D01*
X105040818Y-50001891D01*
X105040817Y-50001891D01*
X105034787Y-49999206D01*
X104941386Y-49979353D01*
X104854443Y-49960872D01*
X104854438Y-49960872D01*
X104847986Y-49959500D01*
X104657012Y-49959500D01*
X104650560Y-49960872D01*
X104650555Y-49960872D01*
X104563612Y-49979353D01*
X104470211Y-49999206D01*
X104464181Y-50001891D01*
X104464180Y-50001891D01*
X104301777Y-50074197D01*
X104301775Y-50074198D01*
X104295747Y-50076882D01*
X104290406Y-50080762D01*
X104290405Y-50080763D01*
X104263146Y-50100568D01*
X104141246Y-50189134D01*
X104136825Y-50194044D01*
X104136824Y-50194045D01*
X104018698Y-50325238D01*
X104013459Y-50331056D01*
X103969753Y-50406757D01*
X103932673Y-50470982D01*
X103917972Y-50496444D01*
X103858957Y-50678072D01*
X103838995Y-50868000D01*
X100078003Y-50868000D01*
X100058041Y-50678072D01*
X99999026Y-50496444D01*
X99984326Y-50470982D01*
X99947245Y-50406757D01*
X99903539Y-50331056D01*
X99898301Y-50325238D01*
X99780174Y-50194045D01*
X99780173Y-50194044D01*
X99775752Y-50189134D01*
X99653852Y-50100568D01*
X99626593Y-50080763D01*
X99626592Y-50080762D01*
X99621251Y-50076882D01*
X99615223Y-50074198D01*
X99615221Y-50074197D01*
X99452818Y-50001891D01*
X99452817Y-50001891D01*
X99446787Y-49999206D01*
X99353386Y-49979353D01*
X99266443Y-49960872D01*
X99266438Y-49960872D01*
X99259986Y-49959500D01*
X99069012Y-49959500D01*
X99062560Y-49960872D01*
X99062555Y-49960872D01*
X98975612Y-49979353D01*
X98882211Y-49999206D01*
X98876181Y-50001891D01*
X98876180Y-50001891D01*
X98713777Y-50074197D01*
X98713775Y-50074198D01*
X98707747Y-50076882D01*
X98702406Y-50080762D01*
X98702405Y-50080763D01*
X98675146Y-50100568D01*
X98553246Y-50189134D01*
X98548825Y-50194044D01*
X98548824Y-50194045D01*
X98430698Y-50325238D01*
X98425459Y-50331056D01*
X98394065Y-50385432D01*
X98384618Y-50401795D01*
X98333236Y-50450788D01*
X98263522Y-50464224D01*
X98197611Y-50437838D01*
X98166380Y-50401795D01*
X98156933Y-50385432D01*
X98125539Y-50331056D01*
X98120301Y-50325238D01*
X98002174Y-50194045D01*
X98002173Y-50194044D01*
X97997752Y-50189134D01*
X97875852Y-50100568D01*
X97848593Y-50080763D01*
X97848592Y-50080762D01*
X97843251Y-50076882D01*
X97837223Y-50074198D01*
X97837221Y-50074197D01*
X97674818Y-50001891D01*
X97674817Y-50001891D01*
X97668787Y-49999206D01*
X97575386Y-49979353D01*
X97488443Y-49960872D01*
X97488438Y-49960872D01*
X97481986Y-49959500D01*
X97291012Y-49959500D01*
X97284560Y-49960872D01*
X97284555Y-49960872D01*
X97197612Y-49979353D01*
X97104211Y-49999206D01*
X97098181Y-50001891D01*
X97098180Y-50001891D01*
X96935777Y-50074197D01*
X96935775Y-50074198D01*
X96929747Y-50076882D01*
X96924406Y-50080762D01*
X96924405Y-50080763D01*
X96897146Y-50100568D01*
X96775246Y-50189134D01*
X96770825Y-50194044D01*
X96770824Y-50194045D01*
X96652698Y-50325238D01*
X96647459Y-50331056D01*
X96603753Y-50406757D01*
X96566673Y-50470982D01*
X96551972Y-50496444D01*
X96492957Y-50678072D01*
X96472995Y-50868000D01*
X96473685Y-50874565D01*
X96489152Y-51021722D01*
X96492957Y-51057928D01*
X96551972Y-51239556D01*
X96555275Y-51245278D01*
X96555276Y-51245279D01*
X96578851Y-51286111D01*
X96647459Y-51404944D01*
X96651877Y-51409851D01*
X96651878Y-51409852D01*
X96747652Y-51516220D01*
X96775246Y-51546866D01*
X96864205Y-51611499D01*
X96917316Y-51650086D01*
X96929747Y-51659118D01*
X96935775Y-51661802D01*
X96935777Y-51661803D01*
X96988820Y-51685419D01*
X97042916Y-51731399D01*
X97063565Y-51799327D01*
X97044213Y-51867635D01*
X96991002Y-51914636D01*
X96970183Y-51922232D01*
X96947574Y-51928290D01*
X96947563Y-51928294D01*
X96942256Y-51929716D01*
X96937275Y-51932039D01*
X96937274Y-51932039D01*
X96739737Y-52024151D01*
X96739732Y-52024154D01*
X96734750Y-52026477D01*
X96678861Y-52065611D01*
X96627385Y-52101655D01*
X96560111Y-52124343D01*
X96491250Y-52107058D01*
X96453176Y-52072500D01*
X96446141Y-52062817D01*
X96441482Y-52056404D01*
X96407405Y-52028213D01*
X96398626Y-52020223D01*
X94864151Y-50485747D01*
X94856611Y-50477461D01*
X94852499Y-50470982D01*
X94802847Y-50424356D01*
X94800006Y-50421602D01*
X94780269Y-50401865D01*
X94777072Y-50399385D01*
X94768050Y-50391680D01*
X94741599Y-50366841D01*
X94735820Y-50361414D01*
X94728874Y-50357595D01*
X94728871Y-50357593D01*
X94718065Y-50351652D01*
X94701546Y-50340801D01*
X94694495Y-50335332D01*
X94685540Y-50328386D01*
X94678271Y-50325241D01*
X94678267Y-50325238D01*
X94644962Y-50310826D01*
X94634312Y-50305609D01*
X94595559Y-50284305D01*
X94575936Y-50279267D01*
X94557233Y-50272863D01*
X94545919Y-50267967D01*
X94545918Y-50267967D01*
X94538644Y-50264819D01*
X94530821Y-50263580D01*
X94530811Y-50263577D01*
X94494975Y-50257901D01*
X94483355Y-50255495D01*
X94448210Y-50246472D01*
X94448209Y-50246472D01*
X94440529Y-50244500D01*
X94420275Y-50244500D01*
X94400564Y-50242949D01*
X94388385Y-50241020D01*
X94380556Y-50239780D01*
X94340812Y-50243537D01*
X94336538Y-50243941D01*
X94324680Y-50244500D01*
X91220812Y-50244500D01*
X91152691Y-50224498D01*
X91106198Y-50170842D01*
X91096094Y-50100568D01*
X91125588Y-50035988D01*
X91135258Y-50026131D01*
X91139752Y-50022866D01*
X91152214Y-50009026D01*
X91263120Y-49885852D01*
X91263121Y-49885851D01*
X91267539Y-49880944D01*
X91363026Y-49715556D01*
X91422041Y-49533928D01*
X91425555Y-49500500D01*
X91441313Y-49350565D01*
X91442003Y-49344000D01*
X91422041Y-49154072D01*
X91363026Y-48972444D01*
X91267539Y-48807056D01*
X91139752Y-48665134D01*
X90985251Y-48552882D01*
X90979223Y-48550198D01*
X90979221Y-48550197D01*
X90816818Y-48477891D01*
X90816817Y-48477891D01*
X90810787Y-48475206D01*
X90717387Y-48455353D01*
X90630443Y-48436872D01*
X90630438Y-48436872D01*
X90623986Y-48435500D01*
X90433012Y-48435500D01*
X90426560Y-48436872D01*
X90426555Y-48436872D01*
X90339611Y-48455353D01*
X90246211Y-48475206D01*
X90240181Y-48477891D01*
X90240180Y-48477891D01*
X90077777Y-48550197D01*
X90077775Y-48550198D01*
X90071747Y-48552882D01*
X89917246Y-48665134D01*
X89789459Y-48807056D01*
X89693972Y-48972444D01*
X89634957Y-49154072D01*
X89614995Y-49344000D01*
X89615685Y-49350565D01*
X89631444Y-49500500D01*
X89634957Y-49533928D01*
X89693972Y-49715556D01*
X89789459Y-49880944D01*
X89793877Y-49885851D01*
X89793878Y-49885852D01*
X89904784Y-50009026D01*
X89917246Y-50022866D01*
X89920904Y-50025524D01*
X89957737Y-50085313D01*
X89956383Y-50156296D01*
X89916868Y-50215280D01*
X89851737Y-50243537D01*
X89836186Y-50244500D01*
X87817094Y-50244500D01*
X87748973Y-50224498D01*
X87727998Y-50207595D01*
X86990146Y-49469742D01*
X86982612Y-49461463D01*
X86978499Y-49454982D01*
X86928847Y-49408356D01*
X86926006Y-49405602D01*
X86906269Y-49385865D01*
X86903072Y-49383385D01*
X86894050Y-49375680D01*
X86867599Y-49350841D01*
X86861820Y-49345414D01*
X86854874Y-49341595D01*
X86854871Y-49341593D01*
X86844065Y-49335652D01*
X86827546Y-49324801D01*
X86827082Y-49324441D01*
X86811540Y-49312386D01*
X86804271Y-49309241D01*
X86804267Y-49309238D01*
X86770962Y-49294826D01*
X86760312Y-49289609D01*
X86721559Y-49268305D01*
X86712407Y-49265955D01*
X86701937Y-49263267D01*
X86683233Y-49256863D01*
X86671919Y-49251967D01*
X86671918Y-49251967D01*
X86664644Y-49248819D01*
X86656821Y-49247580D01*
X86656811Y-49247577D01*
X86620975Y-49241901D01*
X86609355Y-49239495D01*
X86574210Y-49230472D01*
X86574209Y-49230472D01*
X86566529Y-49228500D01*
X86546275Y-49228500D01*
X86526564Y-49226949D01*
X86514385Y-49225020D01*
X86506556Y-49223780D01*
X86498664Y-49224526D01*
X86462538Y-49227941D01*
X86450680Y-49228500D01*
X74101093Y-49228500D01*
X74032972Y-49208498D01*
X74011998Y-49191595D01*
X71765498Y-46945095D01*
X71731472Y-46882783D01*
X71736537Y-46811968D01*
X71779084Y-46755132D01*
X71845604Y-46730321D01*
X71854593Y-46730000D01*
X73009133Y-46730000D01*
X73071315Y-46723245D01*
X73207704Y-46672115D01*
X73324260Y-46584761D01*
X73411614Y-46468205D01*
X73462744Y-46331816D01*
X73469499Y-46269634D01*
X73469499Y-46088728D01*
X73489501Y-46020607D01*
X73543157Y-45974114D01*
X73613431Y-45964010D01*
X73678011Y-45993504D01*
X73709694Y-46035478D01*
X73740602Y-46101760D01*
X73753213Y-46128805D01*
X73874351Y-46301809D01*
X74023690Y-46451148D01*
X74028198Y-46454305D01*
X74028201Y-46454307D01*
X74189005Y-46566903D01*
X74196693Y-46572286D01*
X74201675Y-46574609D01*
X74201680Y-46574612D01*
X74383122Y-46659219D01*
X74388104Y-46661542D01*
X74393412Y-46662964D01*
X74393414Y-46662965D01*
X74586790Y-46714780D01*
X74586792Y-46714780D01*
X74592105Y-46716204D01*
X74802499Y-46734611D01*
X75012893Y-46716204D01*
X75018206Y-46714780D01*
X75018208Y-46714780D01*
X75211584Y-46662965D01*
X75211586Y-46662964D01*
X75216894Y-46661542D01*
X75221876Y-46659219D01*
X75403318Y-46574612D01*
X75403323Y-46574609D01*
X75408305Y-46572286D01*
X75415993Y-46566903D01*
X75576797Y-46454307D01*
X75576800Y-46454305D01*
X75581308Y-46451148D01*
X75730647Y-46301809D01*
X75851785Y-46128805D01*
X75864397Y-46101760D01*
X75938718Y-45942377D01*
X75938719Y-45942376D01*
X75941041Y-45937395D01*
X75950792Y-45901004D01*
X75987744Y-45840381D01*
X76051605Y-45809360D01*
X76122099Y-45817788D01*
X76176846Y-45862991D01*
X76194206Y-45901004D01*
X76203957Y-45937395D01*
X76206279Y-45942376D01*
X76206280Y-45942377D01*
X76280602Y-46101760D01*
X76293213Y-46128805D01*
X76414351Y-46301809D01*
X76563690Y-46451148D01*
X76568198Y-46454305D01*
X76568201Y-46454307D01*
X76729005Y-46566903D01*
X76736693Y-46572286D01*
X76741675Y-46574609D01*
X76741680Y-46574612D01*
X76923122Y-46659219D01*
X76928104Y-46661542D01*
X76933412Y-46662964D01*
X76933414Y-46662965D01*
X77126790Y-46714780D01*
X77126792Y-46714780D01*
X77132105Y-46716204D01*
X77342499Y-46734611D01*
X77552893Y-46716204D01*
X77558206Y-46714780D01*
X77558208Y-46714780D01*
X77751584Y-46662965D01*
X77751586Y-46662964D01*
X77756894Y-46661542D01*
X77761876Y-46659219D01*
X77943318Y-46574612D01*
X77943323Y-46574609D01*
X77948305Y-46572286D01*
X77955993Y-46566903D01*
X78116797Y-46454307D01*
X78116800Y-46454305D01*
X78121308Y-46451148D01*
X78270647Y-46301809D01*
X78391785Y-46128805D01*
X78404397Y-46101760D01*
X78478718Y-45942377D01*
X78478719Y-45942376D01*
X78481041Y-45937395D01*
X78490792Y-45901004D01*
X78527744Y-45840381D01*
X78591605Y-45809360D01*
X78662099Y-45817788D01*
X78716846Y-45862991D01*
X78734206Y-45901004D01*
X78743957Y-45937395D01*
X78746279Y-45942376D01*
X78746280Y-45942377D01*
X78820602Y-46101760D01*
X78833213Y-46128805D01*
X78954351Y-46301809D01*
X79103690Y-46451148D01*
X79108200Y-46454306D01*
X79108206Y-46454311D01*
X79269005Y-46566903D01*
X79313334Y-46622360D01*
X79320643Y-46692979D01*
X79288613Y-46756340D01*
X79270796Y-46772052D01*
X79180319Y-46837788D01*
X79052532Y-46979710D01*
X78957045Y-47145098D01*
X78898030Y-47326726D01*
X78878068Y-47516654D01*
X78878758Y-47523219D01*
X78884806Y-47580758D01*
X78898030Y-47706582D01*
X78957045Y-47888210D01*
X79052532Y-48053598D01*
X79180319Y-48195520D01*
X79334820Y-48307772D01*
X79340848Y-48310456D01*
X79340850Y-48310457D01*
X79503253Y-48382763D01*
X79509284Y-48385448D01*
X79602684Y-48405301D01*
X79689628Y-48423782D01*
X79689633Y-48423782D01*
X79696085Y-48425154D01*
X79887059Y-48425154D01*
X79893511Y-48423782D01*
X79893516Y-48423782D01*
X79980459Y-48405301D01*
X80073860Y-48385448D01*
X80079891Y-48382763D01*
X80242294Y-48310457D01*
X80242296Y-48310456D01*
X80248324Y-48307772D01*
X80402825Y-48195520D01*
X80530612Y-48053598D01*
X80626099Y-47888210D01*
X80685114Y-47706582D01*
X80698339Y-47580758D01*
X80704386Y-47523219D01*
X80705076Y-47516654D01*
X80685114Y-47326726D01*
X80626099Y-47145098D01*
X80530612Y-46979710D01*
X80402825Y-46837788D01*
X80386716Y-46826084D01*
X80343362Y-46769861D01*
X80337287Y-46699125D01*
X80370419Y-46636333D01*
X80407528Y-46609953D01*
X80483314Y-46574614D01*
X80483320Y-46574611D01*
X80488305Y-46572286D01*
X80495993Y-46566903D01*
X80656797Y-46454307D01*
X80656800Y-46454305D01*
X80661308Y-46451148D01*
X80810647Y-46301809D01*
X80931785Y-46128805D01*
X80944397Y-46101760D01*
X81018718Y-45942377D01*
X81018719Y-45942376D01*
X81021041Y-45937395D01*
X81030792Y-45901004D01*
X81067744Y-45840381D01*
X81131605Y-45809360D01*
X81202099Y-45817788D01*
X81256846Y-45862991D01*
X81274206Y-45901004D01*
X81283957Y-45937395D01*
X81286279Y-45942376D01*
X81286280Y-45942377D01*
X81360602Y-46101760D01*
X81373213Y-46128805D01*
X81494351Y-46301809D01*
X81643690Y-46451148D01*
X81648198Y-46454305D01*
X81648201Y-46454307D01*
X81809005Y-46566903D01*
X81816693Y-46572286D01*
X81821675Y-46574609D01*
X81821680Y-46574612D01*
X82003122Y-46659219D01*
X82008104Y-46661542D01*
X82013412Y-46662964D01*
X82013414Y-46662965D01*
X82206790Y-46714780D01*
X82206792Y-46714780D01*
X82212105Y-46716204D01*
X82422499Y-46734611D01*
X82632893Y-46716204D01*
X82638206Y-46714780D01*
X82638208Y-46714780D01*
X82831584Y-46662965D01*
X82831586Y-46662964D01*
X82836894Y-46661542D01*
X82841876Y-46659219D01*
X83023318Y-46574612D01*
X83023323Y-46574609D01*
X83028305Y-46572286D01*
X83035993Y-46566903D01*
X83196797Y-46454307D01*
X83196800Y-46454305D01*
X83201308Y-46451148D01*
X83350647Y-46301809D01*
X83471785Y-46128805D01*
X83484397Y-46101760D01*
X83558718Y-45942377D01*
X83558719Y-45942376D01*
X83561041Y-45937395D01*
X83570792Y-45901004D01*
X83607744Y-45840381D01*
X83671605Y-45809360D01*
X83742099Y-45817788D01*
X83796846Y-45862991D01*
X83814206Y-45901004D01*
X83823957Y-45937395D01*
X83826279Y-45942376D01*
X83826280Y-45942377D01*
X83900602Y-46101760D01*
X83913213Y-46128805D01*
X84034351Y-46301809D01*
X84183690Y-46451148D01*
X84188198Y-46454305D01*
X84188201Y-46454307D01*
X84349005Y-46566903D01*
X84356693Y-46572286D01*
X84361675Y-46574609D01*
X84361680Y-46574612D01*
X84543122Y-46659219D01*
X84548104Y-46661542D01*
X84553412Y-46662964D01*
X84553414Y-46662965D01*
X84746790Y-46714780D01*
X84746792Y-46714780D01*
X84752105Y-46716204D01*
X84962499Y-46734611D01*
X85172893Y-46716204D01*
X85178206Y-46714780D01*
X85178208Y-46714780D01*
X85371584Y-46662965D01*
X85371586Y-46662964D01*
X85376894Y-46661542D01*
X85381876Y-46659219D01*
X85563318Y-46574612D01*
X85563323Y-46574609D01*
X85568305Y-46572286D01*
X85575993Y-46566903D01*
X85736797Y-46454307D01*
X85736800Y-46454305D01*
X85741308Y-46451148D01*
X85890647Y-46301809D01*
X86011785Y-46128805D01*
X86024397Y-46101760D01*
X86098718Y-45942377D01*
X86098719Y-45942376D01*
X86101041Y-45937395D01*
X86110792Y-45901004D01*
X86147744Y-45840381D01*
X86211605Y-45809360D01*
X86282099Y-45817788D01*
X86336846Y-45862991D01*
X86354206Y-45901004D01*
X86363957Y-45937395D01*
X86366279Y-45942376D01*
X86366280Y-45942377D01*
X86440602Y-46101760D01*
X86453213Y-46128805D01*
X86574351Y-46301809D01*
X86723690Y-46451148D01*
X86728198Y-46454305D01*
X86728201Y-46454307D01*
X86889005Y-46566903D01*
X86896693Y-46572286D01*
X86901675Y-46574609D01*
X86901680Y-46574612D01*
X87083122Y-46659219D01*
X87088104Y-46661542D01*
X87093412Y-46662964D01*
X87093414Y-46662965D01*
X87286790Y-46714780D01*
X87286792Y-46714780D01*
X87292105Y-46716204D01*
X87502499Y-46734611D01*
X87712893Y-46716204D01*
X87718206Y-46714780D01*
X87718208Y-46714780D01*
X87911584Y-46662965D01*
X87911586Y-46662964D01*
X87916894Y-46661542D01*
X87921876Y-46659219D01*
X88103318Y-46574612D01*
X88103323Y-46574609D01*
X88108305Y-46572286D01*
X88115993Y-46566903D01*
X88276797Y-46454307D01*
X88276800Y-46454305D01*
X88281308Y-46451148D01*
X88430647Y-46301809D01*
X88551785Y-46128805D01*
X88564397Y-46101760D01*
X88638718Y-45942377D01*
X88638719Y-45942376D01*
X88641041Y-45937395D01*
X88650792Y-45901004D01*
X88687744Y-45840381D01*
X88751605Y-45809360D01*
X88822099Y-45817788D01*
X88876846Y-45862991D01*
X88894206Y-45901004D01*
X88903957Y-45937395D01*
X88906279Y-45942376D01*
X88906280Y-45942377D01*
X88980602Y-46101760D01*
X88993213Y-46128805D01*
X89114351Y-46301809D01*
X89263690Y-46451148D01*
X89268198Y-46454305D01*
X89268201Y-46454307D01*
X89429005Y-46566903D01*
X89436693Y-46572286D01*
X89441675Y-46574609D01*
X89441680Y-46574612D01*
X89623122Y-46659219D01*
X89628104Y-46661542D01*
X89633412Y-46662964D01*
X89633414Y-46662965D01*
X89826790Y-46714780D01*
X89826792Y-46714780D01*
X89832105Y-46716204D01*
X90042499Y-46734611D01*
X90252893Y-46716204D01*
X90258206Y-46714780D01*
X90258208Y-46714780D01*
X90451584Y-46662965D01*
X90451586Y-46662964D01*
X90456894Y-46661542D01*
X90461876Y-46659219D01*
X90643318Y-46574612D01*
X90643323Y-46574609D01*
X90648305Y-46572286D01*
X90655993Y-46566903D01*
X90701107Y-46535314D01*
X91934545Y-46535314D01*
X91944427Y-46547803D01*
X91999540Y-46584627D01*
X92009645Y-46590114D01*
X92202766Y-46673086D01*
X92213709Y-46676641D01*
X92418708Y-46723028D01*
X92430117Y-46724530D01*
X92640144Y-46732781D01*
X92651628Y-46732179D01*
X92859644Y-46702019D01*
X92870827Y-46699334D01*
X93069861Y-46631771D01*
X93080364Y-46627095D01*
X93222903Y-46547270D01*
X93232765Y-46537194D01*
X93232041Y-46535314D01*
X94474545Y-46535314D01*
X94484427Y-46547803D01*
X94539540Y-46584627D01*
X94549645Y-46590114D01*
X94742766Y-46673086D01*
X94753709Y-46676641D01*
X94958708Y-46723028D01*
X94970117Y-46724530D01*
X95180144Y-46732781D01*
X95191628Y-46732179D01*
X95399644Y-46702019D01*
X95410827Y-46699334D01*
X95609861Y-46631771D01*
X95620364Y-46627095D01*
X95762903Y-46547270D01*
X95772765Y-46537194D01*
X95769810Y-46529522D01*
X95135310Y-45895021D01*
X95121367Y-45887408D01*
X95119533Y-45887539D01*
X95112919Y-45891790D01*
X94480738Y-46523972D01*
X94474545Y-46535314D01*
X93232041Y-46535314D01*
X93229810Y-46529522D01*
X92595310Y-45895021D01*
X92581367Y-45887408D01*
X92579533Y-45887539D01*
X92572919Y-45891790D01*
X91940738Y-46523972D01*
X91934545Y-46535314D01*
X90701107Y-46535314D01*
X90816797Y-46454307D01*
X90816800Y-46454305D01*
X90821308Y-46451148D01*
X90970647Y-46301809D01*
X91091785Y-46128805D01*
X91104397Y-46101760D01*
X91178718Y-45942377D01*
X91178719Y-45942376D01*
X91181041Y-45937395D01*
X91182464Y-45932085D01*
X91182466Y-45932080D01*
X91190482Y-45902164D01*
X91227434Y-45841542D01*
X91291295Y-45810521D01*
X91361789Y-45818951D01*
X91416536Y-45864154D01*
X91434311Y-45903763D01*
X91438907Y-45921861D01*
X91442749Y-45932710D01*
X91530746Y-46123592D01*
X91536495Y-46133549D01*
X91557611Y-46163427D01*
X91568201Y-46171816D01*
X91581500Y-46164788D01*
X92210478Y-45535811D01*
X92216855Y-45524132D01*
X92946907Y-45524132D01*
X92947038Y-45525966D01*
X92951289Y-45532580D01*
X93585110Y-46166400D01*
X93597485Y-46173157D01*
X93604065Y-46168231D01*
X93686594Y-46020865D01*
X93691270Y-46010362D01*
X93731934Y-45890570D01*
X93772771Y-45832494D01*
X93838524Y-45805715D01*
X93908316Y-45818736D01*
X93959989Y-45867423D01*
X93973371Y-45900058D01*
X93978910Y-45921869D01*
X93982749Y-45932710D01*
X94070746Y-46123592D01*
X94076495Y-46133549D01*
X94097611Y-46163427D01*
X94108201Y-46171816D01*
X94121500Y-46164788D01*
X94750478Y-45535811D01*
X94756855Y-45524132D01*
X95486907Y-45524132D01*
X95487038Y-45525966D01*
X95491289Y-45532580D01*
X96125110Y-46166400D01*
X96137485Y-46173157D01*
X96144065Y-46168231D01*
X96226594Y-46020865D01*
X96231270Y-46010362D01*
X96298833Y-45811328D01*
X96301518Y-45800145D01*
X96331974Y-45590088D01*
X96332604Y-45582705D01*
X96334071Y-45526704D01*
X96333828Y-45519305D01*
X96314407Y-45307945D01*
X96312310Y-45296630D01*
X96255257Y-45094336D01*
X96251135Y-45083597D01*
X96158170Y-44895083D01*
X96152164Y-44885281D01*
X96149009Y-44881056D01*
X96137750Y-44872606D01*
X96125333Y-44879377D01*
X95494520Y-45510189D01*
X95486907Y-45524132D01*
X94756855Y-45524132D01*
X94758091Y-45521868D01*
X94757960Y-45520034D01*
X94753709Y-45513420D01*
X94118102Y-44877814D01*
X94105727Y-44871057D01*
X94099761Y-44875523D01*
X94005755Y-45054198D01*
X94001347Y-45064839D01*
X93973206Y-45155466D01*
X93933903Y-45214591D01*
X93868874Y-45243081D01*
X93798765Y-45231891D01*
X93745835Y-45184574D01*
X93731605Y-45152302D01*
X93715258Y-45094338D01*
X93711135Y-45083597D01*
X93618170Y-44895083D01*
X93612164Y-44885281D01*
X93609009Y-44881056D01*
X93597750Y-44872606D01*
X93585333Y-44879377D01*
X92954520Y-45510189D01*
X92946907Y-45524132D01*
X92216855Y-45524132D01*
X92218091Y-45521868D01*
X92217960Y-45520034D01*
X92213709Y-45513420D01*
X91578102Y-44877814D01*
X91565727Y-44871057D01*
X91559761Y-44875523D01*
X91465755Y-45054198D01*
X91461350Y-45064832D01*
X91433828Y-45153466D01*
X91394524Y-45212591D01*
X91329495Y-45241082D01*
X91259386Y-45229892D01*
X91206456Y-45182575D01*
X91191788Y-45148713D01*
X91182464Y-45113915D01*
X91182463Y-45113913D01*
X91181041Y-45108605D01*
X91160629Y-45064832D01*
X91094108Y-44922176D01*
X91094106Y-44922173D01*
X91091785Y-44917195D01*
X90970647Y-44744191D01*
X90821308Y-44594852D01*
X90816800Y-44591695D01*
X90816797Y-44591693D01*
X90699853Y-44509808D01*
X91933420Y-44509808D01*
X91936906Y-44518196D01*
X92569688Y-45150979D01*
X92583631Y-45158592D01*
X92585465Y-45158461D01*
X92592079Y-45154210D01*
X93224199Y-44522089D01*
X93230905Y-44509808D01*
X94473420Y-44509808D01*
X94476906Y-44518196D01*
X95109688Y-45150979D01*
X95123631Y-45158592D01*
X95125465Y-45158461D01*
X95132079Y-45154210D01*
X95764199Y-44522089D01*
X95770956Y-44509714D01*
X95764926Y-44501658D01*
X95677471Y-44446478D01*
X95667220Y-44441254D01*
X95484785Y-44368470D01*
X95428925Y-44324649D01*
X95405625Y-44257585D01*
X95422281Y-44188570D01*
X95473605Y-44139515D01*
X95490974Y-44132127D01*
X95609862Y-44091771D01*
X95620364Y-44087095D01*
X95762903Y-44007270D01*
X95772765Y-43997194D01*
X95769810Y-43989522D01*
X95135310Y-43355021D01*
X95121367Y-43347408D01*
X95119533Y-43347539D01*
X95112919Y-43351790D01*
X94480738Y-43983972D01*
X94474545Y-43995314D01*
X94484427Y-44007803D01*
X94539540Y-44044627D01*
X94549645Y-44050114D01*
X94742771Y-44133088D01*
X94748760Y-44135034D01*
X94807366Y-44175107D01*
X94835003Y-44240504D01*
X94822896Y-44310461D01*
X94774890Y-44362767D01*
X94753434Y-44373079D01*
X94606281Y-44427366D01*
X94595899Y-44432318D01*
X94483018Y-44499475D01*
X94473420Y-44509808D01*
X93230905Y-44509808D01*
X93230956Y-44509714D01*
X93224926Y-44501658D01*
X93137471Y-44446478D01*
X93127220Y-44441254D01*
X92944785Y-44368470D01*
X92888925Y-44324649D01*
X92865625Y-44257585D01*
X92882281Y-44188570D01*
X92933605Y-44139515D01*
X92950974Y-44132127D01*
X93069862Y-44091771D01*
X93080364Y-44087095D01*
X93222903Y-44007270D01*
X93232765Y-43997194D01*
X93229810Y-43989522D01*
X92595310Y-43355021D01*
X92581367Y-43347408D01*
X92579533Y-43347539D01*
X92572919Y-43351790D01*
X91940738Y-43983972D01*
X91934545Y-43995314D01*
X91944427Y-44007803D01*
X91999540Y-44044627D01*
X92009645Y-44050114D01*
X92202771Y-44133088D01*
X92208760Y-44135034D01*
X92267366Y-44175107D01*
X92295003Y-44240504D01*
X92282896Y-44310461D01*
X92234890Y-44362767D01*
X92213434Y-44373079D01*
X92066281Y-44427366D01*
X92055899Y-44432318D01*
X91943018Y-44499475D01*
X91933420Y-44509808D01*
X90699853Y-44509808D01*
X90652814Y-44476871D01*
X90652811Y-44476869D01*
X90648305Y-44473714D01*
X90643323Y-44471391D01*
X90643318Y-44471388D01*
X90461876Y-44386781D01*
X90461875Y-44386781D01*
X90456894Y-44384458D01*
X90451589Y-44383036D01*
X90451582Y-44383034D01*
X90424776Y-44375852D01*
X90417019Y-44373774D01*
X90356397Y-44336823D01*
X90325375Y-44272963D01*
X90333803Y-44202468D01*
X90379005Y-44147721D01*
X90409129Y-44132754D01*
X90529861Y-44091771D01*
X90540364Y-44087095D01*
X90682903Y-44007270D01*
X90692765Y-43997194D01*
X90689810Y-43989522D01*
X90055310Y-43355021D01*
X90041367Y-43347408D01*
X90039533Y-43347539D01*
X90032919Y-43351790D01*
X89400738Y-43983972D01*
X89394545Y-43995314D01*
X89404427Y-44007803D01*
X89459540Y-44044627D01*
X89469645Y-44050114D01*
X89662772Y-44133088D01*
X89666538Y-44134312D01*
X89725145Y-44174383D01*
X89752784Y-44239779D01*
X89740680Y-44309736D01*
X89692676Y-44362044D01*
X89660218Y-44375852D01*
X89633422Y-44383032D01*
X89633411Y-44383036D01*
X89628104Y-44384458D01*
X89623123Y-44386780D01*
X89623122Y-44386781D01*
X89441675Y-44471391D01*
X89441672Y-44471393D01*
X89436694Y-44473714D01*
X89263690Y-44594852D01*
X89114351Y-44744191D01*
X88993213Y-44917195D01*
X88990892Y-44922173D01*
X88990890Y-44922176D01*
X88924369Y-45064832D01*
X88903957Y-45108605D01*
X88902535Y-45113913D01*
X88902534Y-45113915D01*
X88894206Y-45144996D01*
X88857254Y-45205619D01*
X88793393Y-45236640D01*
X88722899Y-45228212D01*
X88668152Y-45183009D01*
X88650792Y-45144996D01*
X88642464Y-45113915D01*
X88642463Y-45113913D01*
X88641041Y-45108605D01*
X88620629Y-45064832D01*
X88554108Y-44922176D01*
X88554106Y-44922173D01*
X88551785Y-44917195D01*
X88430647Y-44744191D01*
X88281308Y-44594852D01*
X88276800Y-44591695D01*
X88276797Y-44591693D01*
X88112814Y-44476871D01*
X88112811Y-44476869D01*
X88108305Y-44473714D01*
X88103323Y-44471391D01*
X88103318Y-44471388D01*
X87921876Y-44386781D01*
X87921875Y-44386781D01*
X87916894Y-44384458D01*
X87911589Y-44383036D01*
X87911582Y-44383034D01*
X87884776Y-44375852D01*
X87877019Y-44373774D01*
X87816397Y-44336823D01*
X87785375Y-44272963D01*
X87793803Y-44202468D01*
X87839005Y-44147721D01*
X87869129Y-44132754D01*
X87989861Y-44091771D01*
X88000364Y-44087095D01*
X88142903Y-44007270D01*
X88152765Y-43997194D01*
X88149810Y-43989522D01*
X87515310Y-43355021D01*
X87501367Y-43347408D01*
X87499533Y-43347539D01*
X87492919Y-43351790D01*
X86860738Y-43983972D01*
X86854545Y-43995314D01*
X86864427Y-44007803D01*
X86919540Y-44044627D01*
X86929645Y-44050114D01*
X87122772Y-44133088D01*
X87126538Y-44134312D01*
X87185145Y-44174383D01*
X87212784Y-44239779D01*
X87200680Y-44309736D01*
X87152676Y-44362044D01*
X87120218Y-44375852D01*
X87093422Y-44383032D01*
X87093411Y-44383036D01*
X87088104Y-44384458D01*
X87083123Y-44386780D01*
X87083122Y-44386781D01*
X86901675Y-44471391D01*
X86901672Y-44471393D01*
X86896694Y-44473714D01*
X86723690Y-44594852D01*
X86574351Y-44744191D01*
X86453213Y-44917195D01*
X86450892Y-44922173D01*
X86450890Y-44922176D01*
X86384369Y-45064832D01*
X86363957Y-45108605D01*
X86362535Y-45113913D01*
X86362534Y-45113915D01*
X86354206Y-45144996D01*
X86317254Y-45205619D01*
X86253393Y-45236640D01*
X86182899Y-45228212D01*
X86128152Y-45183009D01*
X86110792Y-45144996D01*
X86102464Y-45113915D01*
X86102463Y-45113913D01*
X86101041Y-45108605D01*
X86080629Y-45064832D01*
X86014108Y-44922176D01*
X86014106Y-44922173D01*
X86011785Y-44917195D01*
X85890647Y-44744191D01*
X85741308Y-44594852D01*
X85736800Y-44591695D01*
X85736797Y-44591693D01*
X85572814Y-44476871D01*
X85572811Y-44476869D01*
X85568305Y-44473714D01*
X85563323Y-44471391D01*
X85563318Y-44471388D01*
X85381876Y-44386781D01*
X85381875Y-44386781D01*
X85376894Y-44384458D01*
X85371589Y-44383036D01*
X85371582Y-44383034D01*
X85344776Y-44375852D01*
X85337019Y-44373774D01*
X85276397Y-44336823D01*
X85245375Y-44272963D01*
X85253803Y-44202468D01*
X85299005Y-44147721D01*
X85329129Y-44132754D01*
X85449861Y-44091771D01*
X85460364Y-44087095D01*
X85602903Y-44007270D01*
X85612765Y-43997194D01*
X85609810Y-43989522D01*
X84975310Y-43355021D01*
X84961367Y-43347408D01*
X84959533Y-43347539D01*
X84952919Y-43351790D01*
X84320738Y-43983972D01*
X84314545Y-43995314D01*
X84324427Y-44007803D01*
X84379540Y-44044627D01*
X84389645Y-44050114D01*
X84582772Y-44133088D01*
X84586538Y-44134312D01*
X84645145Y-44174383D01*
X84672784Y-44239779D01*
X84660680Y-44309736D01*
X84612676Y-44362044D01*
X84580218Y-44375852D01*
X84553422Y-44383032D01*
X84553411Y-44383036D01*
X84548104Y-44384458D01*
X84543123Y-44386780D01*
X84543122Y-44386781D01*
X84361675Y-44471391D01*
X84361672Y-44471393D01*
X84356694Y-44473714D01*
X84183690Y-44594852D01*
X84034351Y-44744191D01*
X83913213Y-44917195D01*
X83910892Y-44922173D01*
X83910890Y-44922176D01*
X83844369Y-45064832D01*
X83823957Y-45108605D01*
X83822535Y-45113913D01*
X83822534Y-45113915D01*
X83814206Y-45144996D01*
X83777254Y-45205619D01*
X83713393Y-45236640D01*
X83642899Y-45228212D01*
X83588152Y-45183009D01*
X83570792Y-45144996D01*
X83562464Y-45113915D01*
X83562463Y-45113913D01*
X83561041Y-45108605D01*
X83540629Y-45064832D01*
X83474108Y-44922176D01*
X83474106Y-44922173D01*
X83471785Y-44917195D01*
X83350647Y-44744191D01*
X83201308Y-44594852D01*
X83196800Y-44591695D01*
X83196797Y-44591693D01*
X83032814Y-44476871D01*
X83032811Y-44476869D01*
X83028305Y-44473714D01*
X83023323Y-44471391D01*
X83023318Y-44471388D01*
X82841876Y-44386781D01*
X82841875Y-44386781D01*
X82836894Y-44384458D01*
X82831589Y-44383036D01*
X82831582Y-44383034D01*
X82804776Y-44375852D01*
X82797019Y-44373774D01*
X82736397Y-44336823D01*
X82705375Y-44272963D01*
X82713803Y-44202468D01*
X82759005Y-44147721D01*
X82789129Y-44132754D01*
X82909861Y-44091771D01*
X82920364Y-44087095D01*
X83062903Y-44007270D01*
X83072765Y-43997194D01*
X83069810Y-43989522D01*
X82435310Y-43355021D01*
X82421367Y-43347408D01*
X82419533Y-43347539D01*
X82412919Y-43351790D01*
X81780738Y-43983972D01*
X81774545Y-43995314D01*
X81784427Y-44007803D01*
X81839540Y-44044627D01*
X81849645Y-44050114D01*
X82042772Y-44133088D01*
X82046538Y-44134312D01*
X82105145Y-44174383D01*
X82132784Y-44239779D01*
X82120680Y-44309736D01*
X82072676Y-44362044D01*
X82040218Y-44375852D01*
X82013422Y-44383032D01*
X82013411Y-44383036D01*
X82008104Y-44384458D01*
X82003123Y-44386780D01*
X82003122Y-44386781D01*
X81821675Y-44471391D01*
X81821672Y-44471393D01*
X81816694Y-44473714D01*
X81643690Y-44594852D01*
X81494351Y-44744191D01*
X81373213Y-44917195D01*
X81370892Y-44922173D01*
X81370890Y-44922176D01*
X81304369Y-45064832D01*
X81283957Y-45108605D01*
X81282535Y-45113913D01*
X81282534Y-45113915D01*
X81274206Y-45144996D01*
X81237254Y-45205619D01*
X81173393Y-45236640D01*
X81102899Y-45228212D01*
X81048152Y-45183009D01*
X81030792Y-45144996D01*
X81022464Y-45113915D01*
X81022463Y-45113913D01*
X81021041Y-45108605D01*
X81000629Y-45064832D01*
X80934108Y-44922176D01*
X80934106Y-44922173D01*
X80931785Y-44917195D01*
X80810647Y-44744191D01*
X80661308Y-44594852D01*
X80656800Y-44591695D01*
X80656797Y-44591693D01*
X80492814Y-44476871D01*
X80492811Y-44476869D01*
X80488305Y-44473714D01*
X80483323Y-44471391D01*
X80483318Y-44471388D01*
X80301876Y-44386781D01*
X80301875Y-44386781D01*
X80296894Y-44384458D01*
X80291589Y-44383036D01*
X80291582Y-44383034D01*
X80264776Y-44375852D01*
X80257019Y-44373774D01*
X80196397Y-44336823D01*
X80165375Y-44272963D01*
X80173803Y-44202468D01*
X80219005Y-44147721D01*
X80249129Y-44132754D01*
X80369861Y-44091771D01*
X80380364Y-44087095D01*
X80522903Y-44007270D01*
X80532765Y-43997194D01*
X80529810Y-43989522D01*
X79895310Y-43355021D01*
X79881367Y-43347408D01*
X79879533Y-43347539D01*
X79872919Y-43351790D01*
X79240738Y-43983972D01*
X79234545Y-43995314D01*
X79244427Y-44007803D01*
X79299540Y-44044627D01*
X79309645Y-44050114D01*
X79502772Y-44133088D01*
X79506538Y-44134312D01*
X79565145Y-44174383D01*
X79592784Y-44239779D01*
X79580680Y-44309736D01*
X79532676Y-44362044D01*
X79500218Y-44375852D01*
X79473422Y-44383032D01*
X79473411Y-44383036D01*
X79468104Y-44384458D01*
X79463123Y-44386780D01*
X79463122Y-44386781D01*
X79281675Y-44471391D01*
X79281672Y-44471393D01*
X79276694Y-44473714D01*
X79103690Y-44594852D01*
X78954351Y-44744191D01*
X78833213Y-44917195D01*
X78830892Y-44922173D01*
X78830890Y-44922176D01*
X78764369Y-45064832D01*
X78743957Y-45108605D01*
X78742535Y-45113913D01*
X78742534Y-45113915D01*
X78734206Y-45144996D01*
X78697254Y-45205619D01*
X78633393Y-45236640D01*
X78562899Y-45228212D01*
X78508152Y-45183009D01*
X78490792Y-45144996D01*
X78482464Y-45113915D01*
X78482463Y-45113913D01*
X78481041Y-45108605D01*
X78460629Y-45064832D01*
X78394108Y-44922176D01*
X78394106Y-44922173D01*
X78391785Y-44917195D01*
X78270647Y-44744191D01*
X78121308Y-44594852D01*
X78116800Y-44591695D01*
X78116797Y-44591693D01*
X77952814Y-44476871D01*
X77952811Y-44476869D01*
X77948305Y-44473714D01*
X77943323Y-44471391D01*
X77943318Y-44471388D01*
X77761876Y-44386781D01*
X77761875Y-44386781D01*
X77756894Y-44384458D01*
X77751589Y-44383036D01*
X77751582Y-44383034D01*
X77724776Y-44375852D01*
X77717019Y-44373774D01*
X77656397Y-44336823D01*
X77625375Y-44272963D01*
X77633803Y-44202468D01*
X77679005Y-44147721D01*
X77709129Y-44132754D01*
X77829861Y-44091771D01*
X77840364Y-44087095D01*
X77982903Y-44007270D01*
X77992765Y-43997194D01*
X77989810Y-43989522D01*
X77355310Y-43355021D01*
X77341367Y-43347408D01*
X77339533Y-43347539D01*
X77332919Y-43351790D01*
X76700738Y-43983972D01*
X76694545Y-43995314D01*
X76704427Y-44007803D01*
X76759540Y-44044627D01*
X76769645Y-44050114D01*
X76962772Y-44133088D01*
X76966538Y-44134312D01*
X77025145Y-44174383D01*
X77052784Y-44239779D01*
X77040680Y-44309736D01*
X76992676Y-44362044D01*
X76960218Y-44375852D01*
X76933422Y-44383032D01*
X76933411Y-44383036D01*
X76928104Y-44384458D01*
X76923123Y-44386780D01*
X76923122Y-44386781D01*
X76741675Y-44471391D01*
X76741672Y-44471393D01*
X76736694Y-44473714D01*
X76563690Y-44594852D01*
X76414351Y-44744191D01*
X76293213Y-44917195D01*
X76290892Y-44922173D01*
X76290890Y-44922176D01*
X76224369Y-45064832D01*
X76203957Y-45108605D01*
X76202535Y-45113913D01*
X76202534Y-45113915D01*
X76194206Y-45144996D01*
X76157254Y-45205619D01*
X76093393Y-45236640D01*
X76022899Y-45228212D01*
X75968152Y-45183009D01*
X75950792Y-45144996D01*
X75942464Y-45113915D01*
X75942463Y-45113913D01*
X75941041Y-45108605D01*
X75920629Y-45064832D01*
X75854108Y-44922176D01*
X75854106Y-44922173D01*
X75851785Y-44917195D01*
X75730647Y-44744191D01*
X75581308Y-44594852D01*
X75576800Y-44591695D01*
X75576797Y-44591693D01*
X75412814Y-44476871D01*
X75412811Y-44476869D01*
X75408305Y-44473714D01*
X75403323Y-44471391D01*
X75403318Y-44471388D01*
X75221876Y-44386781D01*
X75221875Y-44386781D01*
X75216894Y-44384458D01*
X75211589Y-44383036D01*
X75211582Y-44383034D01*
X75184776Y-44375852D01*
X75177019Y-44373774D01*
X75116397Y-44336823D01*
X75085375Y-44272963D01*
X75093803Y-44202468D01*
X75139005Y-44147721D01*
X75169129Y-44132754D01*
X75289861Y-44091771D01*
X75300364Y-44087095D01*
X75442903Y-44007270D01*
X75452765Y-43997194D01*
X75449810Y-43989522D01*
X74815310Y-43355021D01*
X74801367Y-43347408D01*
X74799533Y-43347539D01*
X74792919Y-43351790D01*
X74160738Y-43983972D01*
X74154545Y-43995314D01*
X74164427Y-44007803D01*
X74219540Y-44044627D01*
X74229645Y-44050114D01*
X74422772Y-44133088D01*
X74426538Y-44134312D01*
X74485145Y-44174383D01*
X74512784Y-44239779D01*
X74500680Y-44309736D01*
X74452676Y-44362044D01*
X74420218Y-44375852D01*
X74393422Y-44383032D01*
X74393411Y-44383036D01*
X74388104Y-44384458D01*
X74383123Y-44386780D01*
X74383122Y-44386781D01*
X74201675Y-44471391D01*
X74201672Y-44471393D01*
X74196694Y-44473714D01*
X74023690Y-44594852D01*
X73874351Y-44744191D01*
X73753213Y-44917195D01*
X73750892Y-44922173D01*
X73750890Y-44922176D01*
X73709694Y-45010522D01*
X73662777Y-45063807D01*
X73594500Y-45083268D01*
X73526540Y-45062726D01*
X73480474Y-45008703D01*
X73469499Y-44957272D01*
X73469499Y-44776366D01*
X73462744Y-44714184D01*
X73411614Y-44577795D01*
X73324260Y-44461239D01*
X73207704Y-44373885D01*
X73071315Y-44322755D01*
X73009133Y-44316000D01*
X72834483Y-44316000D01*
X72766362Y-44295998D01*
X72719869Y-44242342D01*
X72709765Y-44172068D01*
X72739259Y-44107488D01*
X72772917Y-44080065D01*
X72902903Y-44007270D01*
X72912765Y-43997194D01*
X72909810Y-43989522D01*
X72275310Y-43355021D01*
X72261367Y-43347408D01*
X72259533Y-43347539D01*
X72252919Y-43351790D01*
X71620738Y-43983972D01*
X71614545Y-43995314D01*
X71624427Y-44007803D01*
X71679540Y-44044627D01*
X71689654Y-44050119D01*
X71745781Y-44074233D01*
X71800474Y-44119501D01*
X71822011Y-44187152D01*
X71803554Y-44255707D01*
X71750963Y-44303401D01*
X71696043Y-44316000D01*
X71515865Y-44316000D01*
X71453683Y-44322755D01*
X71317294Y-44373885D01*
X71200738Y-44461239D01*
X71113384Y-44577795D01*
X71062254Y-44714184D01*
X71055499Y-44776366D01*
X71055499Y-45930905D01*
X71035497Y-45999026D01*
X70981841Y-46045519D01*
X70911567Y-46055623D01*
X70846987Y-46026129D01*
X70840404Y-46020000D01*
X68448151Y-43627747D01*
X68440611Y-43619461D01*
X68436499Y-43612982D01*
X68386847Y-43566356D01*
X68384006Y-43563602D01*
X68364269Y-43543865D01*
X68361072Y-43541385D01*
X68352050Y-43533680D01*
X68325599Y-43508841D01*
X68319820Y-43503414D01*
X68312874Y-43499595D01*
X68312871Y-43499593D01*
X68302065Y-43493652D01*
X68285546Y-43482801D01*
X68283050Y-43480865D01*
X68269540Y-43470386D01*
X68262271Y-43467241D01*
X68262267Y-43467238D01*
X68228962Y-43452826D01*
X68218312Y-43447609D01*
X68179559Y-43426305D01*
X68159936Y-43421267D01*
X68141233Y-43414863D01*
X68129919Y-43409967D01*
X68129918Y-43409967D01*
X68122644Y-43406819D01*
X68114821Y-43405580D01*
X68114811Y-43405577D01*
X68078975Y-43399901D01*
X68067355Y-43397495D01*
X68032210Y-43388472D01*
X68032209Y-43388472D01*
X68024529Y-43386500D01*
X68004275Y-43386500D01*
X67984564Y-43384949D01*
X67972385Y-43383020D01*
X67964556Y-43381780D01*
X67956664Y-43382526D01*
X67920538Y-43385941D01*
X67908680Y-43386500D01*
X65260942Y-43386500D01*
X65192821Y-43366498D01*
X65146328Y-43312842D01*
X65142730Y-43304111D01*
X65117896Y-43236796D01*
X65116355Y-43232619D01*
X65086965Y-43178149D01*
X64990128Y-42998678D01*
X64990128Y-42998677D01*
X64988015Y-42994762D01*
X64960159Y-42957048D01*
X71051623Y-42957048D01*
X71065370Y-43166779D01*
X71067171Y-43178149D01*
X71118908Y-43381863D01*
X71122749Y-43392710D01*
X71210746Y-43583592D01*
X71216495Y-43593549D01*
X71237611Y-43623427D01*
X71248201Y-43631816D01*
X71261500Y-43624788D01*
X71890478Y-42995811D01*
X71896855Y-42984132D01*
X72626907Y-42984132D01*
X72627038Y-42985966D01*
X72631289Y-42992580D01*
X73265110Y-43626400D01*
X73277485Y-43633157D01*
X73284065Y-43628231D01*
X73366594Y-43480865D01*
X73371270Y-43470362D01*
X73411934Y-43350570D01*
X73452771Y-43292494D01*
X73518524Y-43265715D01*
X73588316Y-43278736D01*
X73639989Y-43327423D01*
X73653371Y-43360058D01*
X73658910Y-43381869D01*
X73662749Y-43392710D01*
X73750746Y-43583592D01*
X73756495Y-43593549D01*
X73777611Y-43623427D01*
X73788201Y-43631816D01*
X73801500Y-43624788D01*
X74430478Y-42995811D01*
X74436855Y-42984132D01*
X75166907Y-42984132D01*
X75167038Y-42985966D01*
X75171289Y-42992580D01*
X75805110Y-43626400D01*
X75817485Y-43633157D01*
X75824065Y-43628231D01*
X75906594Y-43480865D01*
X75911270Y-43470362D01*
X75951934Y-43350570D01*
X75992771Y-43292494D01*
X76058524Y-43265715D01*
X76128316Y-43278736D01*
X76179989Y-43327423D01*
X76193371Y-43360058D01*
X76198910Y-43381869D01*
X76202749Y-43392710D01*
X76290746Y-43583592D01*
X76296495Y-43593549D01*
X76317611Y-43623427D01*
X76328201Y-43631816D01*
X76341500Y-43624788D01*
X76970478Y-42995811D01*
X76976855Y-42984132D01*
X77706907Y-42984132D01*
X77707038Y-42985966D01*
X77711289Y-42992580D01*
X78345110Y-43626400D01*
X78357485Y-43633157D01*
X78364065Y-43628231D01*
X78446594Y-43480865D01*
X78451270Y-43470362D01*
X78491934Y-43350570D01*
X78532771Y-43292494D01*
X78598524Y-43265715D01*
X78668316Y-43278736D01*
X78719989Y-43327423D01*
X78733371Y-43360058D01*
X78738910Y-43381869D01*
X78742749Y-43392710D01*
X78830746Y-43583592D01*
X78836495Y-43593549D01*
X78857611Y-43623427D01*
X78868201Y-43631816D01*
X78881500Y-43624788D01*
X79510478Y-42995811D01*
X79516855Y-42984132D01*
X80246907Y-42984132D01*
X80247038Y-42985966D01*
X80251289Y-42992580D01*
X80885110Y-43626400D01*
X80897485Y-43633157D01*
X80904065Y-43628231D01*
X80986594Y-43480865D01*
X80991270Y-43470362D01*
X81031934Y-43350570D01*
X81072771Y-43292494D01*
X81138524Y-43265715D01*
X81208316Y-43278736D01*
X81259989Y-43327423D01*
X81273371Y-43360058D01*
X81278910Y-43381869D01*
X81282749Y-43392710D01*
X81370746Y-43583592D01*
X81376495Y-43593549D01*
X81397611Y-43623427D01*
X81408201Y-43631816D01*
X81421500Y-43624788D01*
X82050478Y-42995811D01*
X82056855Y-42984132D01*
X82786907Y-42984132D01*
X82787038Y-42985966D01*
X82791289Y-42992580D01*
X83425110Y-43626400D01*
X83437485Y-43633157D01*
X83444065Y-43628231D01*
X83526594Y-43480865D01*
X83531270Y-43470362D01*
X83571934Y-43350570D01*
X83612771Y-43292494D01*
X83678524Y-43265715D01*
X83748316Y-43278736D01*
X83799989Y-43327423D01*
X83813371Y-43360058D01*
X83818910Y-43381869D01*
X83822749Y-43392710D01*
X83910746Y-43583592D01*
X83916495Y-43593549D01*
X83937611Y-43623427D01*
X83948201Y-43631816D01*
X83961500Y-43624788D01*
X84590478Y-42995811D01*
X84596855Y-42984132D01*
X85326907Y-42984132D01*
X85327038Y-42985966D01*
X85331289Y-42992580D01*
X85965110Y-43626400D01*
X85977485Y-43633157D01*
X85984065Y-43628231D01*
X86066594Y-43480865D01*
X86071270Y-43470362D01*
X86111934Y-43350570D01*
X86152771Y-43292494D01*
X86218524Y-43265715D01*
X86288316Y-43278736D01*
X86339989Y-43327423D01*
X86353371Y-43360058D01*
X86358910Y-43381869D01*
X86362749Y-43392710D01*
X86450746Y-43583592D01*
X86456495Y-43593549D01*
X86477611Y-43623427D01*
X86488201Y-43631816D01*
X86501500Y-43624788D01*
X87130478Y-42995811D01*
X87136855Y-42984132D01*
X87866907Y-42984132D01*
X87867038Y-42985966D01*
X87871289Y-42992580D01*
X88505110Y-43626400D01*
X88517485Y-43633157D01*
X88524065Y-43628231D01*
X88606594Y-43480865D01*
X88611270Y-43470362D01*
X88651934Y-43350570D01*
X88692771Y-43292494D01*
X88758524Y-43265715D01*
X88828316Y-43278736D01*
X88879989Y-43327423D01*
X88893371Y-43360058D01*
X88898910Y-43381869D01*
X88902749Y-43392710D01*
X88990746Y-43583592D01*
X88996495Y-43593549D01*
X89017611Y-43623427D01*
X89028201Y-43631816D01*
X89041500Y-43624788D01*
X89670478Y-42995811D01*
X89676855Y-42984132D01*
X90406907Y-42984132D01*
X90407038Y-42985966D01*
X90411289Y-42992580D01*
X91045110Y-43626400D01*
X91057485Y-43633157D01*
X91064065Y-43628231D01*
X91146594Y-43480865D01*
X91151270Y-43470362D01*
X91191934Y-43350570D01*
X91232771Y-43292494D01*
X91298524Y-43265715D01*
X91368316Y-43278736D01*
X91419989Y-43327423D01*
X91433371Y-43360058D01*
X91438910Y-43381869D01*
X91442749Y-43392710D01*
X91530746Y-43583592D01*
X91536495Y-43593549D01*
X91557611Y-43623427D01*
X91568201Y-43631816D01*
X91581500Y-43624788D01*
X92210478Y-42995811D01*
X92216855Y-42984132D01*
X92946907Y-42984132D01*
X92947038Y-42985966D01*
X92951289Y-42992580D01*
X93585110Y-43626400D01*
X93597485Y-43633157D01*
X93604065Y-43628231D01*
X93686594Y-43480865D01*
X93691270Y-43470362D01*
X93731934Y-43350570D01*
X93772771Y-43292494D01*
X93838524Y-43265715D01*
X93908316Y-43278736D01*
X93959989Y-43327423D01*
X93973371Y-43360058D01*
X93978910Y-43381869D01*
X93982749Y-43392710D01*
X94070746Y-43583592D01*
X94076495Y-43593549D01*
X94097611Y-43623427D01*
X94108201Y-43631816D01*
X94121500Y-43624788D01*
X94750478Y-42995811D01*
X94756855Y-42984132D01*
X95486907Y-42984132D01*
X95487038Y-42985966D01*
X95491289Y-42992580D01*
X96125110Y-43626400D01*
X96137485Y-43633157D01*
X96144065Y-43628231D01*
X96226594Y-43480865D01*
X96231270Y-43470362D01*
X96298833Y-43271328D01*
X96301518Y-43260145D01*
X96331974Y-43050088D01*
X96332604Y-43042705D01*
X96334071Y-42986704D01*
X96333828Y-42979305D01*
X96314407Y-42767945D01*
X96312310Y-42756630D01*
X96255257Y-42554336D01*
X96251135Y-42543597D01*
X96158170Y-42355083D01*
X96152164Y-42345281D01*
X96149009Y-42341056D01*
X96137750Y-42332606D01*
X96125333Y-42339377D01*
X95494520Y-42970189D01*
X95486907Y-42984132D01*
X94756855Y-42984132D01*
X94758091Y-42981868D01*
X94757960Y-42980034D01*
X94753709Y-42973420D01*
X94118102Y-42337814D01*
X94105727Y-42331057D01*
X94099761Y-42335523D01*
X94005755Y-42514198D01*
X94001347Y-42524839D01*
X93973206Y-42615466D01*
X93933903Y-42674591D01*
X93868874Y-42703081D01*
X93798765Y-42691891D01*
X93745835Y-42644574D01*
X93731605Y-42612302D01*
X93715258Y-42554338D01*
X93711135Y-42543597D01*
X93618170Y-42355083D01*
X93612164Y-42345281D01*
X93609009Y-42341056D01*
X93597750Y-42332606D01*
X93585333Y-42339377D01*
X92954520Y-42970189D01*
X92946907Y-42984132D01*
X92216855Y-42984132D01*
X92218091Y-42981868D01*
X92217960Y-42980034D01*
X92213709Y-42973420D01*
X91578102Y-42337814D01*
X91565727Y-42331057D01*
X91559761Y-42335523D01*
X91465755Y-42514198D01*
X91461347Y-42524839D01*
X91433206Y-42615466D01*
X91393903Y-42674591D01*
X91328874Y-42703081D01*
X91258765Y-42691891D01*
X91205835Y-42644574D01*
X91191605Y-42612302D01*
X91175258Y-42554338D01*
X91171135Y-42543597D01*
X91078170Y-42355083D01*
X91072164Y-42345281D01*
X91069009Y-42341056D01*
X91057750Y-42332606D01*
X91045333Y-42339377D01*
X90414520Y-42970189D01*
X90406907Y-42984132D01*
X89676855Y-42984132D01*
X89678091Y-42981868D01*
X89677960Y-42980034D01*
X89673709Y-42973420D01*
X89038102Y-42337814D01*
X89025727Y-42331057D01*
X89019761Y-42335523D01*
X88925755Y-42514198D01*
X88921347Y-42524839D01*
X88893206Y-42615466D01*
X88853903Y-42674591D01*
X88788874Y-42703081D01*
X88718765Y-42691891D01*
X88665835Y-42644574D01*
X88651605Y-42612302D01*
X88635258Y-42554338D01*
X88631135Y-42543597D01*
X88538170Y-42355083D01*
X88532164Y-42345281D01*
X88529009Y-42341056D01*
X88517750Y-42332606D01*
X88505333Y-42339377D01*
X87874520Y-42970189D01*
X87866907Y-42984132D01*
X87136855Y-42984132D01*
X87138091Y-42981868D01*
X87137960Y-42980034D01*
X87133709Y-42973420D01*
X86498102Y-42337814D01*
X86485727Y-42331057D01*
X86479761Y-42335523D01*
X86385755Y-42514198D01*
X86381347Y-42524839D01*
X86353206Y-42615466D01*
X86313903Y-42674591D01*
X86248874Y-42703081D01*
X86178765Y-42691891D01*
X86125835Y-42644574D01*
X86111605Y-42612302D01*
X86095258Y-42554338D01*
X86091135Y-42543597D01*
X85998170Y-42355083D01*
X85992164Y-42345281D01*
X85989009Y-42341056D01*
X85977750Y-42332606D01*
X85965333Y-42339377D01*
X85334520Y-42970189D01*
X85326907Y-42984132D01*
X84596855Y-42984132D01*
X84598091Y-42981868D01*
X84597960Y-42980034D01*
X84593709Y-42973420D01*
X83958102Y-42337814D01*
X83945727Y-42331057D01*
X83939761Y-42335523D01*
X83845755Y-42514198D01*
X83841347Y-42524839D01*
X83813206Y-42615466D01*
X83773903Y-42674591D01*
X83708874Y-42703081D01*
X83638765Y-42691891D01*
X83585835Y-42644574D01*
X83571605Y-42612302D01*
X83555258Y-42554338D01*
X83551135Y-42543597D01*
X83458170Y-42355083D01*
X83452164Y-42345281D01*
X83449009Y-42341056D01*
X83437750Y-42332606D01*
X83425333Y-42339377D01*
X82794520Y-42970189D01*
X82786907Y-42984132D01*
X82056855Y-42984132D01*
X82058091Y-42981868D01*
X82057960Y-42980034D01*
X82053709Y-42973420D01*
X81418102Y-42337814D01*
X81405727Y-42331057D01*
X81399761Y-42335523D01*
X81305755Y-42514198D01*
X81301347Y-42524839D01*
X81273206Y-42615466D01*
X81233903Y-42674591D01*
X81168874Y-42703081D01*
X81098765Y-42691891D01*
X81045835Y-42644574D01*
X81031605Y-42612302D01*
X81015258Y-42554338D01*
X81011135Y-42543597D01*
X80918170Y-42355083D01*
X80912164Y-42345281D01*
X80909009Y-42341056D01*
X80897750Y-42332606D01*
X80885333Y-42339377D01*
X80254520Y-42970189D01*
X80246907Y-42984132D01*
X79516855Y-42984132D01*
X79518091Y-42981868D01*
X79517960Y-42980034D01*
X79513709Y-42973420D01*
X78878102Y-42337814D01*
X78865727Y-42331057D01*
X78859761Y-42335523D01*
X78765755Y-42514198D01*
X78761347Y-42524839D01*
X78733206Y-42615466D01*
X78693903Y-42674591D01*
X78628874Y-42703081D01*
X78558765Y-42691891D01*
X78505835Y-42644574D01*
X78491605Y-42612302D01*
X78475258Y-42554338D01*
X78471135Y-42543597D01*
X78378170Y-42355083D01*
X78372164Y-42345281D01*
X78369009Y-42341056D01*
X78357750Y-42332606D01*
X78345333Y-42339377D01*
X77714520Y-42970189D01*
X77706907Y-42984132D01*
X76976855Y-42984132D01*
X76978091Y-42981868D01*
X76977960Y-42980034D01*
X76973709Y-42973420D01*
X76338102Y-42337814D01*
X76325727Y-42331057D01*
X76319761Y-42335523D01*
X76225755Y-42514198D01*
X76221347Y-42524839D01*
X76193206Y-42615466D01*
X76153903Y-42674591D01*
X76088874Y-42703081D01*
X76018765Y-42691891D01*
X75965835Y-42644574D01*
X75951605Y-42612302D01*
X75935258Y-42554338D01*
X75931135Y-42543597D01*
X75838170Y-42355083D01*
X75832164Y-42345281D01*
X75829009Y-42341056D01*
X75817750Y-42332606D01*
X75805333Y-42339377D01*
X75174520Y-42970189D01*
X75166907Y-42984132D01*
X74436855Y-42984132D01*
X74438091Y-42981868D01*
X74437960Y-42980034D01*
X74433709Y-42973420D01*
X73798102Y-42337814D01*
X73785727Y-42331057D01*
X73779761Y-42335523D01*
X73685755Y-42514198D01*
X73681347Y-42524839D01*
X73653206Y-42615466D01*
X73613903Y-42674591D01*
X73548874Y-42703081D01*
X73478765Y-42691891D01*
X73425835Y-42644574D01*
X73411605Y-42612302D01*
X73395258Y-42554338D01*
X73391135Y-42543597D01*
X73298170Y-42355083D01*
X73292164Y-42345281D01*
X73289009Y-42341056D01*
X73277750Y-42332606D01*
X73265333Y-42339377D01*
X72634520Y-42970189D01*
X72626907Y-42984132D01*
X71896855Y-42984132D01*
X71898091Y-42981868D01*
X71897960Y-42980034D01*
X71893709Y-42973420D01*
X71258102Y-42337814D01*
X71245727Y-42331057D01*
X71239761Y-42335523D01*
X71145755Y-42514198D01*
X71141350Y-42524832D01*
X71079021Y-42725563D01*
X71076629Y-42736817D01*
X71051924Y-42945547D01*
X71051623Y-42957048D01*
X64960159Y-42957048D01*
X64827441Y-42777362D01*
X64776450Y-42725563D01*
X64726272Y-42674591D01*
X64637837Y-42584756D01*
X64545384Y-42514198D01*
X64426527Y-42423489D01*
X64426523Y-42423487D01*
X64422986Y-42420787D01*
X64187174Y-42288727D01*
X63935108Y-42191210D01*
X63930783Y-42190207D01*
X63930778Y-42190206D01*
X63825247Y-42165746D01*
X63671817Y-42130182D01*
X63402553Y-42106861D01*
X63398118Y-42107105D01*
X63398114Y-42107105D01*
X63137133Y-42121468D01*
X63137126Y-42121469D01*
X63132690Y-42121713D01*
X63001121Y-42147883D01*
X62871983Y-42173570D01*
X62871978Y-42173571D01*
X62867611Y-42174440D01*
X62863408Y-42175916D01*
X62616814Y-42262513D01*
X62616811Y-42262514D01*
X62612606Y-42263991D01*
X62608653Y-42266044D01*
X62608647Y-42266047D01*
X62564987Y-42288727D01*
X62372763Y-42388580D01*
X62369148Y-42391163D01*
X62369142Y-42391167D01*
X62156489Y-42543131D01*
X62156485Y-42543134D01*
X62152868Y-42545719D01*
X61957307Y-42732275D01*
X61789984Y-42944524D01*
X61787752Y-42948366D01*
X61787749Y-42948371D01*
X61656473Y-43174377D01*
X61656470Y-43174384D01*
X61654235Y-43178231D01*
X61652561Y-43182364D01*
X61554554Y-43424334D01*
X61552771Y-43428735D01*
X61551700Y-43433048D01*
X61551698Y-43433053D01*
X61502325Y-43631816D01*
X61487615Y-43691035D01*
X61460068Y-43959899D01*
X60197499Y-43959899D01*
X60197499Y-41969808D01*
X71613420Y-41969808D01*
X71616906Y-41978196D01*
X72249688Y-42610979D01*
X72263631Y-42618592D01*
X72265465Y-42618461D01*
X72272079Y-42614210D01*
X72904199Y-41982089D01*
X72910905Y-41969808D01*
X74153420Y-41969808D01*
X74156906Y-41978196D01*
X74789688Y-42610979D01*
X74803631Y-42618592D01*
X74805465Y-42618461D01*
X74812079Y-42614210D01*
X75444199Y-41982089D01*
X75450905Y-41969808D01*
X76693420Y-41969808D01*
X76696906Y-41978196D01*
X77329688Y-42610979D01*
X77343631Y-42618592D01*
X77345465Y-42618461D01*
X77352079Y-42614210D01*
X77984199Y-41982089D01*
X77990905Y-41969808D01*
X79233420Y-41969808D01*
X79236906Y-41978196D01*
X79869688Y-42610979D01*
X79883631Y-42618592D01*
X79885465Y-42618461D01*
X79892079Y-42614210D01*
X80524199Y-41982089D01*
X80530905Y-41969808D01*
X81773420Y-41969808D01*
X81776906Y-41978196D01*
X82409688Y-42610979D01*
X82423631Y-42618592D01*
X82425465Y-42618461D01*
X82432079Y-42614210D01*
X83064199Y-41982089D01*
X83070905Y-41969808D01*
X84313420Y-41969808D01*
X84316906Y-41978196D01*
X84949688Y-42610979D01*
X84963631Y-42618592D01*
X84965465Y-42618461D01*
X84972079Y-42614210D01*
X85604199Y-41982089D01*
X85610905Y-41969808D01*
X86853420Y-41969808D01*
X86856906Y-41978196D01*
X87489688Y-42610979D01*
X87503631Y-42618592D01*
X87505465Y-42618461D01*
X87512079Y-42614210D01*
X88144199Y-41982089D01*
X88150905Y-41969808D01*
X89393420Y-41969808D01*
X89396906Y-41978196D01*
X90029688Y-42610979D01*
X90043631Y-42618592D01*
X90045465Y-42618461D01*
X90052079Y-42614210D01*
X90684199Y-41982089D01*
X90690905Y-41969808D01*
X91933420Y-41969808D01*
X91936906Y-41978196D01*
X92569688Y-42610979D01*
X92583631Y-42618592D01*
X92585465Y-42618461D01*
X92592079Y-42614210D01*
X93224199Y-41982089D01*
X93230905Y-41969808D01*
X94473420Y-41969808D01*
X94476906Y-41978196D01*
X95109688Y-42610979D01*
X95123631Y-42618592D01*
X95125465Y-42618461D01*
X95132079Y-42614210D01*
X95764199Y-41982089D01*
X95770956Y-41969714D01*
X95764926Y-41961658D01*
X95677471Y-41906478D01*
X95667220Y-41901254D01*
X95471996Y-41823368D01*
X95460968Y-41820101D01*
X95254821Y-41779096D01*
X95243374Y-41777893D01*
X95033215Y-41775142D01*
X95021735Y-41776045D01*
X94814586Y-41811640D01*
X94803478Y-41814617D01*
X94606281Y-41887366D01*
X94595899Y-41892318D01*
X94483018Y-41959475D01*
X94473420Y-41969808D01*
X93230905Y-41969808D01*
X93230956Y-41969714D01*
X93224926Y-41961658D01*
X93137471Y-41906478D01*
X93127220Y-41901254D01*
X92931996Y-41823368D01*
X92920968Y-41820101D01*
X92714821Y-41779096D01*
X92703374Y-41777893D01*
X92493215Y-41775142D01*
X92481735Y-41776045D01*
X92274586Y-41811640D01*
X92263478Y-41814617D01*
X92066281Y-41887366D01*
X92055899Y-41892318D01*
X91943018Y-41959475D01*
X91933420Y-41969808D01*
X90690905Y-41969808D01*
X90690956Y-41969714D01*
X90684926Y-41961658D01*
X90597471Y-41906478D01*
X90587220Y-41901254D01*
X90391996Y-41823368D01*
X90380968Y-41820101D01*
X90174821Y-41779096D01*
X90163374Y-41777893D01*
X89953215Y-41775142D01*
X89941735Y-41776045D01*
X89734586Y-41811640D01*
X89723478Y-41814617D01*
X89526281Y-41887366D01*
X89515899Y-41892318D01*
X89403018Y-41959475D01*
X89393420Y-41969808D01*
X88150905Y-41969808D01*
X88150956Y-41969714D01*
X88144926Y-41961658D01*
X88057471Y-41906478D01*
X88047220Y-41901254D01*
X87851996Y-41823368D01*
X87840968Y-41820101D01*
X87634821Y-41779096D01*
X87623374Y-41777893D01*
X87413215Y-41775142D01*
X87401735Y-41776045D01*
X87194586Y-41811640D01*
X87183478Y-41814617D01*
X86986281Y-41887366D01*
X86975899Y-41892318D01*
X86863018Y-41959475D01*
X86853420Y-41969808D01*
X85610905Y-41969808D01*
X85610956Y-41969714D01*
X85604926Y-41961658D01*
X85517471Y-41906478D01*
X85507220Y-41901254D01*
X85311996Y-41823368D01*
X85300968Y-41820101D01*
X85094821Y-41779096D01*
X85083374Y-41777893D01*
X84873215Y-41775142D01*
X84861735Y-41776045D01*
X84654586Y-41811640D01*
X84643478Y-41814617D01*
X84446281Y-41887366D01*
X84435899Y-41892318D01*
X84323018Y-41959475D01*
X84313420Y-41969808D01*
X83070905Y-41969808D01*
X83070956Y-41969714D01*
X83064926Y-41961658D01*
X82977471Y-41906478D01*
X82967220Y-41901254D01*
X82771996Y-41823368D01*
X82760968Y-41820101D01*
X82554821Y-41779096D01*
X82543374Y-41777893D01*
X82333215Y-41775142D01*
X82321735Y-41776045D01*
X82114586Y-41811640D01*
X82103478Y-41814617D01*
X81906281Y-41887366D01*
X81895899Y-41892318D01*
X81783018Y-41959475D01*
X81773420Y-41969808D01*
X80530905Y-41969808D01*
X80530956Y-41969714D01*
X80524926Y-41961658D01*
X80437471Y-41906478D01*
X80427220Y-41901254D01*
X80231996Y-41823368D01*
X80220968Y-41820101D01*
X80014821Y-41779096D01*
X80003374Y-41777893D01*
X79793215Y-41775142D01*
X79781735Y-41776045D01*
X79574586Y-41811640D01*
X79563478Y-41814617D01*
X79366281Y-41887366D01*
X79355899Y-41892318D01*
X79243018Y-41959475D01*
X79233420Y-41969808D01*
X77990905Y-41969808D01*
X77990956Y-41969714D01*
X77984926Y-41961658D01*
X77897471Y-41906478D01*
X77887220Y-41901254D01*
X77691996Y-41823368D01*
X77680968Y-41820101D01*
X77474821Y-41779096D01*
X77463374Y-41777893D01*
X77253215Y-41775142D01*
X77241735Y-41776045D01*
X77034586Y-41811640D01*
X77023478Y-41814617D01*
X76826281Y-41887366D01*
X76815899Y-41892318D01*
X76703018Y-41959475D01*
X76693420Y-41969808D01*
X75450905Y-41969808D01*
X75450956Y-41969714D01*
X75444926Y-41961658D01*
X75357471Y-41906478D01*
X75347220Y-41901254D01*
X75151996Y-41823368D01*
X75140968Y-41820101D01*
X74934821Y-41779096D01*
X74923374Y-41777893D01*
X74713215Y-41775142D01*
X74701735Y-41776045D01*
X74494586Y-41811640D01*
X74483478Y-41814617D01*
X74286281Y-41887366D01*
X74275899Y-41892318D01*
X74163018Y-41959475D01*
X74153420Y-41969808D01*
X72910905Y-41969808D01*
X72910956Y-41969714D01*
X72904926Y-41961658D01*
X72817471Y-41906478D01*
X72807220Y-41901254D01*
X72611996Y-41823368D01*
X72600968Y-41820101D01*
X72394821Y-41779096D01*
X72383374Y-41777893D01*
X72173215Y-41775142D01*
X72161735Y-41776045D01*
X71954586Y-41811640D01*
X71943478Y-41814617D01*
X71746281Y-41887366D01*
X71735899Y-41892318D01*
X71623018Y-41959475D01*
X71613420Y-41969808D01*
X60197499Y-41969808D01*
X60197499Y-40457806D01*
X62219860Y-40457806D01*
X62227250Y-40468108D01*
X62269129Y-40502203D01*
X62276408Y-40507318D01*
X62500255Y-40642085D01*
X62508169Y-40646118D01*
X62748785Y-40748006D01*
X62757190Y-40750883D01*
X63009756Y-40817850D01*
X63018488Y-40819516D01*
X63277973Y-40850227D01*
X63286839Y-40850645D01*
X63548060Y-40844490D01*
X63556913Y-40843653D01*
X63814661Y-40800752D01*
X63823295Y-40798679D01*
X64072429Y-40719888D01*
X64080691Y-40716617D01*
X64316230Y-40603513D01*
X64323954Y-40599107D01*
X64517767Y-40469606D01*
X64526055Y-40459688D01*
X64518798Y-40445509D01*
X63385311Y-39312022D01*
X63371367Y-39304408D01*
X63369534Y-39304539D01*
X63362919Y-39308790D01*
X62227026Y-40444683D01*
X62219860Y-40457806D01*
X60197499Y-40457806D01*
X60197499Y-38884367D01*
X61460744Y-38884367D01*
X61471002Y-39145459D01*
X61471977Y-39154288D01*
X61518921Y-39411332D01*
X61521130Y-39419934D01*
X61603823Y-39667796D01*
X61607227Y-39676014D01*
X61724018Y-39909750D01*
X61728542Y-39917398D01*
X61843851Y-40084235D01*
X61854172Y-40092589D01*
X61867822Y-40085467D01*
X63000477Y-38952812D01*
X63006855Y-38941132D01*
X63736907Y-38941132D01*
X63737038Y-38942965D01*
X63741289Y-38949580D01*
X64878016Y-40086307D01*
X64891416Y-40093624D01*
X64901320Y-40086637D01*
X64917185Y-40067763D01*
X64922404Y-40060580D01*
X65060670Y-39838876D01*
X65064832Y-39831017D01*
X65170487Y-39592030D01*
X65173493Y-39583680D01*
X65244420Y-39332192D01*
X65246221Y-39323499D01*
X65281171Y-39063292D01*
X65281699Y-39056899D01*
X65285272Y-38943222D01*
X65285145Y-38936779D01*
X65266605Y-38674923D01*
X65265352Y-38666119D01*
X65210357Y-38410677D01*
X65207878Y-38402144D01*
X65117440Y-38157002D01*
X65113785Y-38148907D01*
X64989705Y-37918947D01*
X64984946Y-37911449D01*
X64900258Y-37796790D01*
X64889130Y-37788348D01*
X64876537Y-37795172D01*
X63744521Y-38927188D01*
X63736907Y-38941132D01*
X63006855Y-38941132D01*
X63008091Y-38938868D01*
X63007960Y-38937035D01*
X63003709Y-38930420D01*
X61868318Y-37795029D01*
X61855477Y-37788017D01*
X61844788Y-37795813D01*
X61793162Y-37861299D01*
X61788157Y-37868663D01*
X61656919Y-38094605D01*
X61653015Y-38102575D01*
X61554919Y-38344763D01*
X61552175Y-38353207D01*
X61489182Y-38606800D01*
X61487655Y-38615551D01*
X61461023Y-38875483D01*
X61460744Y-38884367D01*
X60197499Y-38884367D01*
X60197499Y-37422688D01*
X62220544Y-37422688D01*
X62227524Y-37435815D01*
X63359687Y-38567978D01*
X63373631Y-38575592D01*
X63375464Y-38575461D01*
X63382079Y-38571210D01*
X64517303Y-37435986D01*
X64524157Y-37423434D01*
X64515949Y-37412363D01*
X64426261Y-37343916D01*
X64418812Y-37339023D01*
X64190852Y-37211359D01*
X64182802Y-37207571D01*
X63939116Y-37113295D01*
X63930626Y-37110683D01*
X63676077Y-37051683D01*
X63667299Y-37050293D01*
X63406977Y-37027746D01*
X63398106Y-37027606D01*
X63137195Y-37041965D01*
X63128385Y-37043079D01*
X62872106Y-37094055D01*
X62863549Y-37096396D01*
X62616995Y-37182980D01*
X62608861Y-37186500D01*
X62376976Y-37306955D01*
X62369404Y-37311594D01*
X62228946Y-37411967D01*
X62220544Y-37422688D01*
X60197499Y-37422688D01*
X60197499Y-33351000D01*
X60217501Y-33282879D01*
X60271157Y-33236386D01*
X60323499Y-33225000D01*
X107061499Y-33225000D01*
X107129620Y-33245002D01*
G37*
%TD.AperFunction*%
%TD*%
M02*
