%TF.GenerationSoftware,KiCad,Pcbnew,(6.0.2)*%
%TF.CreationDate,2022-03-10T22:08:29-05:00*%
%TF.ProjectId,SmartSole-Rev1,536d6172-7453-46f6-9c65-2d526576312e,rev?*%
%TF.SameCoordinates,Original*%
%TF.FileFunction,Soldermask,Top*%
%TF.FilePolarity,Negative*%
%FSLAX46Y46*%
G04 Gerber Fmt 4.6, Leading zero omitted, Abs format (unit mm)*
G04 Created by KiCad (PCBNEW (6.0.2)) date 2022-03-10 22:08:29*
%MOMM*%
%LPD*%
G01*
G04 APERTURE LIST*
G04 Aperture macros list*
%AMRoundRect*
0 Rectangle with rounded corners*
0 $1 Rounding radius*
0 $2 $3 $4 $5 $6 $7 $8 $9 X,Y pos of 4 corners*
0 Add a 4 corners polygon primitive as box body*
4,1,4,$2,$3,$4,$5,$6,$7,$8,$9,$2,$3,0*
0 Add four circle primitives for the rounded corners*
1,1,$1+$1,$2,$3*
1,1,$1+$1,$4,$5*
1,1,$1+$1,$6,$7*
1,1,$1+$1,$8,$9*
0 Add four rect primitives between the rounded corners*
20,1,$1+$1,$2,$3,$4,$5,0*
20,1,$1+$1,$4,$5,$6,$7,0*
20,1,$1+$1,$6,$7,$8,$9,0*
20,1,$1+$1,$8,$9,$2,$3,0*%
G04 Aperture macros list end*
%ADD10RoundRect,0.200000X0.200000X0.275000X-0.200000X0.275000X-0.200000X-0.275000X0.200000X-0.275000X0*%
%ADD11RoundRect,0.200000X-0.200000X-0.275000X0.200000X-0.275000X0.200000X0.275000X-0.200000X0.275000X0*%
%ADD12C,2.800000*%
%ADD13R,1.398000X1.398000*%
%ADD14C,1.398000*%
%ADD15C,0.800000*%
%ADD16RoundRect,0.225000X-0.225000X-0.250000X0.225000X-0.250000X0.225000X0.250000X-0.225000X0.250000X0*%
%ADD17R,0.800000X0.800000*%
%ADD18R,1.397000X1.397000*%
%ADD19C,1.397000*%
%ADD20RoundRect,0.225000X0.250000X-0.225000X0.250000X0.225000X-0.250000X0.225000X-0.250000X-0.225000X0*%
%ADD21R,0.558800X1.320800*%
%ADD22RoundRect,0.225000X0.225000X0.250000X-0.225000X0.250000X-0.225000X-0.250000X0.225000X-0.250000X0*%
%ADD23R,1.200000X0.800000*%
%ADD24R,2.000000X1.500000*%
%ADD25R,1.600000X1.600000*%
%ADD26O,1.600000X1.600000*%
%ADD27RoundRect,0.200000X-0.275000X0.200000X-0.275000X-0.200000X0.275000X-0.200000X0.275000X0.200000X0*%
G04 APERTURE END LIST*
D10*
%TO.C,R21*%
X75627499Y-63249710D03*
X73977499Y-63249710D03*
%TD*%
D11*
%TO.C,R12*%
X95647100Y-64601015D03*
X97297100Y-64601015D03*
%TD*%
D12*
%TO.C,3V3*%
X87502499Y-91010000D03*
%TD*%
D13*
%TO.C,J3*%
X81152499Y-68150000D03*
D14*
X81152499Y-70690000D03*
X81152499Y-73230000D03*
X81152499Y-75770000D03*
X81152499Y-78310000D03*
X81152499Y-80850000D03*
X81152499Y-83390000D03*
X81152499Y-85930000D03*
X81152499Y-88470000D03*
X81152499Y-91010000D03*
X81152499Y-93550000D03*
X81152499Y-96090000D03*
%TD*%
D11*
%TO.C,R9*%
X79037498Y-65151000D03*
X80687498Y-65151000D03*
%TD*%
D15*
%TO.C,F0*%
X99164499Y-50868000D03*
%TD*%
D12*
%TO.C,3V0*%
X63372499Y-44020000D03*
%TD*%
D10*
%TO.C,R13*%
X97297100Y-62899568D03*
X95647100Y-62899568D03*
%TD*%
D11*
%TO.C,R4*%
X100866499Y-64975000D03*
X102516499Y-64975000D03*
%TD*%
D15*
%TO.C,F3*%
X99191612Y-65077727D03*
%TD*%
%TO.C,A4*%
X81981567Y-51025367D03*
%TD*%
%TO.C,A1*%
X85448499Y-51122000D03*
%TD*%
D16*
%TO.C,C6*%
X66100109Y-49400921D03*
X67650109Y-49400921D03*
%TD*%
D10*
%TO.C,R6*%
X67700109Y-51051921D03*
X66050109Y-51051921D03*
%TD*%
%TO.C,R8*%
X89597499Y-75770000D03*
X87947499Y-75770000D03*
%TD*%
%TO.C,R14*%
X89597499Y-83390000D03*
X87947499Y-83390000D03*
%TD*%
D17*
%TO.C,D1*%
X102492099Y-90237000D03*
X102492099Y-91737000D03*
%TD*%
D15*
%TO.C,VR1*%
X97386499Y-50868000D03*
%TD*%
D16*
%TO.C,C9*%
X79062498Y-63451000D03*
X80612498Y-63451000D03*
%TD*%
D13*
%TO.C,J2*%
X65912499Y-96090000D03*
D14*
X65912499Y-93550000D03*
X65912499Y-91010000D03*
X65912499Y-88470000D03*
X65912499Y-85930000D03*
X65912499Y-83390000D03*
X65912499Y-80850000D03*
X65912499Y-78310000D03*
X65912499Y-75770000D03*
X65912499Y-73230000D03*
X65912499Y-70690000D03*
X65912499Y-68150000D03*
%TD*%
D11*
%TO.C,R20*%
X73936252Y-65054275D03*
X75586252Y-65054275D03*
%TD*%
D15*
%TO.C,VR2*%
X70454806Y-63006031D03*
%TD*%
D18*
%TO.C,J1*%
X72262499Y-45523000D03*
D19*
X72262499Y-42983000D03*
X74802499Y-45523000D03*
X74802499Y-42983000D03*
X77342499Y-45523000D03*
X77342499Y-42983000D03*
X79882499Y-45523000D03*
X79882499Y-42983000D03*
X82422499Y-45523000D03*
X82422499Y-42983000D03*
X84962499Y-45523000D03*
X84962499Y-42983000D03*
X87502499Y-45523000D03*
X87502499Y-42983000D03*
X90042499Y-45523000D03*
X90042499Y-42983000D03*
X92582499Y-45523000D03*
X92582499Y-42983000D03*
X95122499Y-45523000D03*
X95122499Y-42983000D03*
%TD*%
D10*
%TO.C,R15*%
X89597499Y-78310000D03*
X87947499Y-78310000D03*
%TD*%
D15*
%TO.C,F7*%
X82422499Y-63070000D03*
%TD*%
D10*
%TO.C,R3*%
X89821422Y-64894386D03*
X88171422Y-64894386D03*
%TD*%
D20*
%TO.C,C12*%
X72986480Y-51134622D03*
X72986480Y-49584622D03*
%TD*%
D15*
%TO.C,A2*%
X86474524Y-63090215D03*
%TD*%
%TO.C,F4*%
X79791572Y-47516654D03*
%TD*%
D16*
%TO.C,C3*%
X88244524Y-63100215D03*
X89794524Y-63100215D03*
%TD*%
D21*
%TO.C,U3*%
X96147498Y-92534000D03*
X94097500Y-92534000D03*
X95122499Y-94432650D03*
%TD*%
D15*
%TO.C,A5*%
X64372723Y-51113142D03*
%TD*%
%TO.C,A3*%
X105006499Y-60774000D03*
%TD*%
%TO.C,A6*%
X63693176Y-63122612D03*
%TD*%
D22*
%TO.C,C1*%
X102479499Y-49090000D03*
X100929499Y-49090000D03*
%TD*%
D15*
%TO.C,F1*%
X90528499Y-49344000D03*
%TD*%
D16*
%TO.C,C2*%
X87200499Y-49344000D03*
X88750499Y-49344000D03*
%TD*%
D12*
%TO.C,GND1*%
X63372499Y-38940000D03*
%TD*%
D23*
%TO.C,J4*%
X101557499Y-76355000D03*
X101557499Y-77455000D03*
X101557499Y-78555000D03*
X101557499Y-79655000D03*
X101557499Y-80755000D03*
X101557499Y-81855000D03*
X101557499Y-82955000D03*
X101557499Y-84055000D03*
D24*
X103757499Y-86525000D03*
X95557499Y-86525000D03*
X95557499Y-72635000D03*
X103757499Y-72635000D03*
%TD*%
D12*
%TO.C,GND2*%
X87502499Y-96090000D03*
%TD*%
D10*
%TO.C,R7*%
X67001731Y-64773612D03*
X65351731Y-64773612D03*
%TD*%
D25*
%TO.C,U2*%
X80612498Y-53291000D03*
D26*
X78072498Y-53291000D03*
X75532498Y-53291000D03*
X72992498Y-53291000D03*
X70452498Y-53291000D03*
X67912498Y-53291000D03*
X65372498Y-53291000D03*
X65372498Y-60911000D03*
X67912498Y-60911000D03*
X70452498Y-60911000D03*
X72992498Y-60911000D03*
X75532498Y-60911000D03*
X78072498Y-60911000D03*
X80612498Y-60911000D03*
%TD*%
D15*
%TO.C,F5*%
X69467934Y-51015157D03*
%TD*%
%TO.C,A7*%
X82518035Y-64975416D03*
%TD*%
D11*
%TO.C,R1*%
X100879499Y-50741000D03*
X102529499Y-50741000D03*
%TD*%
D27*
%TO.C,R10*%
X104012499Y-90185000D03*
X104012499Y-91835000D03*
%TD*%
D22*
%TO.C,C5*%
X79981815Y-49516891D03*
X78431815Y-49516891D03*
%TD*%
D15*
%TO.C,F6*%
X70992499Y-48592000D03*
%TD*%
D11*
%TO.C,R5*%
X78381815Y-51167891D03*
X80031815Y-51167891D03*
%TD*%
D10*
%TO.C,R11*%
X89597499Y-80850000D03*
X87947499Y-80850000D03*
%TD*%
D25*
%TO.C,U1*%
X102471499Y-53164000D03*
D26*
X99931499Y-53164000D03*
X97391499Y-53164000D03*
X94851499Y-53164000D03*
X92311499Y-53164000D03*
X89771499Y-53164000D03*
X87231499Y-53164000D03*
X87231499Y-60784000D03*
X89771499Y-60784000D03*
X92311499Y-60784000D03*
X94851499Y-60784000D03*
X97391499Y-60784000D03*
X99931499Y-60784000D03*
X102471499Y-60784000D03*
%TD*%
D16*
%TO.C,C7*%
X65401731Y-63122612D03*
X66951731Y-63122612D03*
%TD*%
D10*
%TO.C,R2*%
X88811349Y-51026265D03*
X87161349Y-51026265D03*
%TD*%
D20*
%TO.C,C13*%
X94848120Y-50754974D03*
X94848120Y-49204974D03*
%TD*%
D15*
%TO.C,A0*%
X104752499Y-50868000D03*
%TD*%
D16*
%TO.C,C8*%
X68439499Y-88470000D03*
X69989499Y-88470000D03*
%TD*%
%TO.C,C11*%
X96219918Y-90650244D03*
X97769918Y-90650244D03*
%TD*%
D15*
%TO.C,F2*%
X91554524Y-63090215D03*
%TD*%
D22*
%TO.C,C4*%
X102466499Y-63324000D03*
X100916499Y-63324000D03*
%TD*%
D16*
%TO.C,C10*%
X95109499Y-96598000D03*
X96659499Y-96598000D03*
%TD*%
M02*
